#  ==========================================================================
#  
#  Wavefront OBJ format exported by Red-i Productions' "Riptide Pro"
#     (a commercial plugin for Cinema 4D PC & Mac, R9.6 or later)
#  
#  Red-i Productions
#  http://skinprops.com
#  
#  ==========================================================================
mtllib add_gong_of_taiwan.mtl
o __.1
v 2.22939 16.0844 18.9
v 2.22939 80.8295 19.3661
v 142.224 80.8295 19.3661
v 142.224 16.0844 18.9
v 2.22938 15.4765 103.349
v 2.22938 80.2224 103.688
v 142.224 80.2224 103.688
v 142.224 15.4765 103.349
v 2.22938 15.4992 105.498
v 2.22938 80.1951 102.932
v 142.224 80.1951 102.932
v 142.224 15.4992 105.498
v 2.22938 15.8995 110.323
v 2.22938 80.1309 102.169
v 142.224 80.1309 102.169
v 142.224 15.8995 110.323
v 2.22938 16.8715 116.169
v 2.22938 80.1504 102.101
v 142.224 80.1504 102.101
v 142.224 16.8715 116.169
v 2.22938 18.688 122.796
v 2.22938 80.2418 102.434
v 142.224 80.2418 102.434
v 142.224 18.688 122.796
v 2.22938 21.039 128.832
v 2.22938 80.2522 102.461
v 142.224 80.2522 102.461
v 142.224 21.039 128.832
v 2.22938 23.5886 133.894
v 2.22938 80.0482 102.056
v 142.224 80.0482 102.056
v 142.224 23.5886 133.894
v 2.22938 26.7512 138.935
v 2.22938 79.7864 101.638
v 142.224 79.7864 101.638
v 142.224 26.7512 138.935
v 2.22937 30.7211 143.993
v 2.22938 79.3287 101.055
v 142.224 79.3287 101.055
v 142.224 30.7211 143.993
v 2.22937 35.5725 148.881
v 2.22938 78.6574 100.379
v 142.224 78.6574 100.379
v 142.224 35.5725 148.881
v 2.22937 41.0265 153.144
v 2.22938 78.1075 99.9491
v 142.224 78.1075 99.9491
v 142.224 41.0265 153.144
v 2.22937 45.618 155.985
v 2.22938 77.2156 99.3972
v 142.224 77.2156 99.3972
v 142.224 45.618 155.985
v 2.22937 50.2438 158.302
v 2.22938 76.6529 99.1153
v 142.224 76.6529 99.1153
v 142.224 50.2438 158.303
v 2.22937 55.4769 160.362
v 2.22938 75.8631 98.8045
v 142.224 75.8631 98.8045
v 142.224 55.4769 160.362
v 2.22937 62.5465 162.278
v 2.22938 76.208 98.898
v 142.224 76.208 98.898
v 142.224 62.5465 162.278
v 2.22937 68.232 163.169
v 2.22938 75.9895 98.8887
v 142.224 75.9895 98.8887
v 142.224 68.232 163.169
v 2.22937 73.6826 163.61
v 2.22938 76.4444 98.9226
v 142.224 76.4444 98.9226
v 142.224 73.6826 163.61
v 2.22937 112.025 163.819
v 2.22938 111.005 99.0803
v 142.224 111.005 99.0803
v 142.224 112.025 163.819
# 76 vertices

vt 0.00000 1.00000
vt 0.25000 1.00000
vt 0.25000 0.53464
vt 0.00000 0.53464
vt 0.50000 1.00000
vt 0.50000 0.53464
vt 0.75000 1.00000
vt 0.75000 0.53464
vt 1.00000 1.00000
vt 1.00000 0.53464
vt 0.25000 0.53080
vt 0.00000 0.53080
vt 0.50000 0.53080
vt 0.75000 0.53080
vt 1.00000 0.53080
vt 0.25000 0.51956
vt 0.00000 0.51956
vt 0.50000 0.51956
vt 0.75000 0.51956
vt 1.00000 0.51956
vt 0.25000 0.50340
vt 0.00000 0.50340
vt 0.50000 0.50340
vt 0.75000 0.50340
vt 1.00000 0.50340
vt 0.25000 0.48350
vt 0.00000 0.48350
vt 0.50000 0.48350
vt 0.75000 0.48350
vt 1.00000 0.48350
vt 0.25000 0.46556
vt 0.00000 0.46556
vt 0.50000 0.46556
vt 0.75000 0.46556
vt 1.00000 0.46556
vt 0.25000 0.45118
vt 0.00000 0.45118
vt 0.50000 0.45118
vt 0.75000 0.45118
vt 1.00000 0.45118
vt 0.25000 0.43613
vt 0.00000 0.43613
vt 0.50000 0.43613
vt 0.75000 0.43613
vt 1.00000 0.43613
vt 0.25000 0.42045
vt 0.00000 0.42045
vt 0.50000 0.42045
vt 0.75000 0.42045
vt 1.00000 0.42045
vt 0.25000 0.40409
vt 0.00000 0.40409
vt 0.50000 0.40409
vt 0.75000 0.40409
vt 1.00000 0.40409
vt 0.25000 0.38692
vt 0.00000 0.38692
vt 0.50000 0.38692
vt 0.75000 0.38692
vt 1.00000 0.38692
vt 0.25000 0.37493
vt 0.00000 0.37493
vt 0.50000 0.37493
vt 0.75000 0.37493
vt 1.00000 0.37493
vt 0.25000 0.36240
vt 0.00000 0.36240
vt 0.50000 0.36240
vt 0.75000 0.36240
vt 1.00000 0.36240
vt 0.25000 0.34923
vt 0.00000 0.34923
vt 0.50000 0.34923
vt 0.75000 0.34923
vt 1.00000 0.34923
vt 0.25000 0.32805
vt 0.00000 0.32805
vt 0.50000 0.32805
vt 0.75000 0.32805
vt 1.00000 0.32805
vt 0.25000 0.31278
vt 0.00000 0.31278
vt 0.50000 0.31278
vt 0.75000 0.31278
vt 1.00000 0.31278
vt 0.25000 0.29645
vt 0.00000 0.29645
vt 0.50000 0.29645
vt 0.75000 0.29645
vt 1.00000 0.29645
vt 0.25000 0.09543
vt 0.00000 0.09543
vt 0.50000 0.09543
vt 0.75000 0.09543
vt 1.00000 0.09543
# 95 texture coordinates

vn -1 -1.36729e-009 -1.19792e-007
vn -9.2654e-009 0.999974 0.00719974
vn 1 3.09435e-008 9.74189e-008
vn 9.54454e-009 -0.999974 -0.00719829
vn 8.40796e-009 -0.999999 0.00168155
vn 9.60105e-008 -0.00642282 -0.999979
vn 9.40203e-008 -0.0288874 -0.999583
vn 4.6633e-009 -0.99935 0.0360462
vn 2.20427e-009 -0.998198 0.0600075
vn -9.41044e-008 0.0279491 0.999609
vn -9.01407e-008 0.071182 0.997463
vn 1.0341e-008 -0.998911 0.0466507
vn 9.19826e-008 -0.0513374 -0.998681
vn 1.81346e-008 -0.995318 -0.096653
vn -8.60082e-008 0.114281 0.993448
vn 5.79792e-009 -0.99235 0.123453
vn -8.47611e-008 0.126926 0.991912
vn 3.59338e-008 -0.961705 -0.274088
vn 7.55152e-008 -0.216073 -0.976377
vn -6.9428e-009 -0.97673 0.214471
vn -1 3.00667e-008 -8.09953e-008
vn 1.88742e-008 0.964425 -0.264356
vn 2.4064e-008 0.9494 -0.314068
vn 1 2.67545e-008 6.54203e-008
vn -1.76925e-008 -0.949403 0.31406
vn 2.91889e-008 0.931815 -0.362934
vn 1 2.29122e-008 5.38056e-008
vn -3.07935e-008 -0.913498 0.406842
vn 1.12073e-007 0.952949 -0.30313
vn 1.1069e-007 0.959019 -0.283342
vn -3.83913e-008 -0.893105 0.449849
vn -4.27845e-008 -0.871047 0.4912
vn -5.71477e-008 0.373352 0.92769
vn -4.8233e-008 0.441909 0.89706
vn -4.26983e-008 -0.871047 0.491199
vn 1.09259e-007 0.964678 -0.263433
vn -5.17377e-008 -0.817988 0.575236
vn -7.52535e-008 -0.624741 0.780832
vn -3.90463e-008 0.507974 0.861372
vn -8.03866e-008 -0.562976 0.826473
vn -8.00921e-008 -0.562976 0.826473
vn -6.11344e-008 -0.749467 0.662041
vn 8.32795e-008 -0.141745 -0.989903
vn -6.07206e-008 -0.749467 0.662041
vn -3.80161e-008 -0.906584 -0.422025
vn -7.05674e-008 -0.664122 0.747624
vn -9.03128e-008 -0.648913 0.760863
vn 1.13197e-007 0.947544 -0.319627
vn -8.96664e-008 -0.648913 0.760863
vn -6.95975e-008 -0.664122 0.747624
vn -9.578e-008 -0.587384 0.809308
vn -9.51027e-008 -0.587384 0.809308
vn -7.87846e-008 -0.571851 0.820357
vn 1.01215e-007 0.0551431 -0.998478
vn -7.77684e-008 -0.571851 0.820358
vn -2.37113e-008 -0.852988 -0.52193
vn -2.68687e-008 -0.865659 -0.500635
vn -8.48603e-008 -0.487529 0.873107
vn -7.19326e-008 -0.989385 -0.145315
vn -8.43083e-008 -0.487529 0.873107
vn -3.00096e-008 -0.877797 -0.479032
vn -8.95717e-008 -0.407473 0.913217
vn 3.58128e-010 0.745233 0.666804
vn 2.597e-008 0.8621 0.506739
vn -8.93392e-008 -0.407473 0.913217
vn -0 0 0
vn -9.17045e-008 -0.366182 0.930543
vn 5.05619e-008 0.945104 0.326769
vn -9.31138e-008 -0.314383 0.949296
vn -1 8.6888e-008 -9.65706e-008
vn 9.61146e-008 0.261628 -0.965169
vn 1 -8.6888e-008 9.65706e-008
vn -9.66755e-008 -0.208532 0.978016
vn -1.01385e-007 -0.0424585 0.999098
vn -9.98231e-008 -0.117846 0.993032
vn -1 3.44242e-008 -9.73567e-008
vn 1.00927e-007 0.0743544 -0.997232
vn 1.01594e-007 0.0394826 -0.99922
vn -1.01619e-007 -0.0431089 0.99907
vn -1 -1.80395e-008 -9.81428e-008
vn 1.02138e-007 0.00456266 -0.99999
vn -1.02255e-007 -0.00544003 0.999985
# 82 vertex normals

usemtl 123.2
f 5/4/1 6/3/1 2/2/1 1/1/1
f 6/3/2 7/6/2 3/5/2 2/2/2
f 7/6/3 8/8/3 4/7/3 3/5/3
f 8/8/5 5/10/5 1/9/4 4/7/4
f 9/12/7 10/11/7 6/3/6 5/4/6
f 10/11/9 11/13/9 7/6/8 6/3/8
f 11/13/11 12/14/11 8/8/10 7/6/10
f 12/14/12 9/15/12 5/10/5 8/8/5
f 13/17/13 14/16/13 10/11/7 9/12/7
f 14/16/14 15/18/14 11/13/9 10/11/9
f 15/18/15 16/19/15 12/14/11 11/13/11
f 16/19/16 13/20/16 9/15/12 12/14/12
f 17/22/17 18/21/17 14/16/17 13/17/17
f 18/21/18 19/23/18 15/18/14 14/16/14
f 19/23/19 20/24/19 16/19/19 15/18/19
f 20/24/20 17/25/20 13/20/16 16/19/16
f 21/27/21 22/26/21 18/21/21 17/22/21
f 22/26/23 23/28/23 19/23/22 18/21/22
f 23/28/24 24/29/24 20/24/24 19/23/24
f 24/29/25 21/30/25 17/25/20 20/24/20
f 25/32/21 26/31/21 22/26/21 21/27/21
f 26/31/26 27/33/26 23/28/23 22/26/23
f 27/33/27 28/34/27 24/29/24 23/28/24
f 28/34/28 25/35/28 21/30/25 24/29/25
f 29/37/30 30/36/30 26/31/29 25/32/29
f 30/36/32 31/38/32 27/33/31 26/31/31
f 31/38/34 32/39/34 28/34/33 27/33/33
f 32/39/35 29/40/35 25/35/28 28/34/28
f 33/42/36 34/41/36 30/36/30 29/37/30
f 34/41/38 35/43/37 31/38/32 30/36/32
f 35/43/39 36/44/39 32/39/34 31/38/34
f 36/44/37 33/45/38 29/40/35 32/39/35
f 37/47/41 38/46/40 34/41/38 33/42/38
f 38/46/40 39/48/42 35/43/37 34/41/38
f 39/48/43 40/49/43 36/44/43 35/43/43
f 40/49/44 37/50/41 33/45/38 36/44/37
f 41/52/45 42/51/45 38/46/45 37/47/45
f 42/51/47 43/53/46 39/48/42 38/46/40
f 43/53/48 44/54/48 40/49/48 39/48/48
f 44/54/50 41/55/49 37/50/41 40/49/44
f 45/57/52 46/56/51 42/51/47 41/52/49
f 46/56/51 47/58/53 43/53/46 42/51/47
f 47/58/54 48/59/54 44/54/54 43/53/54
f 48/59/55 45/60/52 41/55/49 44/54/50
f 49/62/57 50/61/57 46/56/56 45/57/56
f 50/61/58 51/63/58 47/58/53 46/56/51
f 51/63/59 52/64/59 48/59/59 47/58/59
f 52/64/60 49/65/60 45/60/52 48/59/55
f 53/67/61 54/66/61 50/61/57 49/62/57
f 54/66/62 55/68/62 51/63/58 50/61/58
f 55/68/64 56/69/64 52/64/63 51/63/63
f 56/69/65 53/70/65 49/65/60 52/64/60
f 57/72/66 58/71/66 54/66/66 53/67/66
f 58/71/67 59/73/67 55/68/62 54/66/62
f 59/73/68 60/74/68 56/69/64 55/68/64
f 60/74/69 57/75/69 53/70/65 56/69/65
f 61/77/70 62/76/70 58/71/70 57/72/70
f 62/76/71 63/78/71 59/73/71 58/71/71
f 63/78/72 64/79/72 60/74/72 59/73/72
f 64/79/73 61/80/73 57/75/69 60/74/69
f 65/82/66 66/81/66 62/76/66 61/77/66
f 66/81/74 67/83/74 63/78/74 62/76/74
f 67/83/66 68/84/66 64/79/66 63/78/66
f 68/84/75 65/85/75 61/80/73 64/79/73
f 69/87/76 70/86/76 66/81/70 65/82/70
f 70/86/78 71/88/78 67/83/77 66/81/77
f 71/88/72 72/89/72 68/84/72 67/83/72
f 72/89/79 69/90/79 65/85/75 68/84/75
f 73/92/80 74/91/80 70/86/76 69/87/76
f 74/91/81 75/93/81 71/88/78 70/86/78
f 75/93/72 76/94/72 72/89/72 71/88/72
f 76/94/82 73/95/82 69/90/79 72/89/79
# 72 facets

o __
v 2.22937 112.025 163.819
v 2.22938 111.005 99.0803
v 142.224 111.005 99.0803
v 142.224 112.025 163.819
# 4 vertices

vt 0.46249 1.00000
vt 0.00000 1.00000
vt 0.46249 0.00000
vt 0.00000 0.00000
# 4 texture coordinates

vn -7.92978e-009 0.999876 -0.0157485
# 1 vertex normals

f 80/98/83 78/97/83 77/96/83
f 80/98/83 79/99/83 78/97/83
# 2 facets

o ___.1
v 142.128 107.916 99.1788
v 142.128 164.767 99.1788
v 142.128 339.885 99.1788
v 142.128 350.063 99.1788
v 132.901 107.916 99.1788
v 132.901 164.767 99.1788
v 132.901 339.885 99.1788
v 132.901 350.063 99.1788
v 12.3926 107.916 99.1788
v 12.3926 164.767 99.1788
v 12.3926 339.885 99.1788
v 12.3926 350.063 99.1788
v 2.1781 107.916 99.1788
v 2.1781 164.767 99.1788
v 2.1781 339.885 99.1788
v 2.1781 350.063 99.1788
v 2.1781 107.916 163.979
v 2.1781 164.767 163.979
v 2.1781 339.885 163.979
v 2.1781 350.063 163.979
v 12.3926 107.916 163.979
v 12.3926 164.767 163.979
v 12.3926 339.885 163.979
v 12.3926 350.063 163.979
v 132.901 107.916 163.979
v 132.901 164.767 163.979
v 132.901 339.885 163.979
v 132.901 350.063 163.979
v 142.128 107.916 163.979
v 142.128 164.767 163.979
v 142.128 339.885 163.979
v 142.128 350.063 163.979
v 142.128 164.767 -22.5
v 142.128 339.885 -22.5
v 132.901 164.767 -22.5
v 132.901 339.885 -22.5
v 12.3926 164.767 -127.824
v 12.3926 339.885 -127.824
v 2.1781 164.767 -127.824
v 2.1781 339.885 -127.824
v 12.6847 164.673 99.1788
v 12.6847 164.673 -22.5
v 12.6847 164.673 53.4236
v 132.901 164.767 53.4236
v 171.544 440.391 78.4001
v -26.2497 440.391 78.4001
v -26.2497 440.391 184.758
v 171.544 440.391 184.758
v 156.313 440.391 86.5896
v -11.0196 440.391 86.5896
v -11.0196 440.391 176.568
v 156.313 440.391 176.568
v 156.313 431.063 86.5896
v -11.0196 431.063 86.5896
v -11.0196 431.063 176.568
v 156.313 431.063 176.568
# 56 vertices

vt 0.00000 0.00000
vt 0.00000 0.33333
vt 0.33333 0.33333
vt 0.33333 0.00000
vt 0.66667 0.33333
vt 0.66667 0.00000
vt 1.00000 0.33333
vt 1.00000 0.00000
vt 0.00000 0.66667
vt 0.33333 0.66667
vt 0.66667 1.00000
vt 1.00000 1.00000
vt 0.66667 0.66667
vt 1.00000 0.66667
vt 0.00000 1.00000
vt 0.33333 1.00000
# 16 texture coordinates

vn -0 0 -1
vn -0 -1 0
vn -0 -0.0751537 -0.997172
vn -1 0 0
vn -0 0 1
vn -0 -0.0751537 0.997172
vn 1 0 0
vn -0 1 0
vn -0.000784539 1 0
vn -0 -0.224182 -0.974547
vn -0.919401 -0.393321 0
vn -0 -0.224182 0.974547
vn 0.919401 -0.393321 0
# 13 vertex normals

usemtl 123.2
f 85/103/84 86/102/84 82/101/84 81/100/84
f 89/105/84 90/104/84 86/102/84 85/103/84
f 93/107/84 94/106/84 90/104/84 89/105/84
f 115/102/84 116/109/84 114/108/84 113/101/84
f 97/107/85 93/111/85 89/110/85 101/105/85
f 119/106/84 120/113/84 118/112/84 117/104/84
f 87/109/84 88/115/86 84/114/84 83/108/84
f 91/112/84 92/110/86 88/115/86 87/109/84
f 95/113/84 96/111/84 92/110/86 91/112/84
f 97/107/87 98/106/87 94/101/87 93/100/87
f 98/106/87 99/113/87 95/108/87 94/101/87
f 99/113/87 100/111/87 96/114/87 95/108/87
f 101/103/88 102/102/88 98/101/88 97/100/88
f 105/105/88 106/104/88 102/102/88 101/103/88
f 109/107/88 110/106/88 106/104/88 105/105/88
f 102/102/88 103/109/88 99/108/88 98/101/88
f 106/104/88 107/112/88 103/109/88 102/102/88
f 110/106/88 111/113/88 107/112/88 106/104/88
f 103/109/88 104/115/89 100/114/88 99/108/88
f 107/112/88 108/110/89 104/115/89 103/109/88
f 111/113/88 112/111/88 108/110/89 107/112/88
f 81/107/90 82/106/90 110/101/90 109/100/90
f 82/106/90 83/113/90 111/108/90 110/101/90
f 83/113/90 84/111/90 112/114/90 111/108/90
f 88/103/91 108/115/91 112/114/91 84/100/91
f 129/103/87 133/103/87 136/115/87 132/115/87
f 96/107/91 100/111/91 104/110/91 92/105/91
f 105/103/85 85/115/85 81/114/85 109/100/85
f 101/105/85 89/110/85 85/115/85 105/103/85
f 86/102/85 115/102/85 113/101/85 82/101/85
f 87/109/87 116/109/87 115/102/87 86/102/87
f 83/108/91 114/108/91 116/109/91 87/109/91
f 82/101/90 113/101/90 114/108/90 83/108/90
f 94/106/85 119/106/85 117/104/85 90/104/85
f 95/113/87 120/113/87 119/106/87 94/106/87
f 91/112/91 118/112/91 120/113/91 95/113/91
f 90/104/90 117/104/90 118/112/90 91/112/90
f 115/100/92 122/107/92 121/111/92 86/114/92
f 92/105/86 126/105/93 125/103/93 88/103/86
f 104/110/94 127/110/94 126/105/94 92/105/94
f 108/115/89 128/115/95 127/110/95 104/110/89
f 88/103/96 125/103/96 128/115/96 108/115/96
f 126/105/91 130/105/91 129/103/91 125/103/91
f 127/110/91 131/110/91 130/105/91 126/105/91
f 128/115/91 132/115/91 131/110/91 127/110/91
f 125/103/91 129/103/91 132/115/91 128/115/91
f 130/105/88 134/105/88 133/103/88 129/103/88
f 131/110/90 135/110/90 134/105/90 130/105/90
f 132/115/84 136/115/84 135/110/84 131/110/84
# 49 facets

o ___
v 290.589 -408.031 -309.474
v 290.589 -96.8786 -309.474
v 268.923 -408.031 -309.474
v 268.923 -96.8786 -309.474
v -412.727 -408.031 -309.474
v -412.727 -96.8786 -309.474
v -434.895 -408.031 -309.474
v -434.895 -96.8786 -309.474
v -434.895 -408.031 -288.307
v -434.895 -96.8786 -288.307
v -434.895 -408.031 26.9209
v -434.895 -96.8786 26.9209
v -434.895 -408.031 46.3164
v -434.895 -96.8786 46.3164
v -412.727 -408.031 46.3164
v -412.727 -96.8786 46.3164
v 268.923 -408.031 46.3164
v 268.923 -96.8786 46.3164
v 290.589 -408.031 46.3164
v 290.589 -96.8786 46.3164
v 290.589 -408.031 26.9209
v 290.589 -96.8786 26.9209
v 290.589 -408.031 -288.307
v 290.589 -96.8786 -288.307
v 268.923 -96.8786 -288.307
v 268.923 -96.8786 26.9209
v -412.727 -96.8786 -288.307
v -412.727 -96.8786 26.9209
v 268.923 -408.031 26.9209
v 268.923 -408.031 -288.307
v -412.727 -408.031 26.9209
v -412.727 -408.031 -288.307
v 268.923 -34.276 -288.307
v 268.923 -34.276 26.9209
v -412.727 -34.276 -288.307
v -412.727 -34.276 26.9209
v 295.065 -1.29717 -300.396
v 295.065 -1.29717 39.0099
v -438.869 -1.29717 -300.396
v -438.869 -1.29717 39.0099
v 295.065 134.152 -300.396
v 295.065 134.152 39.0099
v -438.869 134.152 -300.396
v -438.869 134.152 39.0099
v 325.152 164.804 -314.31
v 325.152 164.804 52.9239
v -468.956 164.804 -314.31
v -468.956 164.804 52.9239
v 325.152 132.945 -314.31
v 325.152 132.945 52.9239
v -468.956 132.945 -314.31
v -468.956 132.945 52.9239
# 52 vertices

vt 0.00000 0.00000
vt 0.00000 1.00000
vt 0.33333 1.00000
vt 0.33333 0.00000
vt 0.66667 1.00000
vt 0.66667 0.00000
vt 1.00000 1.00000
vt 1.00000 0.00000
vt 0.00000 0.33333
vt 0.33333 0.33333
vt 0.66667 0.33333
vt 1.00000 0.33333
vt 0.00000 0.66667
vt 0.33333 0.66667
vt 0.66667 0.66667
vt 1.00000 0.66667
# 16 texture coordinates

vn -0 0 -1
vn -1 0 0
vn -0 0 1
vn 1 0 0
vn -0 1 0
vn -0 -1 0
vn 0.635697 -0.344053 -0.691026
vn -0.635697 -0.344053 -0.691026
vn -0.635697 -0.344053 0.691026
vn 0.635697 -0.344053 0.691026
vn -0.0200667 -0.998862 0.043265
vn 0.0200668 -0.998862 0.043265
vn 0.0200668 -0.998862 -0.0432647
vn -0.0200667 -0.998862 -0.0432647
# 14 vertex normals

usemtl Red_Win123e
f 139/119/97 140/118/97 138/117/97 137/116/97
f 141/121/97 142/120/97 140/118/97 139/119/97
f 143/123/97 144/122/97 142/120/97 141/121/97
f 145/119/98 146/118/98 144/117/98 143/116/98
f 147/121/98 148/120/98 146/118/98 145/119/98
f 149/123/98 150/122/98 148/120/98 147/121/98
f 151/119/99 152/118/99 150/117/99 149/116/99
f 153/121/99 154/120/99 152/118/99 151/119/99
f 155/123/99 156/122/99 154/120/99 153/121/99
f 157/119/100 158/118/100 156/117/100 155/116/100
f 159/121/100 160/120/100 158/118/100 157/119/100
f 137/123/100 138/122/100 160/120/100 159/121/100
f 140/119/101 161/125/101 160/124/101 138/116/101
f 142/121/101 163/126/101 161/125/101 140/119/101
f 144/123/101 146/127/101 163/126/101 142/121/101
f 161/125/101 162/129/101 158/128/101 160/124/101
f 183/126/101 184/130/101 182/129/101 181/125/101
f 146/127/101 148/131/101 164/130/101 163/126/101
f 162/129/101 154/118/101 156/117/101 158/128/101
f 164/130/101 152/120/101 154/118/101 162/129/101
f 148/131/101 150/122/101 152/120/101 164/130/101
f 153/119/102 165/125/102 157/124/102 155/116/102
f 151/121/102 167/126/102 165/125/102 153/119/102
f 149/123/102 147/127/102 167/126/102 151/121/102
f 165/125/102 166/129/102 159/128/102 157/124/102
f 167/126/102 168/130/102 166/129/102 165/125/102
f 147/127/102 145/131/102 168/130/102 167/126/102
f 166/129/102 139/118/102 137/117/102 159/128/102
f 168/130/102 141/120/102 139/118/102 166/129/102
f 145/131/102 143/122/102 141/120/102 168/130/102
f 163/126/97 171/126/104 169/125/103 161/125/97
f 164/130/98 172/130/105 171/126/104 163/126/98
f 162/129/99 170/129/106 172/130/105 164/130/99
f 161/125/100 169/125/103 170/129/106 162/129/100
f 171/126/104 175/126/104 173/125/103 169/125/103
f 172/130/105 176/130/105 175/126/104 171/126/104
f 170/129/106 174/129/106 176/130/105 172/130/105
f 169/125/103 173/125/103 174/129/106 170/129/106
f 175/126/104 179/126/97 177/125/97 173/125/103
f 176/130/105 180/130/98 179/126/98 175/126/104
f 174/129/106 178/129/99 180/130/99 176/130/105
f 173/125/103 177/125/100 178/129/100 174/129/106
f 187/126/97 183/126/97 181/125/97 185/125/97
f 188/130/98 184/130/98 183/126/98 187/126/98
f 186/129/99 182/129/99 184/130/99 188/130/99
f 185/125/100 181/125/100 182/129/100 186/129/100
f 179/126/108 187/126/108 185/125/107 177/125/107
f 180/130/109 188/130/109 187/126/108 179/126/108
f 178/129/110 186/129/110 188/130/109 180/130/109
f 177/125/107 185/125/107 186/129/110 178/129/110
# 50 facets

