#  ==========================================================================
#  
#  Wavefront OBJ format exported by Red-i Productions' "Riptide Pro"
#     (a commercial plugin for Cinema 4D PC & Mac, R9.6 or later)
#  
#  Red-i Productions
#  http://skinprops.com
#  
#  ==========================================================================
mtllib dehydration_ room.mtl
o ___
v -710.747 190.791 -846.986
v -710.747 190.791 -77.9489
v -1798.12 190.791 -1855.79
v -1798.12 190.791 -982.18
v -1944.8 190.791 -1855.79
v -1944.8 190.791 -982.18
v -2857.51 190.791 -1855.79
v -2857.51 190.791 -982.18
v -1798.12 -803.745 -1997.95
v -1798.12 41.2902 -1997.95
v -1944.8 -803.745 -1997.95
v -1944.8 41.2902 -1997.95
v -2857.51 -803.745 -1997.95
v -2857.51 41.2902 -1997.95
v -3011.16 -803.745 -1997.95
v -3011.16 41.2902 -1997.95
v -3011.16 -803.745 -1855.79
v -3011.16 41.2902 -1855.79
v -3011.16 -803.745 -982.18
v -3011.16 41.2902 -982.18
v -3011.16 -803.745 -846.986
v -3011.16 41.2902 -846.986
v -3011.16 -803.745 -77.9489
v -3011.16 41.2902 -77.9489
v -3011.16 -803.745 63.0328
v -3011.16 41.2902 63.0328
v -3011.16 -803.745 2839.99
v -3011.16 41.2902 2839.99
v -3011.16 -803.745 2982.15
v -3011.16 41.2902 2982.15
v -2857.51 -803.745 2982.15
v -2857.51 41.2902 2982.15
v -1756.46 -803.745 2982.15
v -1756.46 41.2902 2982.15
v -1609.78 -803.745 2982.15
v -1609.78 41.2902 2982.15
v -710.747 -803.745 2982.15
v -710.747 41.2902 2982.15
v 627.153 -803.745 2982.15
v 627.153 41.2902 2982.15
v 1595.85 -803.745 2982.15
v 1595.85 41.2902 2982.15
v 1777.36 -803.745 2982.15
v 1777.36 41.2902 2982.15
v 2864.48 -803.745 2982.15
v 2864.48 41.2902 2982.15
v 3011.16 -803.745 2982.15
v 3011.16 41.2902 2982.15
v 3011.16 -803.745 2839.99
v 3011.16 41.2902 2839.99
v 3011.16 -803.745 63.0328
v 3011.16 41.2902 63.0328
v 3011.16 -803.745 -77.9489
v 3011.16 41.2902 -77.9489
v 3011.16 -803.745 -846.986
v 3011.16 41.2902 -846.986
v 3011.16 -803.745 -982.18
v 3011.16 41.2902 -982.18
v -2857.51 190.791 -846.986
v -2857.51 190.791 -77.9489
v -2857.51 190.791 63.0328
v 2864.48 41.2902 -982.18
v 2864.48 41.2902 -846.986
v 2864.48 41.2902 -77.9489
v 2864.48 41.2902 63.0328
v 2864.48 41.2902 2839.99
v -2857.51 190.791 2839.99
v 1946.92 41.2902 -982.18
v -2857.51 -803.745 -982.18
v -2857.51 -803.745 -77.9489
v 627.153 -803.745 -77.9489
v 2864.48 -803.745 -982.18
v 429.522 -803.745 -77.9489
v 1765.41 41.2902 -982.18
v 429.522 -803.745 -846.986
v -1944.8 -803.745 -1855.79
v -2857.51 -803.745 2839.99
v -1798.12 -803.745 -982.18
v 627.153 41.2902 -846.986
v 627.153 41.2902 -77.9489
v 1946.92 -803.745 -982.18
v -2857.51 -803.745 63.0328
v -710.747 41.2902 -846.986
v -710.747 41.2902 -77.9489
v 1765.41 -803.745 -982.18
v -529.219 -803.745 -77.9489
v -1798.12 41.2902 -1855.79
v -1798.12 41.2902 -982.18
v -710.747 -803.745 -77.9489
v -2857.51 -803.745 -846.986
v 627.153 -803.745 -846.986
v -1944.8 41.2902 -1855.79
v -1944.8 41.2902 -982.18
v -2857.51 -803.745 -1855.79
v -1798.12 -803.745 -1855.79
v -1944.8 -803.745 -982.18
v -2857.51 41.2902 -1855.79
v -2857.51 41.2902 -982.18
v -2857.51 41.2902 -846.986
v -2857.51 41.2902 -77.9489
v -2857.51 41.2902 63.0328
v -2857.51 41.2902 2839.99
v 2864.48 -803.745 2839.99
v 2864.48 -803.745 63.0328
v 2864.48 -803.745 -77.9489
v 2864.48 -803.745 -846.986
v 1765.41 41.2902 -981.431
v 1765.41 -803.745 -988.219
v -1798.83 41.2902 -981.431
v -1798.83 -803.745 -988.219
v -1798.83 41.2902 -1997.71
v -1798.83 -803.745 -1997.71
v 230.403 -803.745 -846.986
v 2864.48 190.785 -982.18
v 230.403 -803.745 -77.9489
v 1946.92 190.785 -982.18
v -1944.8 190.785 -1855.79
v -1944.8 190.785 -982.18
v -2857.51 190.785 -1855.79
v -2857.51 190.785 -982.18
v 2864.48 190.785 -846.986
v 2864.48 190.785 -77.9489
v 627.153 190.785 -846.986
v 627.153 190.785 -77.9489
v -710.747 190.785 -846.986
v -710.747 190.785 -77.9489
v -2857.51 190.785 -846.986
v -2857.51 190.785 -77.9489
v 2864.48 190.785 63.0328
v 2864.48 190.785 2839.99
v -2857.51 190.785 63.0328
v -2857.51 190.785 2839.99
v 420.447 190.791 -728.17
v 420.447 190.791 -196.765
v -504.042 190.791 -728.17
v -504.042 190.791 -196.765
v -1798.12 190.791 -1997.95
v -1944.8 190.791 -1997.95
v -2857.51 190.791 -1997.95
v -3011.16 190.791 -1997.95
v -3011.16 190.791 -1855.79
v -3011.16 190.791 -982.18
v -3011.16 190.791 -846.986
v -3011.16 190.791 -77.9489
v -3011.16 190.791 63.0328
v -3011.16 190.791 2839.99
v -3011.16 190.791 2982.15
v -2857.51 190.791 2982.15
v -1756.46 190.791 2982.15
v -1609.78 190.791 2982.15
v -710.747 190.791 2982.15
v 627.153 190.791 2982.15
v 1595.85 190.791 2982.15
v 1777.36 190.791 2982.15
v 2864.48 190.791 2982.15
v 3011.16 190.791 2982.15
v 3011.16 190.791 2839.99
v 3011.16 190.791 63.0328
v 3011.16 190.791 -77.9489
v 3011.16 190.791 -846.986
v 3011.16 190.791 -982.18
v 2864.48 190.791 -982.18
v 2864.48 190.791 -846.986
v 2864.48 190.791 -77.9489
v 2864.48 190.791 63.0328
v 2864.48 190.791 2839.99
v 1946.92 190.791 -982.18
v 1765.41 190.791 -982.18
v 627.153 190.791 -846.986
v 627.153 190.791 -77.9489
v 1745.2 41.2902 -982.18
v 1745.2 -803.745 -982.18
v 1721.44 190.791 -982.18
v 1721.44 41.2902 -982.18
v 1867.67 -803.745 63.0328
v -3854.32 -803.745 63.0328
v -576.36 190.791 -728.17
v -576.36 190.791 -196.765
v -1093.64 -803.745 -907.122
v -1093.64 -803.745 -894.592
v 627.153 -27.2136 2982.15
v 627.153 -360.244 2982.15
v 1595.85 -27.2136 2982.15
v 1777.36 -27.2136 2982.15
v 1595.85 -360.244 2982.15
v 1777.36 -360.244 2982.15
v -529.219 -803.745 -642.171
v -437.919 -803.745 -846.986
v -710.747 -803.745 -642.171
v 3011.16 -803.745 1784.54
v 2864.48 -803.745 814.372
v -437.919 -803.745 -982.18
v -1093.64 -803.745 -846.986
v 2864.48 -803.745 1784.54
v -1093.64 -803.745 -982.18
v 3011.16 -803.745 814.372
v 1765.41 -27.2136 -981.982
v -1093.64 -803.745 -988.219
v -437.919 -803.745 -988.219
v 1745.2 -360.244 -982.18
v 1765.41 -360.244 -984.657
v 1745.2 -27.2136 -982.18
v -2645.5 -27.2136 -1997.95
v -1787.18 -360.244 2982.15
v -1787.18 -27.2136 2982.15
v -2442.91 -27.2136 2982.15
v 507.381 -27.2136 2982.15
v -1989.77 -27.2136 -1997.95
v -1989.77 -360.244 -1997.95
v -813.383 -360.244 2982.15
v -1469.11 -27.2136 2982.15
v -2442.91 -360.244 2982.15
v -2645.5 -360.244 -1997.95
v 1163.1 -360.244 2982.15
v 507.381 -360.244 2982.15
v 3011.16 -20.1901 814.372
v -1469.11 -360.244 2982.15
v 1163.1 -27.2136 2982.15
v 2136.91 -360.244 2982.15
v -1093.64 -803.745 -642.171
v 3011.16 -20.1901 1784.54
v 1481.18 -27.2136 2982.15
v -813.383 -27.2136 2982.15
v -437.919 -803.745 -642.171
v 1481.18 -360.244 2982.15
v 2476.56 -803.745 814.372
v 2476.56 -803.745 1784.54
v -1093.64 -20.1901 -981.925
v 2136.91 -27.2136 2982.15
v -437.919 -20.1901 -981.925
v 1481.18 -27.2136 -981.982
v 1481.18 -360.244 -984.657
v 507.381 -360.244 -984.657
v 1163.1 -27.2136 -981.982
v 1163.1 -360.244 -984.657
v 507.381 -27.2136 -981.982
v 2136.91 -27.2136 -982.18
v 2136.91 -360.244 -982.18
# 238 vertices

vt 0.00000 0.42857
vt 0.00000 0.28571
vt 0.34560 0.57143
vt 0.22222 0.57143
vt 0.36619 0.57143
vt 0.77778 0.71429
vt 0.33333 0.71429
vt 0.88889 0.57143
vt 0.66667 0.85714
vt 0.66667 1.00000
vt 0.77778 1.00000
vt 0.77778 0.85714
vt 0.88889 0.71429
vt 1.00000 0.71429
vt 1.00000 0.57143
vt 0.00000 1.00000
vt 1.00000 1.00000
vt 1.00000 0.00000
vt 0.00000 0.00000
vt 0.66667 0.00000
vt 0.77778 0.00000
vt 0.78325 0.91893
vt 0.78325 0.52483
vt 0.88889 0.00000
vt 0.86308 0.52483
vt 0.88889 1.00000
vt 0.86308 0.91893
vt 0.14286 1.00000
vt 0.14286 0.00000
vt 0.28571 1.00000
vt 0.28571 0.00000
vt 0.42857 1.00000
vt 0.42857 0.00000
vt 0.57143 1.00000
vt 0.57143 0.00000
vt 0.71429 1.00000
vt 0.71429 0.00000
vt 0.85714 1.00000
vt 0.85714 0.00000
vt 0.11111 1.00000
vt 0.11111 0.00000
vt 0.22222 1.00000
vt 0.22222 0.00000
vt 0.21912 0.91893
vt 0.21912 0.52483
vt 0.15295 0.52483
vt 0.15295 0.91893
vt 0.33333 1.00000
vt 0.33333 0.00000
vt 0.44444 1.00000
vt 0.44444 0.00000
vt 0.43176 0.91893
vt 0.43176 0.52483
vt 0.35072 0.52483
vt 0.35072 0.91893
vt 0.55556 0.00000
vt 0.54561 0.52483
vt 0.55556 0.52483
vt 0.55556 1.00000
vt 0.55556 0.91893
vt 0.54561 0.91893
vt 0.65351 0.52483
vt 0.66667 0.52483
vt 0.61703 0.91893
vt 0.65351 0.91893
vt 0.61703 0.52483
vt 0.66667 0.91893
vt 0.77778 0.91893
vt 0.77778 0.52483
vt 0.81453 0.91893
vt 0.81453 0.52483
vt 0.19715 0.92725
vt 0.19715 0.00000
vt 0.24706 0.00000
vt 0.24706 0.92725
vt 0.11111 0.42857
vt 0.88889 0.85714
vt 0.55556 0.42857
vt 0.66667 0.71429
vt 0.66667 0.14286
vt 0.77778 0.14286
vt 0.88889 0.14286
vt 1.00000 0.85714
vt 0.44444 0.42857
vt 0.66667 0.28571
vt 0.77778 0.28571
vt 0.88889 0.28571
vt 0.88889 0.42857
vt 1.00000 0.42857
vt 1.00000 0.28571
vt 0.11111 0.28571
vt 0.33333 0.28571
vt 0.22222 0.28571
vt 0.44444 0.57143
vt 0.52372 0.57143
vt 0.00000 0.57143
vt 0.11111 0.57143
vt 0.11111 0.71429
vt 0.55556 0.57143
vt 0.58571 0.44795
vt 0.77778 0.57143
vt 0.00000 0.71429
vt 0.74495 0.55033
vt 0.53290 0.53338
vt 0.54048 0.53338
vt 0.54048 0.42857
vt 0.46086 0.42857
vt 0.46086 0.57143
vt 0.53290 0.57143
vt 1.00000 0.14286
vt 0.00000 0.85714
vt 0.11111 0.85714
vt 0.61501 0.57143
vt 0.61501 0.53338
vt 0.55556 0.53338
vt 0.26463 0.62596
vt 0.24419 0.59967
vt 0.00000 0.14286
vt 0.11111 0.14286
vt 0.00000 0.24706
vt 0.11111 0.24706
vt 0.11111 0.19715
vt 0.00000 0.19715
vt 0.15835 0.24968
vt 0.16098 0.20316
vt 0.22222 0.71429
vt 0.07974 0.91893
vt 0.00000 0.91893
vt 0.80215 0.00000
vt 0.80215 0.92725
vt 0.16899 0.91893
vt 0.16899 0.52483
vt 0.07974 0.52483
vt 0.00000 0.52483
vt 0.61818 0.00000
vt 0.61818 0.92725
vt 0.35296 0.52483
vt 0.35296 0.91893
vt 0.69059 0.52483
vt 1.00000 0.52483
vt 1.00000 0.91893
vt 0.69059 0.91893
# 142 texture coordinates

vn 1 0 0
vn -0 -1 0
vn -0 0 -1
vn -1 0 0
vn -0 0 1
vn -0 1 0
vn -0 0.00803191 -0.999968
vn -0 0.00803187 -0.999968
vn 1.14695e-009 0.00803208 -0.999968
vn -7.89763e-009 0.00803198 -0.999968
vn 4.16181e-009 0.00803205 -0.999968
vn -0 0.008032 -0.999968
vn 4.16181e-009 0.00803205 -0.999968
vn 2.3896e-009 0.008032 -0.999968
vn 2.3896e-009 0.008032 -0.999968
vn 7.34794e-009 0.00803215 -0.999968
vn 2.3896e-009 0.008032 -0.999968
vn 4.77919e-009 0.00803199 -0.999968
vn 2.3896e-009 0.008032 -0.999968
vn 4.77919e-009 0.00803199 -0.999968
vn 1.10219e-008 0.00803214 -0.999968
vn 7.34794e-009 0.00803215 -0.999968
vn 4.16181e-009 0.00803205 -0.999968
vn 7.34794e-009 0.00803215 -0.999968
vn -0 0 0
# 25 vertex normals

usemtl 5
f 58/2/1 161/2/1 160/1/1 56/1/1
f 180/5/2 78/4/2 179/3/2
f 90/8/2 69/7/2 96/6/2
f 76/12/2 11/11/2 9/10/2 95/9/2
f 21/15/2 19/14/2 69/13/2 90/8/2
f 14/19/3 139/18/3 138/17/3 12/16/3
f 11/21/3 12/11/3 10/10/3 9/20/3
f 12/11/3 209/23/3 208/22/3
f 209/23/3 12/11/3 11/21/3
f 213/25/3 209/23/3 11/21/3 13/24/3
f 203/27/3 14/26/3 12/11/3 208/22/3
f 213/25/3 13/24/3 14/26/3 203/27/3
f 15/18/3 16/17/3 14/26/3 13/24/3
f 17/29/4 18/28/4 16/16/4 15/19/4
f 19/31/4 20/30/4 18/28/4 17/29/4
f 21/33/4 22/32/4 20/30/4 19/31/4
f 23/35/4 24/34/4 22/32/4 21/33/4
f 25/37/4 26/36/4 24/34/4 23/35/4
f 27/39/4 28/38/4 26/36/4 25/37/4
f 29/18/4 30/17/4 28/38/4 27/39/4
f 31/41/5 32/40/5 30/16/5 29/19/5
f 205/44/5 33/43/5 34/42/5
f 33/43/5 205/44/5 204/45/5
f 31/41/5 33/43/5 204/45/5 212/46/5
f 32/40/5 206/47/5 205/44/5 34/42/5
f 31/41/5 212/46/5 206/47/5 32/40/5
f 35/49/5 36/48/5 34/42/5 33/43/5
f 223/52/5 37/51/5 38/50/5
f 37/51/5 223/52/5 210/53/5
f 35/49/5 37/51/5 210/53/5 217/54/5
f 36/48/5 211/55/5 223/52/5 38/50/5
f 217/54/5 211/55/5 36/48/5 35/49/5
f 182/58/5 215/57/5 37/51/5 39/56/5
f 207/61/5 181/60/5 40/59/5 38/50/5
f 38/50/5 37/51/5 215/57/5 207/61/5
f 41/20/5 185/63/5 225/62/5
f 40/59/5 181/60/5 218/64/5
f 218/64/5 222/65/5 42/10/5 40/59/5
f 214/66/5 182/58/5 39/56/5
f 222/65/5 183/67/5 42/10/5
f 225/62/5 214/66/5 39/56/5 41/20/5
f 214/66/5 225/62/5 222/65/5 218/64/5
f 184/68/5 44/11/5 42/10/5 183/67/5
f 185/63/5 41/20/5 43/21/5 186/69/5
f 46/26/5 44/11/5 184/68/5 229/70/5
f 229/70/5 219/71/5 45/24/5 46/26/5
f 45/24/5 219/71/5 186/69/5 43/21/5
f 47/18/5 48/17/5 46/26/5 45/24/5
f 49/29/1 50/28/1 48/16/1 47/19/1
f 50/28/1 49/29/1 190/73/1 221/72/1
f 216/75/1 196/74/1 51/31/1 52/30/1
f 216/75/1 52/30/1 50/28/1 221/72/1
f 53/33/1 54/32/1 52/30/1 51/31/1
f 55/35/1 56/34/1 54/32/1 53/33/1
f 57/37/1 58/36/1 56/34/1 55/35/1
f 92/19/5 5/18/5 7/17/5 97/16/5
f 93/19/4 6/18/4 5/17/4 92/16/4
f 87/19/1 3/18/1 4/17/1 88/16/1
f 64/19/4 164/18/4 163/76/4 63/76/4
f 56/19/1 160/18/1 159/17/1 54/16/1
f 94/77/2 13/26/2 11/11/2 76/12/2
f 84/19/4 2/18/4 1/78/4 83/78/4
f 96/6/2 76/12/2 95/9/2 78/79/2
f 138/21/6 5/81/6 3/80/6 137/20/6
f 139/24/6 7/82/6 5/81/6 138/21/6
f 145/14/6 146/83/6 67/77/6 61/13/6
f 79/84/1 169/84/1 170/17/1 80/16/1
f 54/19/1 159/18/1 158/17/1 52/16/1
f 66/19/4 166/18/4 165/17/4 65/16/4
f 17/83/2 15/17/2 13/26/2 94/77/2
f 52/19/1 158/18/1 157/17/1 50/16/1
f 69/13/2 94/77/2 76/12/2 96/6/2
f 5/81/6 6/86/6 4/85/6 3/80/6
f 119/82/6 120/87/6 118/86/6 117/81/6
f 142/90/6 143/89/6 59/88/6 8/87/6
f 162/91/6 163/76/6 160/1/6 161/2/6
f 6/86/6 8/87/6 59/88/6
f 167/93/6 168/92/6 169/84/6 163/76/6
f 167/93/6 163/76/6 162/91/6
f 6/86/6 59/88/6 1/78/6 4/85/6
f 168/92/6 4/85/6 1/78/6 169/84/6
f 91/94/2 75/94/2 85/7/2
f 180/5/2 193/95/2 90/8/2
f 180/5/2 90/8/2 96/6/2 78/4/2
f 143/89/6 144/15/6 60/8/6 59/88/6
f 163/76/6 164/97/6 159/96/6 160/1/6
f 170/94/6 165/98/6 164/97/6
f 123/84/6 124/94/6 122/97/6 121/76/6
f 2/99/6 61/13/6 165/98/6 170/94/6
f 58/19/3 174/18/3 173/17/3 161/16/3
f 127/88/6 128/8/6 126/99/6 125/78/6
f 82/87/2 89/78/2 86/100/2
f 71/101/2 105/76/2 104/91/2
f 144/15/6 145/14/6 61/13/6 60/8/6
f 164/97/6 165/98/6 158/102/6 159/96/6
f 2/99/6 60/8/6 61/13/6
f 86/100/2 73/103/2 104/91/2 82/87/2
f 73/107/2 86/106/2 187/105/2 224/104/2
f 73/107/2 224/104/2 188/109/2 75/108/2
f 27/110/2 25/90/2 82/87/2 77/82/2
f 25/90/2 23/89/2 70/88/2 82/87/2
f 23/89/2 21/15/2 90/8/2 70/88/2
f 19/14/2 17/83/2 94/77/2 69/13/2
f 141/110/6 7/82/6 139/24/6 140/18/6
f 165/98/6 166/112/6 157/111/6 158/102/6
f 131/13/6 132/77/6 130/112/6 129/98/6
f 71/84/2 91/94/2 106/97/2 105/76/2
f 220/114/2 70/88/2 90/8/2 193/113/2
f 220/114/2 189/115/2 89/78/2 70/88/2
f 104/91/2 105/76/2 53/1/2 51/2/2
f 105/76/2 106/97/2 55/96/2 53/1/2
f 106/97/2 72/98/2 57/102/2 55/96/2
f 75/94/2 188/94/2 192/116/2 85/7/2
f 179/3/2 78/4/2 195/117/2
f 142/90/6 8/87/6 7/82/6 141/110/6
f 67/77/6 148/26/6 149/11/6
f 146/83/6 147/17/6 148/26/6 67/77/6
f 166/112/6 155/40/6 156/16/6 157/111/6
f 166/112/6 154/42/6 155/40/6
f 166/112/6 153/48/6 154/42/6
f 166/112/6 152/50/6 153/48/6
f 166/112/6 67/77/6 151/59/6 152/50/6
f 67/77/6 150/10/6 151/59/6
f 67/77/6 149/11/6 150/10/6
f 45/41/2 103/119/2 49/118/2 47/19/2
f 37/56/2 77/82/2 103/119/2 39/51/2
f 41/49/2 39/51/2 103/119/2
f 43/43/2 41/49/2 103/119/2
f 45/41/2 43/43/2 103/119/2
f 29/18/2 27/110/2 77/82/2 31/24/2
f 33/21/2 31/24/2 77/82/2
f 35/20/2 33/21/2 77/82/2
f 37/56/2 35/20/2 77/82/2
f 191/121/2 104/91/2 51/2/2 196/120/2
f 190/123/2 49/118/2 103/119/2 194/122/2
f 226/124/2 82/86/2 104/91/2 191/121/2
f 77/87/2 227/125/2 194/122/2 103/119/2
f 226/124/2 227/125/2 77/87/2 82/86/2
f 81/126/2 72/98/2 106/97/2
f 91/94/2 85/7/2 81/126/2 106/97/2
f 73/103/2 71/101/2 104/91/2
f 75/108/2 91/94/2 71/84/2 73/107/2
f 82/87/2 70/126/2 89/78/2
f 187/105/2 86/106/2 89/78/2 189/115/2
f 107/16/8 197/128/8 231/127/7
f 228/130/9 198/129/10 110/18/10 109/17/9
f 231/127/7 232/133/12 235/132/12 234/131/11
f 234/131/13 109/17/9 107/16/8 231/127/7
f 199/135/14 232/133/12 201/134/12 108/19/12
f 235/132/12 232/133/12 199/135/15
f 230/136/16 228/130/9 109/17/9
f 233/137/18 235/132/12 199/135/17
f 230/136/22 236/138/21 233/137/20 199/135/19
f 230/136/24 109/17/9 234/131/23 236/138/21
f 110/19/1 112/18/1 111/17/1 109/16/1
f 73/19/2 115/18/2 113/17/2 75/16/2
f 1/78/6 135/78/6 133/84/6 169/84/6
f 62/19/5 114/18/5 116/17/5 68/16/5
f 2/19/6 136/18/6 135/78/6 1/78/6
f 97/82/3 119/82/3 117/17/3 92/16/3
f 98/87/4 120/87/4 119/82/4 97/82/4
f 93/19/5 118/18/5 120/87/5 98/87/5
f 92/19/1 117/18/1 118/17/1 93/16/1
f 79/84/3 123/84/3 121/76/3 63/76/3
f 80/19/4 124/18/4 123/84/4 79/84/4
f 64/19/5 122/18/5 124/17/5 80/16/5
f 63/76/1 121/76/1 122/17/1 64/16/1
f 99/88/3 127/88/3 125/78/3 83/78/3
f 100/19/4 128/18/4 127/88/4 99/88/4
f 84/19/5 126/18/5 128/17/5 100/16/5
f 83/78/1 125/78/1 126/17/1 84/16/1
f 101/13/3 131/13/3 129/17/3 65/16/3
f 102/77/4 132/77/4 131/13/4 101/13/4
f 66/19/5 130/18/5 132/77/5 102/77/5
f 65/19/1 129/18/1 130/17/1 66/16/1
f 102/19/3 67/18/3 166/17/3 66/16/3
f 30/19/4 147/18/4 146/17/4 28/16/4
f 32/19/5 148/18/5 147/17/5 30/16/5
f 34/19/5 149/18/5 148/17/5 32/16/5
f 36/19/5 150/18/5 149/17/5 34/16/5
f 38/19/5 151/18/5 150/17/5 36/16/5
f 40/19/5 152/18/5 151/17/5 38/16/5
f 42/19/5 153/18/5 152/17/5 40/16/5
f 44/19/5 154/18/5 153/17/5 42/16/5
f 46/19/5 155/18/5 154/17/5 44/16/5
f 48/19/5 156/18/5 155/17/5 46/16/5
f 50/19/1 157/18/1 156/17/1 48/16/1
f 16/19/3 140/18/3 139/17/3 14/16/3
f 18/19/4 141/18/4 140/17/4 16/16/4
f 20/19/4 142/18/4 141/17/4 18/16/4
f 22/19/4 143/18/4 142/17/4 20/16/4
f 24/19/4 144/18/4 143/17/4 22/16/4
f 26/19/4 145/18/4 144/17/4 24/16/4
f 28/19/4 146/18/4 145/17/4 26/16/4
f 101/19/1 61/18/1 67/17/1 102/16/1
f 99/19/1 59/18/1 60/17/1 100/16/1
f 97/19/1 7/18/1 8/17/1 98/16/1
f 80/19/3 170/18/3 164/17/3 64/16/3
f 100/19/3 60/18/3 2/17/3 84/16/3
f 65/19/5 165/18/5 61/17/5 101/16/5
f 68/19/3 167/18/3 162/17/3 62/16/3
f 88/19/3 4/18/3 168/17/3 74/16/3
f 98/19/3 8/18/3 6/17/3 93/16/3
f 83/19/5 1/18/5 59/17/5 99/16/5
f 63/19/5 163/18/5 169/17/5 79/16/5
f 170/19/6 134/18/6 136/17/6 2/16/6
f 169/84/6 133/84/6 134/17/6 170/16/6
f 10/19/1 137/18/1 3/17/1 87/16/1
f 134/19/2 178/18/2 177/17/2 133/16/2
f 176/18/25 175/17/25 104/16/25 82/19/25
f 200/140/3 238/139/3 57/19/3 172/18/3
f 237/142/3 202/141/3 171/17/3 58/16/3
f 237/142/3 58/16/3 57/19/3 238/139/3
f 12/19/3 138/18/3 137/17/3 10/16/3
# 214 facets

o ___.1
# 0 vertices

o ___.2
v 2476.56 -20.1901 814.372
v 2476.56 -20.1901 1784.54
v 3011.16 -20.1901 814.372
v 3011.16 -20.1901 1784.54
v 2476.56 -803.745 814.372
v 2476.56 -803.745 1784.54
v 3011.16 -803.745 1784.54
v 3011.16 -803.745 814.372
v 2864.48 -803.745 814.372
v 2864.48 -803.745 1784.54
# 10 vertices

vt 1.00000 1.00000
vt 0.18472 1.00000
vt 0.40842 0.08940
vt 1.00000 0.08940
vt 0.18472 0.08940
vt 0.00000 1.00000
vt 0.00000 0.08940
vt 0.59158 0.08940
vt 0.81528 1.00000
vt 0.81528 0.08940
vt 0.18472 0.00000
vt 1.00000 0.00000
# 12 texture coordinates

vn -0 0 1
vn 1 0 0
vn -0 0 -1
vn -0 -1 0
# 4 vertex normals

f 243/146/26 247/145/26 241/144/26 239/143/26
f 241/144/26 247/145/26 246/147/26
f 240/143/27 244/146/27 243/149/27 239/148/27
f 240/148/28 248/150/28 244/149/28
f 245/152/28 248/150/28 240/148/28 242/151/28
f 239/154/29 241/153/29 242/144/29 240/143/29
# 6 facets

o ___
# 0 vertices

o ___.3
v 507.381 -360.244 -606.147
v 507.381 -27.2136 -606.147
v 1163.1 -360.244 -606.147
v 1163.1 -27.2136 -606.147
v 507.381 -27.2136 -981.982
v 507.381 -360.244 -984.657
v 1163.1 -27.2136 -981.982
v 1163.1 -360.244 -984.657
# 8 vertices

vt 1.00000 1.00000
vt 0.61261 1.00000
vt 0.60985 0.00000
vt 1.00000 0.00000
vt 0.00000 1.00000
vt 0.00000 0.00000
vt 0.39015 0.00000
vt 0.38739 1.00000
vt 0.00000 0.61261
vt 1.00000 0.61261
vt 1.00000 0.39015
vt 0.00000 0.39015
# 12 texture coordinates

vn 1 0 0
vn -0 0 -1
vn -1 0 0
vn -0 -1 0
vn -0 1 0
# 5 vertex normals

f 249/158/30 254/157/30 253/156/30 250/155/30
f 252/155/31 251/158/31 249/160/31 250/159/31
f 252/159/32 255/162/32 256/161/32 251/160/32
f 250/155/33 253/164/33 255/163/33 252/159/33
f 251/160/34 256/166/34 254/165/34 249/158/34
# 5 facets

o ___.4
v 2136.91 -360.244 2328.33
v 2136.91 -27.2136 2328.33
v 1481.18 -360.244 2328.33
v 1481.18 -27.2136 2328.33
v 1481.18 -27.2136 2982.15
v 1481.18 -360.244 2982.15
v 2136.91 -360.244 2982.15
v 2136.91 -27.2136 2982.15
v 1595.85 -27.2136 2982.15
v 1595.85 -360.244 2982.15
v 1777.36 -360.244 2982.15
v 1777.36 -27.2136 2982.15
# 12 vertices

vt 0.00000 1.00000
vt 0.00000 0.00000
vt 1.00000 0.00000
vt 1.00000 1.00000
vt 0.67393 0.00000
vt 0.67393 1.00000
vt 0.32607 1.00000
vt 0.32607 0.00000
vt 1.00000 0.67393
vt 0.82513 0.67393
vt 0.00000 0.67393
vt 0.54832 0.67393
vt 0.00000 0.32607
vt 0.54832 0.32607
vt 1.00000 0.32607
vt 0.82513 0.32607
# 16 texture coordinates

vn -0 0 1
vn 1 0 0
vn -1 0 0
vn -0 -1 0
vn -0 1 0
# 5 vertex normals

f 260/170/35 259/169/35 257/168/35 258/167/35
f 260/167/36 261/172/36 262/171/36 259/168/36
f 257/169/37 263/174/37 264/173/37 258/170/37
f 258/168/38 265/176/38 261/175/38 260/169/38
f 268/178/38 258/168/38 264/177/38
f 258/168/38 268/178/38 265/176/38
f 259/170/39 267/180/39 263/179/39 257/167/39
f 266/182/39 259/170/39 262/181/39
f 267/180/39 259/170/39 266/182/39
# 9 facets

o ___.5
v 1163.1 -360.244 2328.33
v 1163.1 -27.2136 2328.33
v 507.381 -360.244 2328.33
v 507.381 -27.2136 2328.33
v 507.381 -27.2136 2982.15
v 507.381 -360.244 2982.15
v 1163.1 -360.244 2982.15
v 1163.1 -27.2136 2982.15
v 627.153 -360.244 2982.15
v 627.153 -27.2136 2982.15
# 10 vertices

vt 0.00000 1.00000
vt 0.00000 0.00000
vt 1.00000 0.00000
vt 1.00000 1.00000
vt 0.67393 0.00000
vt 0.67393 1.00000
vt 0.32607 1.00000
vt 0.32607 0.00000
vt 1.00000 0.67393
vt 0.81734 0.67393
vt 0.00000 0.67393
vt 0.00000 0.32607
vt 0.81734 0.32607
vt 1.00000 0.32607
# 14 texture coordinates

vn -0 0 1
vn 1 0 0
vn -1 0 0
vn -0 -1 0
vn -5.30304e-017 1 4.34699e-017
# 5 vertex normals

f 272/186/40 271/185/40 269/184/40 270/183/40
f 272/183/41 273/188/41 274/187/41 271/184/41
f 269/185/42 275/190/42 276/189/42 270/186/42
f 270/184/43 278/192/43 273/191/43 272/185/43
f 278/192/43 270/184/43 276/193/43
f 271/186/44 277/195/44 275/194/44 269/183/44
f 277/195/44 271/186/44 274/196/44
# 7 facets

o ___.6
v -813.383 -360.244 2328.33
v -813.383 -27.2136 2328.33
v -1469.11 -360.244 2328.33
v -1469.11 -27.2136 2328.33
v -1469.11 -27.2136 2982.15
v -1469.11 -360.244 2982.15
v -813.383 -27.2136 2982.15
v -813.383 -360.244 2982.15
# 8 vertices

vt 0.00000 1.00000
vt 0.00000 0.00000
vt 1.00000 0.00000
vt 1.00000 1.00000
vt 0.67393 0.00000
vt 0.67393 1.00000
vt 0.32607 1.00000
vt 0.32607 0.00000
vt 1.00000 0.67393
vt 0.00000 0.67393
vt 0.00000 0.32607
vt 1.00000 0.32607
# 12 texture coordinates

vn -0 0 1
vn 1 0 0
vn -1 0 0
vn -0 -1 0
vn -0 1 0
# 5 vertex normals

f 282/200/45 281/199/45 279/198/45 280/197/45
f 282/197/46 283/202/46 284/201/46 281/198/46
f 279/199/47 286/204/47 285/203/47 280/200/47
f 280/198/48 285/206/48 283/205/48 282/199/48
f 281/200/49 284/208/49 286/207/49 279/197/49
# 5 facets

o ___.7
v -1787.18 -360.244 2328.33
v -1787.18 -27.2136 2328.33
v -2442.91 -360.244 2328.33
v -2442.91 -27.2136 2328.33
v -2442.91 -27.2136 2982.15
v -2442.91 -360.244 2982.15
v -1787.18 -27.2136 2982.15
v -1787.18 -360.244 2982.15
# 8 vertices

vt 0.00000 1.00000
vt 0.00000 0.00000
vt 1.00000 0.00000
vt 1.00000 1.00000
vt 0.67393 0.00000
vt 0.67393 1.00000
vt 0.32607 1.00000
vt 0.32607 0.00000
vt 1.00000 0.67393
vt 0.00000 0.67393
vt 0.00000 0.32607
vt 1.00000 0.32607
# 12 texture coordinates

vn -0 0 1
vn 1 0 0
vn -1 0 0
vn -0 -1 0
vn -0 1 0
# 5 vertex normals

f 290/212/50 289/211/50 287/210/50 288/209/50
f 290/209/51 291/214/51 292/213/51 289/210/51
f 287/211/52 294/216/52 293/215/52 288/212/52
f 288/210/53 293/218/53 291/217/53 290/211/53
f 289/212/54 292/220/54 294/219/54 287/209/54
# 5 facets

o ___.8
v -2645.5 -360.244 -1839.3
v -2645.5 -27.2136 -1839.3
v -1989.77 -360.244 -1839.3
v -1989.77 -27.2136 -1839.3
v -2645.5 -27.2136 -1997.95
v -2645.5 -360.244 -1997.95
v -1989.77 -27.2136 -1997.95
v -1989.77 -360.244 -1997.95
# 8 vertices

vt 1.00000 1.00000
vt 0.83648 1.00000
vt 0.83648 0.00000
vt 1.00000 0.00000
vt 0.00000 1.00000
vt 0.00000 0.00000
vt 0.16352 0.00000
vt 0.16352 1.00000
vt 0.00000 0.83648
vt 1.00000 0.83648
vt 1.00000 0.16352
vt 0.00000 0.16352
# 12 texture coordinates

vn 1 0 0
vn -0 0 -1
vn -1 0 0
vn -0 -1 0
vn -0 1 0
# 5 vertex normals

f 295/224/55 300/223/55 299/222/55 296/221/55
f 298/221/56 297/224/56 295/226/56 296/225/56
f 298/225/57 301/228/57 302/227/57 297/226/57
f 296/221/58 299/230/58 301/229/58 298/225/58
f 297/226/59 302/232/59 300/231/59 295/224/59
# 5 facets

