#  ==========================================================================
#  
#  Wavefront OBJ format exported by Red-i Productions' "Riptide Pro"
#     (a commercial plugin for Cinema 4D PC & Mac, R9.6 or later)
#  
#  Red-i Productions
#  http://skinprops.com
#  
#  ==========================================================================
mtllib fence.mtl
o ___.9
v 5.41748 -216.739 -188.085
v 5.41748 86.6784 -188.085
v -5.41748 -216.739 -188.085
v -5.41748 86.6784 -188.085
v -5.41748 -216.739 -176.095
v -5.41748 86.6784 -176.095
v 5.41748 -216.739 -176.095
v 5.41748 86.6784 -176.095
# 8 vertices

vt 0.00000 0.00000
vt 0.00000 1.00000
vt 1.00000 1.00000
vt 1.00000 0.00000
# 4 texture coordinates

vn -0 0 -1
vn -1 0 0
vn -0 0 1
vn 1 0 0
vn -0 1 0
vn -0 -1 0
# 6 vertex normals

usemtl Red_Wine.3
f 3/4/1 4/3/1 2/2/1 1/1/1
f 5/4/2 6/3/2 4/2/2 3/1/2
f 7/4/3 8/3/3 6/2/3 5/1/3
f 1/4/4 2/3/4 8/2/4 7/1/4
f 4/4/5 6/3/5 8/2/5 2/1/5
f 5/4/6 3/3/6 1/2/6 7/1/6
# 6 facets

o ___.10
v 5.41748 -216.739 176.095
v 5.41748 86.6784 176.095
v -5.41748 -216.739 176.095
v -5.41748 86.6784 176.095
v -5.41748 -216.739 188.085
v -5.41748 86.6784 188.085
v 5.41748 -216.739 188.085
v 5.41748 86.6784 188.085
# 8 vertices

vt 0.00000 0.00000
vt 0.00000 1.00000
vt 1.00000 1.00000
vt 1.00000 0.00000
# 4 texture coordinates

vn -0 0 -1
vn -1 0 0
vn -0 0 1
vn 1 0 0
vn -0 1 0
vn -0 -1 0
# 6 vertex normals

usemtl Red_Wine.3
f 11/8/7 12/7/7 10/6/7 9/5/7
f 13/8/8 14/7/8 12/6/8 11/5/8
f 15/8/9 16/7/9 14/6/9 13/5/9
f 9/8/10 10/7/10 16/6/10 15/5/10
f 12/8/11 14/7/11 16/6/11 10/5/11
f 13/8/12 11/7/12 9/6/12 15/5/12
# 6 facets

o ___.11
v 5.41748 45.2607 182.73
v 5.41748 45.2607 -179.322
v -5.41748 45.2607 182.73
v -5.41748 45.2607 -179.322
v -5.41748 85.6655 182.73
v -5.41748 85.6655 -179.322
v 5.41748 85.6655 182.73
v 5.41748 85.6655 -179.322
# 8 vertices

vt 0.00000 0.00000
vt 0.00000 1.00000
vt 1.00000 1.00000
vt 1.00000 0.00000
# 4 texture coordinates

vn -0 -1 -6.12323e-017
vn -1 0 0
vn -0 1 6.12323e-017
vn 1 0 0
vn -0 6.12323e-017 -1
vn -0 -6.12323e-017 1
# 6 vertex normals

usemtl Red_Wine.3
f 19/12/13 20/11/13 18/10/13 17/9/13
f 21/12/14 22/11/14 20/10/14 19/9/14
f 23/12/15 24/11/15 22/10/15 21/9/15
f 17/12/16 18/11/16 24/10/16 23/9/16
f 20/12/17 22/11/17 24/10/17 18/9/17
f 21/12/18 19/11/18 17/10/18 23/9/18
# 6 facets

o ___.12
v 5.41748 -216.739 -134.171
v 5.41748 86.6784 -134.171
v -5.41748 -216.739 -134.171
v -5.41748 86.6784 -134.171
v -5.41748 -216.739 -122.18
v -5.41748 86.6784 -122.18
v 5.41748 -216.739 -122.18
v 5.41748 86.6784 -122.18
# 8 vertices

vt 0.00000 0.00000
vt 0.00000 1.00000
vt 1.00000 1.00000
vt 1.00000 0.00000
# 4 texture coordinates

vn -0 0 -1
vn -1 0 0
vn -0 0 1
vn 1 0 0
vn -0 1 0
vn -0 -1 0
# 6 vertex normals

usemtl Red_Wine.3
f 27/16/19 28/15/19 26/14/19 25/13/19
f 29/16/20 30/15/20 28/14/20 27/13/20
f 31/16/21 32/15/21 30/14/21 29/13/21
f 25/16/22 26/15/22 32/14/22 31/13/22
f 28/16/23 30/15/23 32/14/23 26/13/23
f 29/16/24 27/15/24 25/14/24 31/13/24
# 6 facets

o ___.13
v 5.41748 -216.739 -80.9671
v 5.41748 86.6784 -80.9671
v -5.41748 -216.739 -80.9671
v -5.41748 86.6784 -80.9671
v -5.41748 -216.739 -68.9764
v -5.41748 86.6784 -68.9764
v 5.41748 -216.739 -68.9764
v 5.41748 86.6784 -68.9764
# 8 vertices

vt 0.00000 0.00000
vt 0.00000 1.00000
vt 1.00000 1.00000
vt 1.00000 0.00000
# 4 texture coordinates

vn -0 0 -1
vn -1 0 0
vn -0 0 1
vn 1 0 0
vn -0 1 0
vn -0 -1 0
# 6 vertex normals

usemtl Red_Wine.3
f 35/20/25 36/19/25 34/18/25 33/17/25
f 37/20/26 38/19/26 36/18/26 35/17/26
f 39/20/27 40/19/27 38/18/27 37/17/27
f 33/20/28 34/19/28 40/18/28 39/17/28
f 36/20/29 38/19/29 40/18/29 34/17/29
f 37/20/30 35/19/30 33/18/30 39/17/30
# 6 facets

o ___.14
v 5.41748 -186.875 -23.4324
v 5.41748 160.745 -23.4324
v -5.41748 -186.875 -23.4324
v -5.41748 160.745 -23.4324
v -5.41748 -186.875 -11.4417
v -5.41748 160.745 -11.4417
v 5.41748 -186.875 -11.4417
v 5.41748 160.745 -11.4417
# 8 vertices

vt 0.00000 0.00000
vt 0.00000 1.00000
vt 1.00000 1.00000
vt 1.00000 0.00000
# 4 texture coordinates

vn -0 0 -1
vn -1 0 0
vn -0 0 1
vn 1 0 0
vn -0 1 0
vn -0 -1 0
# 6 vertex normals

usemtl Red_Wine.3
f 43/24/31 44/23/31 42/22/31 41/21/31
f 45/24/32 46/23/32 44/22/32 43/21/32
f 47/24/33 48/23/33 46/22/33 45/21/33
f 41/24/34 42/23/34 48/22/34 47/21/34
f 44/24/35 46/23/35 48/22/35 42/21/35
f 45/24/36 43/23/36 41/22/36 47/21/36
# 6 facets

o ___.15
v 5.41748 -216.739 47.3796
v 5.41748 86.6784 47.3796
v -5.41748 -216.739 47.3796
v -5.41748 86.6784 47.3796
v -5.41748 -216.739 59.3703
v -5.41748 86.6784 59.3703
v 5.41748 -216.739 59.3703
v 5.41748 86.6784 59.3703
# 8 vertices

vt 0.00000 0.00000
vt 0.00000 1.00000
vt 1.00000 1.00000
vt 1.00000 0.00000
# 4 texture coordinates

vn -0 0 -1
vn -1 0 0
vn -0 0 1
vn 1 0 0
vn -0 1 0
vn -0 -1 0
# 6 vertex normals

usemtl Red_Wine.3
f 51/28/37 52/27/37 50/26/37 49/25/37
f 53/28/38 54/27/38 52/26/38 51/25/38
f 55/28/39 56/27/39 54/26/39 53/25/39
f 49/28/40 50/27/40 56/26/40 55/25/40
f 52/28/41 54/27/41 56/26/41 50/25/41
f 53/28/42 51/27/42 49/26/42 55/25/42
# 6 facets

o ___.16
v 5.41748 -216.739 111.553
v 5.41748 86.6784 111.553
v -5.41748 -216.739 111.553
v -5.41748 86.6784 111.553
v -5.41748 -216.739 123.544
v -5.41748 86.6784 123.544
v 5.41748 -216.739 123.544
v 5.41748 86.6784 123.544
# 8 vertices

vt 0.00000 0.00000
vt 0.00000 1.00000
vt 1.00000 1.00000
vt 1.00000 0.00000
# 4 texture coordinates

vn -0 0 -1
vn -1 0 0
vn -0 0 1
vn 1 0 0
vn -0 1 0
vn -0 -1 0
# 6 vertex normals

usemtl Red_Wine.3
f 59/32/43 60/31/43 58/30/43 57/29/43
f 61/32/44 62/31/44 60/30/44 59/29/44
f 63/32/45 64/31/45 62/30/45 61/29/45
f 57/32/46 58/31/46 64/30/46 63/29/46
f 60/32/47 62/31/47 64/30/47 58/29/47
f 61/32/48 59/31/48 57/30/48 63/29/48
# 6 facets

o ___.17
v 5.41748 -85.6655 182.73
v 5.41748 -85.6655 -179.322
v -5.41748 -85.6655 182.73
v -5.41748 -85.6655 -179.322
v -5.41748 -45.2607 182.73
v -5.41748 -45.2607 -179.322
v 5.41748 -45.2607 182.73
v 5.41748 -45.2607 -179.322
# 8 vertices

vt 0.00000 0.00000
vt 0.00000 1.00000
vt 1.00000 1.00000
vt 1.00000 0.00000
# 4 texture coordinates

vn -0 -1 -6.12323e-017
vn -1 0 0
vn -0 1 6.12323e-017
vn 1 0 0
vn -0 6.12323e-017 -1
vn -0 -6.12323e-017 1
# 6 vertex normals

usemtl Red_Wine.3
f 67/36/49 68/35/49 66/34/49 65/33/49
f 69/36/50 70/35/50 68/34/50 67/33/50
f 71/36/51 72/35/51 70/34/51 69/33/51
f 65/36/52 66/35/52 72/34/52 71/33/52
f 68/36/53 70/35/53 72/34/53 66/33/53
f 69/36/54 67/35/54 65/34/54 71/33/54
# 6 facets

