#  ==========================================================================
#  
#  Wavefront OBJ format exported by Red-i Productions' "Riptide Pro"
#     (a commercial plugin for Cinema 4D PC & Mac, R9.6 or later)
#  
#  Red-i Productions
#  http://skinprops.com
#  
#  ==========================================================================
mtllib handwheel.mtl
o __
v -0.312666 -49.6881 -0.0202516
v -4.50777 -47.266 -0.0202516
v -4.50777 -42.422 -0.0202516
v -0.312666 -39.9999 -0.0202516
v 3.88244 -42.422 -0.0202516
v 3.88244 -47.266 -0.0202516
v -0.312666 -42.9945 24.9606
v -4.50777 -40.8969 23.7495
v -4.50777 -36.7018 21.3275
v -0.312666 -34.6043 20.1165
v 3.88244 -36.7018 21.3275
v 3.88244 -40.8969 23.7495
v -0.312666 -24.7073 43.2478
v -4.50777 -23.4962 41.1502
v -4.50777 -21.0742 36.9551
v -0.312666 -19.8632 34.8576
v 3.88244 -21.0742 36.9551
v 3.88244 -23.4962 41.1502
v -0.312666 0.27355 49.9414
v -4.50777 0.27355 47.5193
v -4.50777 0.27355 42.6753
v -0.312666 0.27355 40.2532
v 3.88244 0.27355 42.6753
v 3.88244 0.27355 47.5193
v -0.312666 25.2544 43.2478
v -4.50777 24.0433 41.1502
v -4.50777 21.6213 36.9551
v -0.312666 20.4103 34.8576
v 3.88244 21.6213 36.9551
v 3.88244 24.0433 41.1502
v -0.312666 43.5416 24.9606
v -4.50777 41.444 23.7495
v -4.50777 37.2489 21.3275
v -0.312666 35.1514 20.1165
v 3.88244 37.2489 21.3275
v 3.88244 41.444 23.7495
v -0.312666 50.2352 -0.0202516
v -4.50777 47.8131 -0.0202516
v -4.50777 42.9691 -0.0202516
v -0.312666 40.547 -0.0202516
v 3.88244 42.9691 -0.0202516
v 3.88244 47.8131 -0.0202516
v -0.312666 43.5416 -25.0011
v -4.50777 41.444 -23.79
v -4.50777 37.2489 -21.368
v -0.312666 35.1514 -20.157
v 3.88244 37.2489 -21.368
v 3.88244 41.444 -23.79
v -0.312666 25.2544 -43.2883
v -4.50777 24.0433 -41.1907
v -4.50777 21.6213 -36.9956
v -0.312666 20.4103 -34.8981
v 3.88244 21.6213 -36.9956
v 3.88244 24.0433 -41.1907
v -0.312666 0.27355 -49.9819
v -4.50777 0.27355 -47.5598
v -4.50777 0.27355 -42.7158
v -0.312666 0.27355 -40.2937
v 3.88244 0.27355 -42.7158
v 3.88244 0.27355 -47.5598
v -0.312666 -24.7073 -43.2883
v -4.50777 -23.4962 -41.1907
v -4.50777 -21.0742 -36.9956
v -0.312666 -19.8632 -34.8981
v 3.88244 -21.0742 -36.9956
v 3.88244 -23.4962 -41.1907
v -0.312666 -42.9945 -25.0011
v -4.50777 -40.8969 -23.79
v -4.50777 -36.7018 -21.368
v -0.312666 -34.6043 -20.157
v 3.88244 -36.7018 -21.368
v 3.88244 -40.8969 -23.79
# 72 vertices

vt 0.00000 0.00000
vt 0.00000 0.16667
vt 0.08333 0.16667
vt 0.08333 0.00000
vt 0.00000 0.33333
vt 0.08333 0.33333
vt 0.00000 0.50000
vt 0.08333 0.50000
vt 0.00000 0.66667
vt 0.08333 0.66667
vt 0.00000 0.83333
vt 0.08333 0.83333
vt 0.00000 1.00000
vt 0.08333 1.00000
vt 0.16667 0.16667
vt 0.16667 0.00000
vt 0.16667 0.33333
vt 0.16667 0.50000
vt 0.16667 0.66667
vt 0.16667 0.83333
vt 0.16667 1.00000
vt 0.25000 0.16667
vt 0.25000 0.00000
vt 0.25000 0.33333
vt 0.25000 0.50000
vt 0.25000 0.66667
vt 0.25000 0.83333
vt 0.25000 1.00000
vt 0.33333 0.16667
vt 0.33333 0.00000
vt 0.33333 0.33333
vt 0.33333 0.50000
vt 0.33333 0.66667
vt 0.33333 0.83333
vt 0.33333 1.00000
vt 0.41667 0.16667
vt 0.41667 0.00000
vt 0.41667 0.33333
vt 0.41667 0.50000
vt 0.41667 0.66667
vt 0.41667 0.83333
vt 0.41667 1.00000
vt 0.50000 0.16667
vt 0.50000 0.00000
vt 0.50000 0.33333
vt 0.50000 0.50000
vt 0.50000 0.66667
vt 0.50000 0.83333
vt 0.50000 1.00000
vt 0.58333 0.16667
vt 0.58333 0.00000
vt 0.58333 0.33333
vt 0.58333 0.50000
vt 0.58333 0.66667
vt 0.58333 0.83333
vt 0.58333 1.00000
vt 0.66667 0.16667
vt 0.66667 0.00000
vt 0.66667 0.33333
vt 0.66667 0.50000
vt 0.66667 0.66667
vt 0.66667 0.83333
vt 0.66667 1.00000
vt 0.75000 0.16667
vt 0.75000 0.00000
vt 0.75000 0.33333
vt 0.75000 0.50000
vt 0.75000 0.66667
vt 0.75000 0.83333
vt 0.75000 1.00000
vt 0.83333 0.16667
vt 0.83333 0.00000
vt 0.83333 0.33333
vt 0.83333 0.50000
vt 0.83333 0.66667
vt 0.83333 0.83333
vt 0.83333 1.00000
vt 0.91667 0.16667
vt 0.91667 0.00000
vt 0.91667 0.33333
vt 0.91667 0.50000
vt 0.91667 0.66667
vt 0.91667 0.83333
vt 0.91667 1.00000
vt 1.00000 0.16667
vt 1.00000 0.00000
vt 1.00000 0.33333
vt 1.00000 0.50000
vt 1.00000 0.66667
vt 1.00000 0.83333
vt 1.00000 1.00000
# 91 texture coordinates

vn -3.53271e-008 -1 -8.83178e-009
vn -0.869785 -0.49343 0
vn -0.869785 -0.427323 0.246715
vn -1.76636e-008 -0.866025 0.5
vn -0.869785 0.49343 -4.35787e-009
vn -0.869785 0.427323 -0.246715
vn 8.83178e-009 1 -4.41589e-009
vn 5.30288e-017 0.866025 -0.5
vn 0.869785 0.49343 0
vn 0.869785 0.427323 -0.246715
vn 0.869785 -0.49343 -4.35787e-009
vn 0.869785 -0.427323 0.246715
vn -0.869785 -0.246715 0.427323
vn -4.41589e-008 -0.5 0.866025
vn -0.869785 0.246715 -0.427323
vn 8.83178e-009 0.5 -0.866025
vn 0.869785 0.246715 -0.427323
vn 0.869785 -0.246715 0.427323
vn -0.869785 5.3259e-017 0.49343
vn -8.83178e-009 -4.41589e-009 1
vn -0.869785 -4.35787e-009 -0.49343
vn 8.83178e-009 -5.40791e-025 -1
vn 0.869785 -5.3259e-017 -0.49343
vn 0.869785 -4.35787e-009 0.49343
vn -0.869785 0.246715 0.427323
vn -1.76636e-008 0.5 0.866025
vn -0.869785 -0.246715 -0.427323
vn -3.06162e-017 -0.5 -0.866025
vn 0.869785 -0.246715 -0.427323
vn 0.869785 0.246715 0.427323
vn -0.869785 0.427323 0.246715
vn -5.29907e-008 0.866025 0.5
vn -0.869785 -0.427323 -0.246715
vn 8.83178e-009 -0.866025 -0.5
vn 0.869785 -0.427323 -0.246715
vn 0.869785 0.427323 0.246715
vn -0.869785 0.49343 0
vn -3.53271e-008 1 4.41589e-009
vn -0.869785 -0.49343 4.35787e-009
vn 8.83178e-009 -1 0
vn 0.869785 -0.49343 0
vn 0.869785 0.49343 4.35787e-009
vn -0.869785 0.427323 -0.246715
vn -1.76636e-008 0.866025 -0.5
vn -0.869785 -0.427323 0.246715
vn -5.30288e-017 -0.866025 0.5
vn 0.869785 -0.427323 0.246715
vn 0.869785 0.427323 -0.246715
vn -0.869785 0.246715 -0.427323
vn -4.41589e-008 0.5 -0.866025
vn -0.869785 -0.246715 0.427323
vn 8.83178e-009 -0.5 0.866025
vn 0.869785 -0.246715 0.427323
vn 0.869785 0.246715 -0.427323
vn -8.83178e-009 4.41589e-009 -1
vn 8.83178e-009 -5.40791e-025 1
vn -0.869785 -0.246715 -0.427323
vn -1.76636e-008 -0.5 -0.866025
vn -0.869785 0.246715 0.427323
vn 3.06162e-017 0.5 0.866025
vn 0.869785 0.246715 0.427323
vn 0.869785 -0.246715 -0.427323
vn -0.869785 -0.427323 -0.246715
vn -5.29907e-008 -0.866025 -0.5
vn -0.869785 0.427323 0.246715
vn 8.83178e-009 0.866025 0.5
# 66 vertex normals

usemtl Red_Glossy
f 7/4/4 8/3/3 2/2/2 1/1/1
f 8/3/3 9/6/6 3/5/5 2/2/2
f 9/6/6 10/8/8 4/7/7 3/5/5
f 10/8/8 11/10/10 5/9/9 4/7/7
f 11/10/10 12/12/12 6/11/11 5/9/9
f 12/12/12 7/14/4 1/13/1 6/11/11
f 13/16/14 14/15/13 8/3/3 7/4/4
f 14/15/13 15/17/15 9/6/6 8/3/3
f 15/17/15 16/18/16 10/8/8 9/6/6
f 16/18/16 17/19/17 11/10/10 10/8/8
f 17/19/17 18/20/18 12/12/12 11/10/10
f 18/20/18 13/21/14 7/14/4 12/12/12
f 19/23/20 20/22/19 14/15/13 13/16/14
f 20/22/19 21/24/21 15/17/15 14/15/13
f 21/24/21 22/25/22 16/18/16 15/17/15
f 22/25/22 23/26/23 17/19/17 16/18/16
f 23/26/23 24/27/24 18/20/18 17/19/17
f 24/27/24 19/28/20 13/21/14 18/20/18
f 25/30/26 26/29/25 20/22/19 19/23/20
f 26/29/25 27/31/27 21/24/21 20/22/19
f 27/31/27 28/32/28 22/25/22 21/24/21
f 28/32/28 29/33/29 23/26/23 22/25/22
f 29/33/29 30/34/30 24/27/24 23/26/23
f 30/34/30 25/35/26 19/28/20 24/27/24
f 31/37/32 32/36/31 26/29/25 25/30/26
f 32/36/31 33/38/33 27/31/27 26/29/25
f 33/38/33 34/39/34 28/32/28 27/31/27
f 34/39/34 35/40/35 29/33/29 28/32/28
f 35/40/35 36/41/36 30/34/30 29/33/29
f 36/41/36 31/42/32 25/35/26 30/34/30
f 37/44/38 38/43/37 32/36/31 31/37/32
f 38/43/37 39/45/39 33/38/33 32/36/31
f 39/45/39 40/46/40 34/39/34 33/38/33
f 40/46/40 41/47/41 35/40/35 34/39/34
f 41/47/41 42/48/42 36/41/36 35/40/35
f 42/48/42 37/49/38 31/42/32 36/41/36
f 43/51/44 44/50/43 38/43/37 37/44/38
f 44/50/43 45/52/45 39/45/39 38/43/37
f 45/52/45 46/53/46 40/46/40 39/45/39
f 46/53/46 47/54/47 41/47/41 40/46/40
f 47/54/47 48/55/48 42/48/42 41/47/41
f 48/55/48 43/56/44 37/49/38 42/48/42
f 49/58/50 50/57/49 44/50/43 43/51/44
f 50/57/49 51/59/51 45/52/45 44/50/43
f 51/59/51 52/60/52 46/53/46 45/52/45
f 52/60/52 53/61/53 47/54/47 46/53/46
f 53/61/53 54/62/54 48/55/48 47/54/47
f 54/62/54 49/63/50 43/56/44 48/55/48
f 55/65/55 56/64/21 50/57/49 49/58/50
f 56/64/21 57/66/19 51/59/51 50/57/49
f 57/66/19 58/67/56 52/60/52 51/59/51
f 58/67/56 59/68/24 53/61/53 52/60/52
f 59/68/24 60/69/23 54/62/54 53/61/53
f 60/69/23 55/70/55 49/63/50 54/62/54
f 61/72/58 62/71/57 56/64/21 55/65/55
f 62/71/57 63/73/59 57/66/19 56/64/21
f 63/73/59 64/74/60 58/67/56 57/66/19
f 64/74/60 65/75/61 59/68/24 58/67/56
f 65/75/61 66/76/62 60/69/23 59/68/24
f 66/76/62 61/77/58 55/70/55 60/69/23
f 67/79/64 68/78/63 62/71/57 61/72/58
f 68/78/63 69/80/65 63/73/59 62/71/57
f 69/80/65 70/81/66 64/74/60 63/73/59
f 70/81/66 71/82/36 65/75/61 64/74/60
f 71/82/36 72/83/35 66/76/62 65/75/61
f 72/83/35 67/84/64 61/77/58 66/76/62
f 1/86/1 2/85/2 68/78/63 67/79/64
f 2/85/2 3/87/5 69/80/65 68/78/63
f 3/87/5 4/88/7 70/81/66 69/80/65
f 4/88/7 5/89/9 71/82/36 70/81/66
f 5/89/9 6/90/11 72/83/35 71/82/36
f 6/90/11 1/91/1 67/84/64 72/83/35
# 72 facets

o ___
v 2.63234 -46.2467 -3.03896
v 2.63234 45.031 -3.03896
v -2.31968 -46.2467 -3.03896
v -2.31968 45.031 -3.03896
v -2.31968 -46.2467 2.82366
v -2.31968 45.031 2.82366
v 2.63234 -46.2467 2.82366
v 2.63234 45.031 2.82366
# 8 vertices

vt 0.00000 0.00000
vt 0.00000 1.00000
vt 1.00000 1.00000
vt 1.00000 0.00000
# 4 texture coordinates

vn -0 0 -1
vn -1 0 0
vn -0 0 1
vn 1 0 0
vn -0 1 0
vn -0 -1 0
# 6 vertex normals

usemtl Red_Glossy
f 75/95/67 76/94/67 74/93/67 73/92/67
f 77/95/68 78/94/68 76/93/68 75/92/68
f 79/95/69 80/94/69 78/93/69 77/92/69
f 73/95/70 74/94/70 80/93/70 79/92/70
f 76/95/71 78/94/71 80/93/71 74/92/71
f 77/95/72 75/94/72 73/93/72 79/92/72
# 6 facets

o ___.1
v 2.63234 3.26565 -45.511
v 2.63234 3.26565 45.7668
v -2.31968 3.26565 -45.511
v -2.31968 3.26565 45.7668
v -2.31968 -2.59697 -45.511
v -2.31968 -2.59697 45.7668
v 2.63234 -2.59697 -45.511
v 2.63234 -2.59697 45.7668
# 8 vertices

vt 0.00000 0.00000
vt 0.00000 1.00000
vt 1.00000 1.00000
vt 1.00000 0.00000
# 4 texture coordinates

vn -0 1 -6.12323e-017
vn -1 0 0
vn -0 -1 6.12323e-017
vn 1 0 0
vn -0 6.12323e-017 1
vn -0 -6.12323e-017 -1
# 6 vertex normals

usemtl Red_Glossy
f 83/99/73 84/98/73 82/97/73 81/96/73
f 85/99/74 86/98/74 84/97/74 83/96/74
f 87/99/75 88/98/75 86/97/75 85/96/75
f 81/99/76 82/98/76 88/97/76 87/96/76
f 84/99/77 86/98/77 88/97/77 82/96/77
f 85/99/78 83/98/78 81/97/78 87/96/78
# 6 facets

o ___.2
v 13.6699 -3.07613 -3.03896
v 13.6699 1.86035 -3.03896
v 1.73274 -3.07613 -3.03896
v 1.73274 1.86035 -3.03896
v 1.73274 -3.07613 2.82366
v 1.73274 1.86035 2.82366
v 13.6699 -3.07613 2.82366
v 13.6699 1.86035 2.82366
# 8 vertices

vt 0.00000 0.00000
vt 0.00000 1.00000
vt 1.00000 1.00000
vt 1.00000 0.00000
# 4 texture coordinates

vn -0 0 -1
vn -1 0 0
vn -0 0 1
vn 1 0 0
vn -0 1 0
vn -0 -1 0
# 6 vertex normals

usemtl Red_Glossy
f 91/103/79 92/102/79 90/101/79 89/100/79
f 93/103/80 94/102/80 92/101/80 91/100/80
f 95/103/81 96/102/81 94/101/81 93/100/81
f 89/103/82 90/102/82 96/101/82 95/100/82
f 92/103/83 94/102/83 96/101/83 90/100/83
f 93/103/84 91/102/84 89/101/84 95/100/84
# 6 facets

