#  ==========================================================================
#  
#  Wavefront OBJ format exported by Red-i Productions' "Riptide Pro"
#     (a commercial plugin for Cinema 4D PC & Mac, R9.6 or later)
#  
#  Red-i Productions
#  http://skinprops.com
#  
#  ==========================================================================
mtllib ladder.mtl
o ___.16
v -432.943 -451.673 291.092
v -432.943 -451.673 284.602
v -425.368 -451.673 291.092
v -425.368 -451.673 284.602
v -425.368 -251.673 291.092
v -425.368 -251.673 284.602
v -432.943 -251.673 291.092
v -432.943 -251.673 284.602
# 8 vertices

vt 0.00000 0.00000
vt 0.00000 1.00000
vt 1.00000 1.00000
vt 1.00000 0.00000
# 4 texture coordinates

vn 0 -1 -6.12323e-017
vn 1 0 0
vn 0 1 6.12323e-017
vn -1 0 0
vn 0 6.12323e-017 -1
vn 0 -6.12323e-017 1
# 6 vertex normals

usemtl Red_Wine.3
f 1/1/1 2/2/1 4/3/1 3/4/1
f 3/1/2 4/2/2 6/3/2 5/4/2
f 5/1/3 6/2/3 8/3/3 7/4/3
f 7/1/4 8/2/4 2/3/4 1/4/4
f 2/1/5 8/2/5 6/3/5 4/4/5
f 7/1/6 1/2/6 3/3/6 5/4/6
# 6 facets

o ___.15
v -432.943 248.403 -284.602
v -432.943 248.403 -291.092
v -425.368 248.403 -284.602
v -425.368 248.403 -291.092
v -425.368 448.403 -284.602
v -425.368 448.403 -291.092
v -432.943 448.403 -284.602
v -432.943 448.403 -291.092
# 8 vertices

vt 0.00000 0.00000
vt 0.00000 1.00000
vt 1.00000 1.00000
vt 1.00000 0.00000
# 4 texture coordinates

vn 0 -1 -6.12323e-017
vn 1 0 0
vn 0 1 6.12323e-017
vn -1 0 0
vn 0 6.12323e-017 -1
vn 0 -6.12323e-017 1
# 6 vertex normals

usemtl Red_Wine.3
f 9/5/7 10/6/7 12/7/7 11/8/7
f 11/5/8 12/6/8 14/7/8 13/8/8
f 13/5/9 14/6/9 16/7/9 15/8/9
f 15/5/10 16/6/10 10/7/10 9/8/10
f 10/5/11 16/6/11 14/7/11 12/8/11
f 15/5/12 9/6/12 11/7/12 13/8/12
# 6 facets

o ___.14
v -432.943 -325.534 351.395
v -432.943 -329.636 346.364
v -425.368 -325.534 351.395
v -425.368 -329.636 346.364
v -425.368 465.278 -293.39
v -425.368 461.177 -298.42
v -432.943 465.278 -293.39
v -432.943 461.177 -298.42
# 8 vertices

vt 0.00000 0.00000
vt 0.00000 1.00000
vt 1.00000 1.00000
vt 1.00000 0.00000
# 4 texture coordinates

vn 1.51748e-008 -0.775034 0.63192
vn 1 6.52383e-008 5.59993e-008
vn -1.51748e-008 0.775034 -0.63192
vn -1 -6.52383e-008 -5.59993e-008
vn 8.46267e-008 -0.63192 -0.775034
vn -8.46267e-008 0.63192 0.775034
# 6 vertex normals

usemtl Red_Wine.3
f 17/9/13 18/10/13 20/11/13 19/12/13
f 19/9/14 20/10/14 22/11/14 21/12/14
f 21/9/15 22/10/15 24/11/15 23/12/15
f 23/9/16 24/10/16 18/11/16 17/12/16
f 18/9/17 24/10/17 22/11/17 20/12/17
f 23/9/18 17/10/18 19/11/18 21/12/18
# 6 facets

o ___.13
v -432.943 -273.9 145.089
v -432.943 -273.9 138.598
v -425.368 -273.9 145.089
v -425.368 -273.9 138.598
v -425.368 -73.8999 145.089
v -425.368 -73.8999 138.598
v -432.943 -73.8999 145.089
v -432.943 -73.8999 138.598
# 8 vertices

vt 0.00000 0.00000
vt 0.00000 1.00000
vt 1.00000 1.00000
vt 1.00000 0.00000
# 4 texture coordinates

vn 0 -1 -6.12323e-017
vn 1 0 0
vn 0 1 6.12323e-017
vn -1 0 0
vn 0 6.12323e-017 -1
vn 0 -6.12323e-017 1
# 6 vertex normals

usemtl Red_Wine.3
f 25/13/19 26/14/19 28/15/19 27/16/19
f 27/13/20 28/14/20 30/15/20 29/16/20
f 29/13/21 30/14/21 32/15/21 31/16/21
f 31/13/22 32/14/22 26/15/22 25/16/22
f 26/13/23 32/14/23 30/15/23 28/16/23
f 31/13/24 25/14/24 27/15/24 29/16/24
# 6 facets

o ___.12
v -432.943 -25.7788 -55.3708
v -432.943 -25.7788 -61.8616
v -425.368 -25.7788 -55.3708
v -425.368 -25.7788 -61.8616
v -425.368 174.221 -55.3708
v -425.368 174.221 -61.8616
v -432.943 174.221 -55.3708
v -432.943 174.221 -61.8616
# 8 vertices

vt 0.00000 0.00000
vt 0.00000 1.00000
vt 1.00000 1.00000
vt 1.00000 0.00000
# 4 texture coordinates

vn 0 -1 -6.12323e-017
vn 1 0 0
vn 0 1 6.12323e-017
vn -1 0 0
vn 0 6.12323e-017 -1
vn 0 -6.12323e-017 1
# 6 vertex normals

usemtl Red_Wine.3
f 33/17/25 34/18/25 36/19/25 35/20/25
f 35/17/26 36/18/26 38/19/26 37/20/26
f 37/17/27 38/18/27 40/19/27 39/20/27
f 39/17/28 40/18/28 34/19/28 33/20/28
f 34/17/29 40/18/29 38/19/29 36/20/29
f 39/17/30 33/18/30 35/19/30 37/20/30
# 6 facets

o ___.11
v 425.368 -25.7788 -55.3708
v 425.368 -25.7788 -61.8616
v 432.943 -25.7788 -55.3708
v 432.943 -25.7788 -61.8616
v 432.943 174.221 -55.3708
v 432.943 174.221 -61.8616
v 425.368 174.221 -55.3708
v 425.368 174.221 -61.8616
# 8 vertices

vt 0.00000 0.00000
vt 0.00000 1.00000
vt 1.00000 1.00000
vt 1.00000 0.00000
# 4 texture coordinates

vn 0 -1 -6.12323e-017
vn 1 0 0
vn 0 1 6.12323e-017
vn -1 0 0
vn 0 6.12323e-017 -1
vn 0 -6.12323e-017 1
# 6 vertex normals

usemtl Red_Wine.3
f 41/21/31 42/22/31 44/23/31 43/24/31
f 43/21/32 44/22/32 46/23/32 45/24/32
f 45/21/33 46/22/33 48/23/33 47/24/33
f 47/21/34 48/22/34 42/23/34 41/24/34
f 42/21/35 48/22/35 46/23/35 44/24/35
f 47/21/36 41/22/36 43/23/36 45/24/36
# 6 facets

o ___.10
v 425.368 -273.9 145.089
v 425.368 -273.9 138.598
v 432.943 -273.9 145.089
v 432.943 -273.9 138.598
v 432.943 -73.8999 145.089
v 432.943 -73.8999 138.598
v 425.368 -73.8999 145.089
v 425.368 -73.8999 138.598
# 8 vertices

vt 0.00000 0.00000
vt 0.00000 1.00000
vt 1.00000 1.00000
vt 1.00000 0.00000
# 4 texture coordinates

vn 0 -1 -6.12323e-017
vn 1 0 0
vn 0 1 6.12323e-017
vn -1 0 0
vn 0 6.12323e-017 -1
vn 0 -6.12323e-017 1
# 6 vertex normals

usemtl Red_Wine.3
f 49/25/37 50/26/37 52/27/37 51/28/37
f 51/25/38 52/26/38 54/27/38 53/28/38
f 53/25/39 54/26/39 56/27/39 55/28/39
f 55/25/40 56/26/40 50/27/40 49/28/40
f 50/25/41 56/26/41 54/27/41 52/28/41
f 55/25/42 49/26/42 51/27/42 53/28/42
# 6 facets

o ___.9
v 425.368 -325.534 351.395
v 425.368 -329.636 346.364
v 432.943 -325.534 351.395
v 432.943 -329.636 346.364
v 432.943 465.278 -293.39
v 432.943 461.177 -298.42
v 425.368 465.278 -293.39
v 425.368 461.177 -298.42
# 8 vertices

vt 0.00000 0.00000
vt 0.00000 1.00000
vt 1.00000 1.00000
vt 1.00000 0.00000
# 4 texture coordinates

vn 1.51748e-008 -0.775034 0.63192
vn 1 6.52383e-008 5.59993e-008
vn -1.51748e-008 0.775034 -0.63192
vn -1 -6.52383e-008 -5.59993e-008
vn 8.46267e-008 -0.63192 -0.775034
vn -8.46267e-008 0.63192 0.775034
# 6 vertex normals

usemtl Red_Wine.3
f 57/29/43 58/30/43 60/31/43 59/32/43
f 59/29/44 60/30/44 62/31/44 61/32/44
f 61/29/45 62/30/45 64/31/45 63/32/45
f 63/29/46 64/30/46 58/31/46 57/32/46
f 58/29/47 64/30/47 62/31/47 60/32/47
f 63/29/48 57/30/48 59/31/48 61/32/48
# 6 facets

o ___.8
v 425.368 248.403 -284.602
v 425.368 248.403 -291.092
v 432.943 248.403 -284.602
v 432.943 248.403 -291.092
v 432.943 448.403 -284.602
v 432.943 448.403 -291.092
v 425.368 448.403 -284.602
v 425.368 448.403 -291.092
# 8 vertices

vt 0.00000 0.00000
vt 0.00000 1.00000
vt 1.00000 1.00000
vt 1.00000 0.00000
# 4 texture coordinates

vn 0 -1 -6.12323e-017
vn 1 0 0
vn 0 1 6.12323e-017
vn -1 0 0
vn 0 6.12323e-017 -1
vn 0 -6.12323e-017 1
# 6 vertex normals

usemtl Red_Wine.3
f 65/33/49 66/34/49 68/35/49 67/36/49
f 67/33/50 68/34/50 70/35/50 69/36/50
f 69/33/51 70/34/51 72/35/51 71/36/51
f 71/33/52 72/34/52 66/35/52 65/36/52
f 66/33/53 72/34/53 70/35/53 68/36/53
f 71/33/54 65/34/54 67/35/54 69/36/54
# 6 facets

o ___.7
v 425.368 -451.673 291.092
v 425.368 -451.673 284.602
v 432.943 -451.673 291.092
v 432.943 -451.673 284.602
v 432.943 -251.673 291.092
v 432.943 -251.673 284.602
v 425.368 -251.673 291.092
v 425.368 -251.673 284.602
# 8 vertices

vt 0.00000 0.00000
vt 0.00000 1.00000
vt 1.00000 1.00000
vt 1.00000 0.00000
# 4 texture coordinates

vn 0 -1 -6.12323e-017
vn 1 0 0
vn 0 1 6.12323e-017
vn -1 0 0
vn 0 6.12323e-017 -1
vn 0 -6.12323e-017 1
# 6 vertex normals

usemtl Red_Wine.3
f 73/37/55 74/38/55 76/39/55 75/40/55
f 75/37/56 76/38/56 78/39/56 77/40/56
f 77/37/57 78/38/57 80/39/57 79/40/57
f 79/37/58 80/38/58 74/39/58 73/40/58
f 74/37/59 80/38/59 78/39/59 76/40/59
f 79/37/60 73/38/60 75/39/60 77/40/60
# 6 facets

o ___.6
v -442.992 265.046 -357.8
v -443.286 271.084 -349.771
v -444.987 306.01 -303.327
v -445.265 311.716 -295.74
v -407.891 265.287 -356.696
v -408.183 271.325 -348.667
v -409.883 306.251 -302.223
v -410.164 311.957 -294.636
v -398.23 265.353 -356.392
v -398.524 271.391 -348.363
v -400.225 306.317 -301.919
v -400.502 312.023 -294.332
v -361.936 265.602 -355.25
v -362.23 271.64 -347.221
v -363.931 306.567 -300.777
v -364.209 312.272 -293.19
v -375.194 -524.814 238.671
v -375.488 -518.776 246.699
v -377.189 -483.85 293.143
v -377.467 -478.144 300.73
v -411.488 -525.063 237.529
v -411.782 -519.025 245.558
v -413.483 -484.099 292.001
v -413.76 -478.393 299.589
v -421.15 -525.129 237.225
v -423.422 -478.459 299.285
v -456.25 -525.37 236.121
v -456.544 -519.332 244.149
v -458.245 -484.406 290.593
v -458.523 -478.7 298.18
v -421.441 -519.091 245.254
v -423.141 -484.165 291.697
v -398.463 271.391 -348.361
v -400.164 306.318 -301.917
v -411.721 -519.025 245.56
v -413.422 -484.098 292.003
# 36 vertices

vt 0.00000 0.00000
vt 0.00000 0.33333
vt 0.33333 0.33333
vt 0.33333 0.00000
vt 0.66667 0.33333
vt 0.66667 0.00000
vt 1.00000 0.33333
vt 1.00000 0.00000
vt 1.00000 0.66667
vt 0.00000 0.66667
vt 0.33333 0.66667
vt 0.66667 0.66667
vt 0.00000 1.00000
vt 0.33333 1.00000
vt 0.66667 1.00000
vt 1.00000 1.00000
# 16 texture coordinates

vn 0.0134085 0.79939 -0.600663
vn 0.0292558 -0.600774 -0.798884
vn 0.999482 0.00686105 0.0314423
vn -0.0134085 -0.79939 0.600663
vn -0.0292558 0.600774 0.798884
vn -0.999482 -0.00686105 -0.0314423
# 6 vertex normals

usemtl Red_Wine.3
f 81/41/61 82/42/61 86/43/61 85/44/61
f 85/44/61 86/43/61 90/45/61 89/46/61
f 89/46/61 90/45/61 94/47/61 93/48/61
f 83/49/62 87/49/62 112/50/62 109/50/62
f 86/43/61 87/51/61 91/52/61 90/45/61
f 99/49/62 116/49/62 114/50/62 95/50/62
f 83/50/61 84/53/61 88/54/61 87/51/61
f 87/51/61 88/54/61 92/55/61 91/52/61
f 91/52/61 92/55/61 96/56/61 95/49/61
f 93/41/63 94/42/63 98/47/63 97/48/63
f 113/42/63 114/50/63 116/49/63 115/47/63
f 95/50/63 96/53/63 100/56/63 99/49/63
f 97/41/64 98/42/64 102/43/64 101/44/64
f 101/44/64 102/43/64 111/45/64 105/46/64
f 105/46/64 111/45/64 108/47/64 107/48/64
f 94/42/65 113/42/65 115/47/65 98/47/65
f 102/43/64 103/51/64 112/52/64 111/45/64
f 108/42/65 111/42/65 86/47/65 82/47/65
f 99/50/64 100/53/64 104/54/64 103/51/64
f 103/51/64 104/54/64 106/55/64 112/52/64
f 112/52/64 106/55/64 110/56/64 109/49/64
f 107/41/66 108/42/66 82/47/66 81/48/66
f 111/42/66 112/50/66 87/49/66 86/47/66
f 109/50/66 110/53/66 84/56/66 83/49/66
f 84/41/65 110/53/65 106/54/65 88/44/65
f 88/44/65 106/54/65 104/55/65 92/46/65
f 92/46/65 104/55/65 100/56/65 96/48/65
f 107/41/62 81/53/62 85/54/62 105/44/62
f 105/44/62 85/54/62 89/55/62 101/46/62
f 101/46/62 89/55/62 93/56/62 97/48/62
# 30 facets

o ___.5
v 401.278 270.842 -331.24
v 400.984 276.879 -323.211
v 399.283 311.806 -276.768
v 399.005 317.512 -269.18
v 436.378 271.083 -330.136
v 436.087 277.12 -322.107
v 434.386 312.047 -275.664
v 434.106 317.753 -268.076
v 446.04 271.149 -329.832
v 445.746 277.187 -321.803
v 444.045 312.113 -275.36
v 443.767 317.819 -267.772
v 482.334 271.398 -328.69
v 482.04 277.436 -320.661
v 480.339 312.362 -274.218
v 480.061 318.068 -266.63
v 469.076 -519.018 265.23
v 468.782 -512.98 273.259
v 467.081 -478.054 319.702
v 466.803 -472.348 327.29
v 432.782 -519.267 264.088
v 432.488 -513.229 272.117
v 430.787 -478.303 318.561
v 430.509 -472.597 326.148
v 423.12 -519.334 263.784
v 420.848 -472.664 325.844
v 388.02 -519.575 262.68
v 387.726 -513.537 270.709
v 386.025 -478.61 317.153
v 385.747 -472.905 324.74
v 422.829 -513.296 271.813
v 421.128 -478.369 318.257
v 445.807 277.187 -321.801
v 444.106 312.113 -275.358
v 432.549 -513.229 272.119
v 430.848 -478.303 318.563
# 36 vertices

vt 0.00000 0.00000
vt 0.00000 0.33333
vt 0.33333 0.33333
vt 0.33333 0.00000
vt 0.66667 0.33333
vt 0.66667 0.00000
vt 1.00000 0.33333
vt 1.00000 0.00000
vt 1.00000 0.66667
vt 0.00000 0.66667
vt 0.33333 0.66667
vt 0.66667 0.66667
vt 0.00000 1.00000
vt 0.33333 1.00000
vt 0.66667 1.00000
vt 1.00000 1.00000
# 16 texture coordinates

vn 0.0134085 0.79939 -0.600663
vn 0.0292558 -0.600774 -0.798884
vn 0.999482 0.00686105 0.0314423
vn -0.0134085 -0.79939 0.600663
vn -0.0292558 0.600774 0.798884
vn -0.999482 -0.00686105 -0.0314423
# 6 vertex normals

usemtl Red_Wine.3
f 117/57/67 118/58/67 122/59/67 121/60/67
f 121/60/67 122/59/67 126/61/67 125/62/67
f 125/62/67 126/61/67 130/63/67 129/64/67
f 119/65/68 123/65/68 148/66/68 145/66/68
f 122/59/67 123/67/67 127/68/67 126/61/67
f 135/65/68 152/65/68 150/66/68 131/66/68
f 119/66/67 120/69/67 124/70/67 123/67/67
f 123/67/67 124/70/67 128/71/67 127/68/67
f 127/68/67 128/71/67 132/72/67 131/65/67
f 129/57/69 130/58/69 134/63/69 133/64/69
f 149/58/69 150/66/69 152/65/69 151/63/69
f 131/66/69 132/69/69 136/72/69 135/65/69
f 133/57/70 134/58/70 138/59/70 137/60/70
f 137/60/70 138/59/70 147/61/70 141/62/70
f 141/62/70 147/61/70 144/63/70 143/64/70
f 130/58/71 149/58/71 151/63/71 134/63/71
f 138/59/70 139/67/70 148/68/70 147/61/70
f 144/58/71 147/58/71 122/63/71 118/63/71
f 135/66/70 136/69/70 140/70/70 139/67/70
f 139/67/70 140/70/70 142/71/70 148/68/70
f 148/68/70 142/71/70 146/72/70 145/65/70
f 143/57/72 144/58/72 118/63/72 117/64/72
f 147/58/72 148/66/72 123/65/72 122/63/72
f 145/66/72 146/69/72 120/72/72 119/65/72
f 120/57/71 146/69/71 142/70/71 124/60/71
f 124/60/71 142/70/71 140/71/71 128/62/71
f 128/62/71 140/71/71 136/72/71 132/64/71
f 143/57/68 117/69/68 121/70/68 141/60/68
f 141/60/68 121/70/68 125/71/68 137/62/68
f 137/62/68 125/71/68 129/72/68 133/64/68
# 30 facets

o ___.4
v -395.802 231.641 -340.055
v -395.802 256.752 -340.055
v 425.375 231.641 -340.055
v 425.375 256.752 -340.055
v 425.375 231.641 -157.282
v 425.375 256.752 -157.282
v -395.802 231.641 -157.282
v -395.802 256.752 -157.282
# 8 vertices

vt 0.00000 0.00000
vt 0.00000 1.00000
vt 1.00000 1.00000
vt 1.00000 0.00000
# 4 texture coordinates

vn 0 0 -1
vn 1 0 0
vn 0 0 1
vn -1 0 0
vn 0 1 0
vn 0 -1 0
# 6 vertex normals

usemtl Red_Wine.3
f 153/73/73 154/74/73 156/75/73 155/76/73
f 155/73/74 156/74/74 158/75/74 157/76/74
f 157/73/75 158/74/75 160/75/75 159/76/75
f 159/73/76 160/74/76 154/75/76 153/76/76
f 154/73/77 160/74/77 158/75/77 156/76/77
f 159/73/78 153/74/78 155/75/78 157/76/78
# 6 facets

o ___.2
v -395.802 75.2152 -222.459
v -395.802 100.326 -222.459
v 425.375 75.2152 -222.459
v 425.375 100.326 -222.459
v 425.375 75.2152 -39.6867
v 425.375 100.326 -39.6867
v -395.802 75.2152 -39.6867
v -395.802 100.326 -39.6867
# 8 vertices

vt 0.00000 0.00000
vt 0.00000 1.00000
vt 1.00000 1.00000
vt 1.00000 0.00000
# 4 texture coordinates

vn 0 0 -1
vn 1 0 0
vn 0 0 1
vn -1 0 0
vn 0 1 0
vn 0 -1 0
# 6 vertex normals

usemtl Red_Wine.3
f 161/77/79 162/78/79 164/79/79 163/80/79
f 163/77/80 164/78/80 166/79/80 165/80/80
f 165/77/81 166/78/81 168/79/81 167/80/81
f 167/77/82 168/78/82 162/79/82 161/80/82
f 162/77/83 168/78/83 166/79/83 164/80/83
f 167/77/84 161/78/84 163/79/84 165/80/84
# 6 facets

o ___.1
v -395.802 -81.2109 -113.449
v -395.802 -56.0999 -113.449
v 425.375 -81.2109 -113.449
v 425.375 -56.0999 -113.449
v 425.375 -81.2109 69.3237
v 425.375 -56.0999 69.3237
v -395.802 -81.2109 69.3237
v -395.802 -56.0999 69.3237
# 8 vertices

vt 0.00000 0.00000
vt 0.00000 1.00000
vt 1.00000 1.00000
vt 1.00000 0.00000
# 4 texture coordinates

vn 0 0 -1
vn 1 0 0
vn 0 0 1
vn -1 0 0
vn 0 1 0
vn 0 -1 0
# 6 vertex normals

usemtl Red_Wine.3
f 169/81/85 170/82/85 172/83/85 171/84/85
f 171/81/86 172/82/86 174/83/86 173/84/86
f 173/81/87 174/82/87 176/83/87 175/84/87
f 175/81/88 176/82/88 170/83/88 169/84/88
f 170/81/89 176/82/89 174/83/89 172/84/89
f 175/81/90 169/82/90 171/83/90 173/84/90
# 6 facets

o ___
v -395.802 -221.778 -2.23649
v -395.802 -196.667 -2.23649
v 425.375 -221.778 -2.23649
v 425.375 -196.667 -2.23649
v 425.375 -221.778 180.536
v 425.375 -196.667 180.536
v -395.802 -221.778 180.536
v -395.802 -196.667 180.536
# 8 vertices

vt 0.00000 0.00000
vt 0.00000 1.00000
vt 1.00000 1.00000
vt 1.00000 0.00000
# 4 texture coordinates

vn 0 0 -1
vn 1 0 0
vn 0 0 1
vn -1 0 0
vn 0 1 0
vn 0 -1 0
# 6 vertex normals

usemtl Red_Wine.3
f 177/85/91 178/86/91 180/87/91 179/88/91
f 179/85/92 180/86/92 182/87/92 181/88/92
f 181/85/93 182/86/93 184/87/93 183/88/93
f 183/85/94 184/86/94 178/87/94 177/88/94
f 178/85/95 184/86/95 182/87/95 180/88/95
f 183/85/96 177/86/96 179/87/96 181/88/96
# 6 facets

o ___.3
v -395.802 -374.185 108.218
v -395.802 -349.074 108.218
v 425.375 -374.185 108.218
v 425.375 -349.074 108.218
v 425.375 -374.185 290.99
v 425.375 -349.074 290.99
v -395.802 -374.185 290.99
v -395.802 -349.074 290.99
# 8 vertices

vt 0.00000 0.00000
vt 0.00000 1.00000
vt 1.00000 1.00000
vt 1.00000 0.00000
# 4 texture coordinates

vn 0 0 -1
vn 1 0 0
vn 0 0 1
vn -1 0 0
vn 0 1 0
vn 0 -1 0
# 6 vertex normals

usemtl Red_Wine.3
f 185/89/97 186/90/97 188/91/97 187/92/97
f 187/89/98 188/90/98 190/91/98 189/92/98
f 189/89/99 190/90/99 192/91/99 191/92/99
f 191/89/100 192/90/100 186/91/100 185/92/100
f 186/89/101 192/90/101 190/91/101 188/92/101
f 191/89/102 185/90/102 187/91/102 189/92/102
# 6 facets

