#  ==========================================================================
#  
#  Wavefront OBJ format exported by Red-i Productions' "Riptide Pro"
#     (a commercial plugin for Cinema 4D PC & Mac, R9.6 or later)
#  
#  Red-i Productions
#  http://skinprops.com
#  
#  ==========================================================================
mtllib net.mtl
o __.11
v -494.018 5.59741e-006 -98.2611
v -494.018 4.84814e-006 -77.7333
v 469.422 5.59741e-006 -98.2612
v 469.422 4.84814e-006 -77.7334
# 4 vertices

vt 0.00000 0.00000
vt 0.00000 1.00000
vt 1.00000 1.00000
vt 1.00000 0.00000
# 4 texture coordinates

vn 1.21619e-015 1 3.65002e-008
# 1 vertex normals

usemtl 12311
f 2/4/1 4/3/1 3/2/1 1/1/1
# 1 facets

o __.10
v -494.018 2.54504e-006 -21.3043
v -494.018 1.73574e-006 -0.776506
v 469.422 2.54504e-006 -21.3044
v 469.422 1.73574e-006 -0.776542
# 4 vertices

vt 0.00000 0.00000
vt 0.00000 1.00000
vt 1.00000 1.00000
vt 1.00000 0.00000
# 4 texture coordinates

vn 1.43901e-015 1 3.94248e-008
# 1 vertex normals

usemtl 12311
f 6/8/2 8/7/2 7/6/2 5/5/2
# 1 facets

o __.9
v -494.018 -1.10504e-006 65.2721
v -494.018 -1.97023e-006 85.7999
v 469.422 -1.10504e-006 65.2721
v 469.422 -1.97023e-006 85.7999
# 4 vertices

vt 0.00000 0.00000
vt 0.00000 1.00000
vt 1.00000 1.00000
vt 1.00000 0.00000
# 4 texture coordinates

vn 1.66163e-015 1 4.21468e-008
# 1 vertex normals

usemtl 12311
f 10/12/3 12/11/3 11/10/3 9/9/3
# 1 facets

o __.8
v -494.018 -4.99036e-006 157.345
v -494.018 -5.90802e-006 177.873
v 469.423 -4.99036e-006 157.345
v 469.423 -5.90802e-006 177.873
# 4 vertices

vt 0.00000 0.00000
vt 0.00000 1.00000
vt 1.00000 1.00000
vt 1.00000 0.00000
# 4 texture coordinates

vn 1.88411e-015 1 4.47035e-008
# 1 vertex normals

usemtl 12311
f 14/16/4 16/15/4 15/14/4 13/13/4
# 1 facets

o __.12
v -494.018 9.01224e-006 -198.689
v -494.018 8.40046e-006 -178.162
v 469.422 9.01224e-006 -198.689
v 469.422 8.40046e-006 -178.162
# 4 vertices

vt 0.00000 0.00000
vt 0.00000 1.00000
vt 1.00000 1.00000
vt 1.00000 0.00000
# 4 texture coordinates

vn 7.69185e-016 1 2.98023e-008
# 1 vertex normals

usemtl 12311
f 18/20/5 20/19/5 19/18/5 17/17/5
# 1 facets

o __.13
v -494.018 1.19696e-005 -293.379
v -494.018 1.14398e-005 -272.851
v 469.422 1.19696e-005 -293.379
v 469.422 1.14398e-005 -272.851
# 4 vertices

vt 0.00000 0.00000
vt 0.00000 1.00000
vt 1.00000 1.00000
vt 1.00000 0.00000
# 4 texture coordinates

vn 5.43896e-016 1 2.58096e-008
# 1 vertex normals

usemtl 12311
f 22/24/6 24/23/6 23/22/6 21/21/6
# 1 facets

o __.7
v -359.073 -4.70427e-008 -369.344
v -378.582 -4.70427e-008 -369.344
v -359.073 -4.70427e-008 271.519
v -378.582 -4.70427e-008 271.519
# 4 vertices

vt 0.00000 0.00000
vt 0.00000 1.00000
vt 1.00000 1.00000
vt 1.00000 0.00000
# 4 texture coordinates

vn -0 1 0
# 1 vertex normals

usemtl 12311
f 26/28/7 28/27/7 27/26/7 25/25/7
# 1 facets

o __.6
v -261.126 -4.70427e-008 -369.344
v -280.634 -4.70427e-008 -369.344
v -261.126 -4.70427e-008 271.519
v -280.634 -4.70427e-008 271.519
# 4 vertices

vt 0.00000 0.00000
vt 0.00000 1.00000
vt 1.00000 1.00000
vt 1.00000 0.00000
# 4 texture coordinates

vn -0 1 0
# 1 vertex normals

usemtl 12311
f 30/32/8 32/31/8 31/30/8 29/29/8
# 1 facets

o __.5
v -148.812 -4.70427e-008 -369.344
v -168.321 -4.70427e-008 -369.344
v -148.812 -4.70427e-008 271.519
v -168.321 -4.70427e-008 271.519
# 4 vertices

vt 0.00000 0.00000
vt 0.00000 1.00000
vt 1.00000 1.00000
vt 1.00000 0.00000
# 4 texture coordinates

vn -0 1 0
# 1 vertex normals

usemtl 12311
f 34/36/9 36/35/9 35/34/9 33/33/9
# 1 facets

o __.4
v -43.0288 -4.70427e-008 -369.344
v -62.537 -4.70427e-008 -369.344
v -43.0288 -4.70427e-008 271.519
v -62.537 -4.70427e-008 271.519
# 4 vertices

vt 0.00000 0.00000
vt 0.00000 1.00000
vt 1.00000 1.00000
vt 1.00000 0.00000
# 4 texture coordinates

vn -0 1 0
# 1 vertex normals

usemtl 12311
f 38/40/10 40/39/10 39/38/10 37/37/10
# 1 facets

o __.3
v 67.9786 -4.70427e-008 -369.344
v 48.4704 -4.70427e-008 -369.344
v 67.9786 -4.70427e-008 271.519
v 48.4704 -4.70427e-008 271.519
# 4 vertices

vt 0.00000 0.00000
vt 0.00000 1.00000
vt 1.00000 1.00000
vt 1.00000 0.00000
# 4 texture coordinates

vn -0 1 0
# 1 vertex normals

usemtl 12311
f 42/44/11 44/43/11 43/42/11 41/41/11
# 1 facets

o __.2
v 177.68 -4.70427e-008 -369.344
v 158.172 -4.70427e-008 -369.344
v 177.68 -4.70427e-008 271.519
v 158.172 -4.70427e-008 271.519
# 4 vertices

vt 0.00000 0.00000
vt 0.00000 1.00000
vt 1.00000 1.00000
vt 1.00000 0.00000
# 4 texture coordinates

vn -0 1 0
# 1 vertex normals

usemtl 12311
f 46/48/12 48/47/12 47/46/12 45/45/12
# 1 facets

o __.1
v 296.523 -4.70427e-008 -369.344
v 277.015 -4.70427e-008 -369.344
v 296.523 -4.70427e-008 271.519
v 277.015 -4.70427e-008 271.519
# 4 vertices

vt 0.00000 0.00000
vt 0.00000 1.00000
vt 1.00000 1.00000
vt 1.00000 0.00000
# 4 texture coordinates

vn -0 1 0
# 1 vertex normals

usemtl 12311
f 50/52/13 52/51/13 51/50/13 49/49/13
# 1 facets

o __
v 397.083 -4.70427e-008 -369.344
v 377.575 -4.70427e-008 -369.344
v 397.083 -4.70427e-008 271.519
v 377.575 -4.70427e-008 271.519
# 4 vertices

vt 0.00000 0.00000
vt 0.00000 1.00000
vt 1.00000 1.00000
vt 1.00000 0.00000
# 4 texture coordinates

vn -0 1 0
# 1 vertex normals

usemtl 12311
f 54/56/14 56/55/14 55/54/14 53/53/14
# 1 facets

