#  ==========================================================================
#  
#  Wavefront OBJ format exported by Red-i Productions' "Riptide Pro"
#     (a commercial plugin for Cinema 4D PC & Mac, R9.6 or later)
#  
#  Red-i Productions
#  http://skinprops.com
#  
#  ==========================================================================
mtllib pipe_10_degrees.mtl
o __.8
v -530.642 -93.5665 0
v 530.642 93.5665 0
v -537.438 -55.0229 0
v -537.438 -55.0229 0
v 523.846 132.11 0
v 523.846 132.11 0
v -537.029 -57.3474 13.386
v -537.029 -57.3474 13.386
v 524.256 129.786 13.386
v 524.256 129.786 13.386
v -535.848 -64.0404 25.1575
v -535.848 -64.0404 25.1575
v 525.436 123.093 25.1575
v 525.436 123.093 25.1575
v -534.04 -74.2947 33.8947
v -534.04 -74.2947 33.8947
v 527.244 112.838 33.8947
v 527.244 112.838 33.8947
v -531.822 -86.8735 38.5436
v -531.822 -86.8735 38.5436
v 529.462 100.26 38.5436
v 529.462 100.26 38.5436
v -529.462 -100.26 38.5436
v -529.462 -100.26 38.5436
v 531.822 86.8735 38.5436
v 531.822 86.8735 38.5436
v -527.244 -112.838 33.8947
v -527.244 -112.838 33.8947
v 534.04 74.2947 33.8947
v 534.04 74.2947 33.8947
v -525.436 -123.093 25.1575
v -525.436 -123.093 25.1575
v 535.848 64.0404 25.1575
v 535.848 64.0404 25.1575
v -524.256 -129.786 13.386
v -524.256 -129.786 13.386
v 537.029 57.3474 13.386
v 537.029 57.3474 13.386
v -523.846 -132.11 4.79305e-015
v -523.846 -132.11 4.79305e-015
v 537.438 55.0229 4.79305e-015
v 537.438 55.0229 4.79305e-015
v -524.256 -129.786 -13.386
v -524.256 -129.786 -13.386
v 537.029 57.3474 -13.386
v 537.029 57.3474 -13.386
v -525.436 -123.093 -25.1575
v -525.436 -123.093 -25.1575
v 535.848 64.0404 -25.1575
v 535.848 64.0404 -25.1575
v -527.244 -112.838 -33.8947
v -527.244 -112.838 -33.8947
v 534.04 74.2947 -33.8947
v 534.04 74.2947 -33.8947
v -529.462 -100.26 -38.5436
v -529.462 -100.26 -38.5436
v 531.822 86.8735 -38.5436
v 531.822 86.8735 -38.5436
v -531.822 -86.8735 -38.5436
v -531.822 -86.8735 -38.5436
v 529.462 100.26 -38.5436
v 529.462 100.26 -38.5436
v -534.04 -74.2947 -33.8947
v -534.04 -74.2947 -33.8947
v 527.244 112.838 -33.8947
v 527.244 112.838 -33.8947
v -535.848 -64.0404 -25.1575
v -535.848 -64.0404 -25.1575
v 525.436 123.093 -25.1575
v 525.436 123.093 -25.1575
v -537.029 -57.3474 -13.386
v -537.029 -57.3474 -13.386
v 524.256 129.786 -13.386
v 524.256 129.786 -13.386
# 74 vertices

vt 0.50000 0.50000
vt 0.00000 0.50000
vt 0.03015 0.67101
vt 0.00000 0.00000
vt 0.00000 1.00000
vt 0.05556 1.00000
vt 0.05556 0.00000
vt 1.00000 0.50000
vt 0.96985 0.67101
vt 0.11698 0.82139
vt 0.11111 1.00000
vt 0.11111 0.00000
vt 0.88302 0.82139
vt 0.25000 0.93301
vt 0.16667 1.00000
vt 0.16667 0.00000
vt 0.75000 0.93301
vt 0.41318 0.99240
vt 0.22222 1.00000
vt 0.22222 0.00000
vt 0.58682 0.99240
vt 0.27778 1.00000
vt 0.27778 0.00000
vt 0.33333 1.00000
vt 0.33333 0.00000
vt 0.38889 1.00000
vt 0.38889 0.00000
vt 0.44444 1.00000
vt 0.44444 0.00000
vt 0.50000 1.00000
vt 0.50000 0.00000
vt 0.96985 0.32899
vt 0.55556 1.00000
vt 0.55556 0.00000
vt 0.03015 0.32899
vt 0.88302 0.17861
vt 0.61111 1.00000
vt 0.61111 0.00000
vt 0.11698 0.17861
vt 0.75000 0.06699
vt 0.66667 1.00000
vt 0.66667 0.00000
vt 0.25000 0.06699
vt 0.58682 0.00760
vt 0.72222 1.00000
vt 0.72222 0.00000
vt 0.41318 0.00760
vt 0.77778 1.00000
vt 0.77778 0.00000
vt 0.83333 1.00000
vt 0.83333 0.00000
vt 0.88889 1.00000
vt 0.88889 0.00000
vt 0.94444 1.00000
vt 0.94444 0.00000
vt 1.00000 1.00000
vt 1.00000 0.00000
# 57 texture coordinates

vn -0.984808 -0.173648 0
vn -0.173648 0.984808 -1.5131e-008
vn -0.163176 0.925417 0.34202
vn 0.984808 0.173648 0
vn -0.133022 0.754406 0.642788
vn -0.0868241 0.492404 0.866025
vn -0.0301537 0.17101 0.984808
vn 0.0301537 -0.17101 0.984808
vn 0.0868241 -0.492404 0.866025
vn 0.133022 -0.754406 0.642788
vn 0.163176 -0.925417 0.34202
vn 0.173648 -0.984808 0
vn 0.163176 -0.925417 -0.34202
vn 0.133022 -0.754406 -0.642788
vn 0.0868241 -0.492404 -0.866025
vn 0.0301537 -0.17101 -0.984808
vn -0.0301537 0.17101 -0.984808
vn -0.0868241 0.492404 -0.866025
vn -0.133022 0.754406 -0.642788
vn -0.163176 0.925417 -0.34202
# 20 vertex normals

usemtl Red_Wine.4
f 7/3/1 3/2/1 1/1/1
f 8/7/3 9/6/3 5/5/2 4/4/2
f 10/9/4 2/1/4 6/8/4
f 11/10/1 7/3/1 1/1/1
f 12/12/5 13/11/5 9/6/3 8/7/3
f 14/13/4 2/1/4 10/9/4
f 15/14/1 11/10/1 1/1/1
f 16/16/6 17/15/6 13/11/5 12/12/5
f 18/17/4 2/1/4 14/13/4
f 19/18/1 15/14/1 1/1/1
f 20/20/7 21/19/7 17/15/6 16/16/6
f 22/21/4 2/1/4 18/17/4
f 23/21/1 19/18/1 1/1/1
f 24/23/8 25/22/8 21/19/7 20/20/7
f 26/18/4 2/1/4 22/21/4
f 27/17/1 23/21/1 1/1/1
f 28/25/9 29/24/9 25/22/8 24/23/8
f 30/14/4 2/1/4 26/18/4
f 31/13/1 27/17/1 1/1/1
f 32/27/10 33/26/10 29/24/9 28/25/9
f 34/10/4 2/1/4 30/14/4
f 35/9/1 31/13/1 1/1/1
f 36/29/11 37/28/11 33/26/10 32/27/10
f 38/3/4 2/1/4 34/10/4
f 39/8/1 35/9/1 1/1/1
f 40/31/12 41/30/12 37/28/11 36/29/11
f 42/2/4 2/1/4 38/3/4
f 43/32/1 39/8/1 1/1/1
f 44/34/13 45/33/13 41/30/12 40/31/12
f 46/35/4 2/1/4 42/2/4
f 47/36/1 43/32/1 1/1/1
f 48/38/14 49/37/14 45/33/13 44/34/13
f 50/39/4 2/1/4 46/35/4
f 51/40/1 47/36/1 1/1/1
f 52/42/15 53/41/15 49/37/14 48/38/14
f 54/43/4 2/1/4 50/39/4
f 55/44/1 51/40/1 1/1/1
f 56/46/16 57/45/16 53/41/15 52/42/15
f 58/47/4 2/1/4 54/43/4
f 59/47/1 55/44/1 1/1/1
f 60/49/17 61/48/17 57/45/16 56/46/16
f 62/44/4 2/1/4 58/47/4
f 63/43/1 59/47/1 1/1/1
f 64/51/18 65/50/18 61/48/17 60/49/17
f 66/40/4 2/1/4 62/44/4
f 67/39/1 63/43/1 1/1/1
f 68/53/19 69/52/19 65/50/18 64/51/18
f 70/36/4 2/1/4 66/40/4
f 71/35/1 67/39/1 1/1/1
f 72/55/20 73/54/20 69/52/19 68/53/19
f 74/32/4 2/1/4 70/36/4
f 3/2/1 71/35/1 1/1/1
f 4/57/2 5/56/2 73/54/20 72/55/20
f 6/8/4 2/1/4 74/32/4
# 54 facets

