#  ==========================================================================
#  
#  Wavefront OBJ format exported by Red-i Productions' "Riptide Pro"
#     (a commercial plugin for Cinema 4D PC & Mac, R9.6 or later)
#  
#  Red-i Productions
#  http://skinprops.com
#  
#  ==========================================================================
mtllib plane.mtl
v -100 -25.0932 -100
v -100 25.0932 -100
v 100 -25.0932 -100
v 100 25.0932 -100
v 100 -25.0932 100
v 100 25.0932 100
v -100 -25.0932 100
v -100 25.0932 100
# 8 vertices

vt 0.00000 0.62547
vt 0.00000 0.37453
vt 1.00000 0.37453
vt 1.00000 0.62547
vt 0.00000 1.00000
vt 0.00000 0.00000
vt 1.00000 0.00000
vt 1.00000 1.00000
# 8 texture coordinates

vn 0 0 -1
vn 1 0 0
vn 0 0 1
vn -1 0 0
vn 0 1 0
vn 0 -1 0
# 6 vertex normals

usemtl Silver_Blur
f 1/1/1 2/2/1 4/3/1 3/4/1
f 3/1/2 4/2/2 6/3/2 5/4/2
f 5/1/3 6/2/3 8/3/3 7/4/3
f 7/1/4 8/2/4 2/3/4 1/4/4
f 2/5/5 8/6/5 6/7/5 4/8/5
f 7/5/6 1/6/6 3/7/6 5/8/6
# 6 facets

