#  ==========================================================================
#  
#  Wavefront OBJ format exported by Red-i Productions' "Riptide Pro"
#     (a commercial plugin for Cinema 4D PC & Mac, R9.6 or later)
#  
#  Red-i Productions
#  http://skinprops.com
#  
#  ==========================================================================
mtllib rail.mtl
o ___.47
v -744.009 -112.329 -4.41415
v -744.009 42.8557 -4.41415
v -737.11 -112.329 -4.41415
v -737.11 42.8557 -4.41415
v -737.11 -112.329 4.41415
v -737.11 42.8557 4.41415
v -744.009 -112.329 4.41415
v -744.009 42.8557 4.41415
# 8 vertices

vt 0.00000 0.00000
vt 0.00000 1.00000
vt 1.00000 1.00000
vt 1.00000 0.00000
# 4 texture coordinates

vn 0 0 -1
vn 1 0 0
vn 0 0 1
vn -1 0 0
vn 0 1 0
vn 0 -1 0
# 6 vertex normals

usemtl Red_Wine
f 1/1/1 2/2/1 4/3/1 3/4/1
f 3/1/2 4/2/2 6/3/2 5/4/2
f 5/1/3 6/2/3 8/3/3 7/4/3
f 7/1/4 8/2/4 2/3/4 1/4/4
f 2/1/5 8/2/5 6/3/5 4/4/5
f 7/1/6 1/2/6 3/3/6 5/4/6
# 6 facets

o ___.40
v -560.069 -112.329 -4.41415
v -560.069 42.8557 -4.41415
v -553.17 -112.329 -4.41415
v -553.17 42.8557 -4.41415
v -553.17 -112.329 4.41415
v -553.17 42.8557 4.41415
v -560.069 -112.329 4.41415
v -560.069 42.8557 4.41415
# 8 vertices

vt 0.00000 0.00000
vt 0.00000 1.00000
vt 1.00000 1.00000
vt 1.00000 0.00000
# 4 texture coordinates

vn 0 0 -1
vn 1 0 0
vn 0 0 1
vn -1 0 0
vn 0 1 0
vn 0 -1 0
# 6 vertex normals

usemtl Red_Wine
f 9/5/7 10/6/7 12/7/7 11/8/7
f 11/5/8 12/6/8 14/7/8 13/8/8
f 13/5/9 14/6/9 16/7/9 15/8/9
f 15/5/10 16/6/10 10/7/10 9/8/10
f 10/5/11 16/6/11 14/7/11 12/8/11
f 15/5/12 9/6/12 11/7/12 13/8/12
# 6 facets

o ___.39
v -337.949 -112.329 -4.41415
v -337.949 42.8557 -4.41415
v -331.051 -112.329 -4.41415
v -331.051 42.8557 -4.41415
v -331.051 -112.329 4.41415
v -331.051 42.8557 4.41415
v -337.949 -112.329 4.41415
v -337.949 42.8557 4.41415
# 8 vertices

vt 0.00000 0.00000
vt 0.00000 1.00000
vt 1.00000 1.00000
vt 1.00000 0.00000
# 4 texture coordinates

vn 0 0 -1
vn 1 0 0
vn 0 0 1
vn -1 0 0
vn 0 1 0
vn 0 -1 0
# 6 vertex normals

usemtl Red_Wine
f 17/9/13 18/10/13 20/11/13 19/12/13
f 19/9/14 20/10/14 22/11/14 21/12/14
f 21/9/15 22/10/15 24/11/15 23/12/15
f 23/9/16 24/10/16 18/11/16 17/12/16
f 18/9/17 24/10/17 22/11/17 20/12/17
f 23/9/18 17/10/18 19/11/18 21/12/18
# 6 facets

o ___.38
v -92.1367 -112.329 -4.41415
v -92.1367 42.8557 -4.41415
v -85.2381 -112.329 -4.41415
v -85.2381 42.8557 -4.41415
v -85.2381 -112.329 4.41415
v -85.2381 42.8557 4.41415
v -92.1367 -112.329 4.41415
v -92.1367 42.8557 4.41415
# 8 vertices

vt 0.00000 0.00000
vt 0.00000 1.00000
vt 1.00000 1.00000
vt 1.00000 0.00000
# 4 texture coordinates

vn 0 0 -1
vn 1 0 0
vn 0 0 1
vn -1 0 0
vn 0 1 0
vn 0 -1 0
# 6 vertex normals

usemtl Red_Wine
f 25/13/19 26/14/19 28/15/19 27/16/19
f 27/13/20 28/14/20 30/15/20 29/16/20
f 29/13/21 30/14/21 32/15/21 31/16/21
f 31/13/22 32/14/22 26/15/22 25/16/22
f 26/13/23 32/14/23 30/15/23 28/16/23
f 31/13/24 25/14/24 27/15/24 29/16/24
# 6 facets

o ___.37
v 184.773 -112.329 -4.41415
v 184.773 42.8557 -4.41415
v 191.671 -112.329 -4.41415
v 191.671 42.8557 -4.41415
v 191.671 -112.329 4.41415
v 191.671 42.8557 4.41415
v 184.773 -112.329 4.41415
v 184.773 42.8557 4.41415
# 8 vertices

vt 0.00000 0.00000
vt 0.00000 1.00000
vt 1.00000 1.00000
vt 1.00000 0.00000
# 4 texture coordinates

vn 0 0 -1
vn 1 0 0
vn 0 0 1
vn -1 0 0
vn 0 1 0
vn 0 -1 0
# 6 vertex normals

usemtl Red_Wine
f 33/17/25 34/18/25 36/19/25 35/20/25
f 35/17/26 36/18/26 38/19/26 37/20/26
f 37/17/27 38/18/27 40/19/27 39/20/27
f 39/17/28 40/18/28 34/19/28 33/20/28
f 34/17/29 40/18/29 38/19/29 36/20/29
f 39/17/30 33/18/30 35/19/30 37/20/30
# 6 facets

o ___.36
v 470.567 -112.329 -4.41415
v 470.567 42.8557 -4.41415
v 477.465 -112.329 -4.41415
v 477.465 42.8557 -4.41415
v 477.465 -112.329 4.41415
v 477.465 42.8557 4.41415
v 470.567 -112.329 4.41415
v 470.567 42.8557 4.41415
# 8 vertices

vt 0.00000 0.00000
vt 0.00000 1.00000
vt 1.00000 1.00000
vt 1.00000 0.00000
# 4 texture coordinates

vn 0 0 -1
vn 1 0 0
vn 0 0 1
vn -1 0 0
vn 0 1 0
vn 0 -1 0
# 6 vertex normals

usemtl Red_Wine
f 41/21/31 42/22/31 44/23/31 43/24/31
f 43/21/32 44/22/32 46/23/32 45/24/32
f 45/21/33 46/22/33 48/23/33 47/24/33
f 47/21/34 48/22/34 42/23/34 41/24/34
f 42/21/35 48/22/35 46/23/35 44/24/35
f 47/21/36 41/22/36 43/23/36 45/24/36
# 6 facets

o ___.33
v -742.304 35.3627 -4.41415
v -742.304 44.6004 -4.41415
v 737.681 35.3627 -4.41415
v 737.681 44.6004 -4.41415
v 737.681 35.3627 4.41415
v 737.681 44.6004 4.41415
v -742.304 35.3627 4.41415
v -742.304 44.6004 4.41415
# 8 vertices

vt 0.00000 0.00000
vt 0.00000 1.00000
vt 1.00000 1.00000
vt 1.00000 0.00000
# 4 texture coordinates

vn 0 0 -1
vn 1 0 0
vn 0 0 1
vn -1 0 0
vn 0 1 0
vn 0 -1 0
# 6 vertex normals

usemtl Red_Wine
f 49/25/37 50/26/37 52/27/37 51/28/37
f 51/25/38 52/26/38 54/27/38 53/28/38
f 53/25/39 54/26/39 56/27/39 55/28/39
f 55/25/40 56/26/40 50/27/40 49/28/40
f 50/25/41 56/26/41 54/27/41 52/28/41
f 55/25/42 49/26/42 51/27/42 53/28/42
# 6 facets

o ___.31
v 737.11 -112.329 -4.41415
v 737.11 42.8557 -4.41415
v 744.009 -112.329 -4.41415
v 744.009 42.8557 -4.41415
v 744.009 -112.329 4.41415
v 744.009 42.8557 4.41415
v 737.11 -112.329 4.41415
v 737.11 42.8557 4.41415
# 8 vertices

vt 0.00000 0.00000
vt 0.00000 1.00000
vt 1.00000 1.00000
vt 1.00000 0.00000
# 4 texture coordinates

vn 0 0 -1
vn 1 0 0
vn 0 0 1
vn -1 0 0
vn 0 1 0
vn 0 -1 0
# 6 vertex normals

usemtl Red_Wine
f 57/29/43 58/30/43 60/31/43 59/32/43
f 59/29/44 60/30/44 62/31/44 61/32/44
f 61/29/45 62/30/45 64/31/45 63/32/45
f 63/29/46 64/30/46 58/31/46 57/32/46
f 58/29/47 64/30/47 62/31/47 60/32/47
f 63/29/48 57/30/48 59/31/48 61/32/48
# 6 facets

o ___.30
v -742.304 -44.6004 -4.41415
v -742.304 -35.3627 -4.41415
v 737.681 -44.6004 -4.41415
v 737.681 -35.3627 -4.41415
v 737.681 -44.6004 4.41415
v 737.681 -35.3627 4.41415
v -742.304 -44.6004 4.41415
v -742.304 -35.3627 4.41415
# 8 vertices

vt 0.00000 0.00000
vt 0.00000 1.00000
vt 1.00000 1.00000
vt 1.00000 0.00000
# 4 texture coordinates

vn 0 0 -1
vn 1 0 0
vn 0 0 1
vn -1 0 0
vn 0 1 0
vn 0 -1 0
# 6 vertex normals

usemtl Red_Wine
f 65/33/49 66/34/49 68/35/49 67/36/49
f 67/33/50 68/34/50 70/35/50 69/36/50
f 69/33/51 70/34/51 72/35/51 71/36/51
f 71/33/52 72/34/52 66/35/52 65/36/52
f 66/33/53 72/34/53 70/35/53 68/36/53
f 71/33/54 65/34/54 67/35/54 69/36/54
# 6 facets

