#  ==========================================================================
#  
#  Wavefront OBJ format exported by Red-i Productions' "Riptide Pro"
#     (a commercial plugin for Cinema 4D PC & Mac, R9.6 or later)
#  
#  Red-i Productions
#  http://skinprops.com
#  
#  ==========================================================================
mtllib recycled_water_process.mtl
o ___.10
v -1304.07 546.565 1012.51
v -2673.15 546.565 1012.51
v -1304.07 465.614 1012.51
v -2673.15 465.614 1012.51
v -1304.07 465.614 1735.13
v -2673.15 465.614 1735.13
v -1304.07 546.565 1735.13
v -2673.15 546.565 1735.13
# 8 vertices

vt 0.00000 0.00000
vt 0.00000 1.00000
vt 1.00000 1.00000
vt 1.00000 0.00000
# 4 texture coordinates

vn -0 0 -1
vn -6.12323e-017 -1 0
vn -0 0 1
vn 6.12323e-017 1 0
vn -1 6.12323e-017 0
vn 1 -6.12323e-017 0
# 6 vertex normals

usemtl Red_Wine.2
f 3/4/1 4/3/1 2/2/1 1/1/1
f 5/4/2 6/3/2 4/2/2 3/1/2
f 7/4/3 8/3/3 6/2/3 5/1/3
f 1/4/4 2/3/4 8/2/4 7/1/4
f 4/4/5 6/3/5 8/2/5 2/1/5
f 5/4/6 3/3/6 1/2/6 7/1/6
# 6 facets

o ___.9
v 939.627 546.565 -2188.36
v -2261.46 546.565 -2188.36
v 939.627 465.614 -2188.36
v -2261.46 465.614 -2188.36
v 939.627 465.614 -1115.81
v -2261.46 465.614 -1115.81
v 939.627 546.565 -1115.81
v -2261.46 546.565 -1115.81
# 8 vertices

vt 0.00000 0.00000
vt 0.00000 1.00000
vt 1.00000 1.00000
vt 1.00000 0.00000
# 4 texture coordinates

vn -0 0 -1
vn -6.12323e-017 -1 0
vn -0 0 1
vn 6.12323e-017 1 0
vn -1 6.12323e-017 0
vn 1 -6.12323e-017 0
# 6 vertex normals

usemtl Red_Wine.2
f 11/8/7 12/7/7 10/6/7 9/5/7
f 13/8/8 14/7/8 12/6/8 11/5/8
f 15/8/9 16/7/9 14/6/9 13/5/9
f 9/8/10 10/7/10 16/6/10 15/5/10
f 12/8/11 14/7/11 16/6/11 10/5/11
f 13/8/12 11/7/12 9/6/12 15/5/12
# 6 facets

o ___.8
v 2705.7 546.565 -1107.81
v -2277.86 546.565 -1107.81
v 2705.7 465.614 -1107.81
v -2277.86 465.614 -1107.81
v 2705.7 465.614 1797.01
v -2277.86 465.614 1797.01
v 2705.7 546.565 1797.01
v -2277.86 546.565 1797.01
# 8 vertices

vt 0.00000 0.00000
vt 0.00000 1.00000
vt 1.00000 1.00000
vt 1.00000 0.00000
# 4 texture coordinates

vn -0 0 -1
vn -6.12323e-017 -1 0
vn -0 0 1
vn 6.12323e-017 1 0
vn -1 6.12323e-017 0
vn 1 -6.12323e-017 0
# 6 vertex normals

usemtl Red_Wine.2
f 19/12/13 20/11/13 18/10/13 17/9/13
f 21/12/14 22/11/14 20/10/14 19/9/14
f 23/12/15 24/11/15 22/10/15 21/9/15
f 17/12/16 18/11/16 24/10/16 23/9/16
f 20/12/17 22/11/17 24/10/17 18/9/17
f 21/12/18 19/11/18 17/10/18 23/9/18
# 6 facets

o ___.7
v 2748.72 -275.885 -1107.63
v 2748.72 551.126 -1107.63
v 2748.72 -275.885 -1188.58
v 2748.72 551.126 -1188.58
v 910.287 -275.885 -1188.58
v 910.287 551.126 -1188.58
v 910.287 -275.885 -1107.63
v 910.287 551.126 -1107.63
v 1619.59 311.668 -1188.58
v 1619.59 59.6498 -1188.58
v 2152.18 311.668 -1188.58
v 2152.18 59.6498 -1188.58
v 1619.59 311.668 -1107.63
v 1619.59 59.6498 -1107.63
v 2152.18 311.668 -1107.63
v 2152.18 59.6498 -1107.63
# 16 vertices

vt 0.00000 0.00000
vt 0.00000 1.00000
vt 1.00000 1.00000
vt 1.00000 0.00000
vt 0.61418 0.40572
vt 0.32448 0.40572
vt 0.61418 0.71045
vt 0.32448 0.71045
vt 0.67552 0.40572
vt 0.67552 0.71045
vt 0.38582 0.40572
vt 0.38582 0.71045
# 12 texture coordinates

vn 1 0 3.332e-008
vn 3.332e-008 -3.65002e-008 -1
vn -1 0 -3.332e-008
vn -3.332e-008 3.65002e-008 1
vn 1.21619e-015 1 -3.65002e-008
vn -1.21619e-015 -1 3.65002e-008
# 6 vertex normals

usemtl Red_Wine.2
f 27/16/19 28/15/19 26/14/19 25/13/19
f 36/18/20 27/13/20 29/16/20 34/17/20
f 33/19/20 34/17/20 29/16/20 30/15/20
f 28/14/20 35/20/20 33/19/20 30/15/20
f 28/14/20 27/13/20 36/18/20 35/20/20
f 31/16/21 32/15/21 30/14/21 29/13/21
f 39/22/22 40/21/22 25/16/22 26/15/22
f 38/23/22 31/13/22 25/16/22 40/21/22
f 32/14/22 31/13/22 38/23/22 37/24/22
f 37/24/22 39/22/22 26/15/22 32/14/22
f 28/16/23 30/15/23 32/14/23 26/13/23
f 29/16/24 27/15/24 25/14/24 31/13/24
# 12 facets

o ___.6
v 1009.82 -275.884 -2265.44
v 1009.82 551.126 -2265.44
v 928.871 -275.884 -2265.44
v 928.871 551.126 -2265.44
v 928.871 -275.884 -1100.34
v 928.871 551.126 -1100.34
v 1009.82 -275.884 -1100.34
v 1009.82 551.126 -1100.34
# 8 vertices

vt 0.00000 0.00000
vt 0.00000 1.00000
vt 1.00000 1.00000
vt 1.00000 0.00000
# 4 texture coordinates

vn -0 0 -1
vn -1 0 0
vn -0 0 1
vn 1 0 0
vn -0 1 0
vn -0 -1 0
# 6 vertex normals

usemtl Red_Wine.2
f 43/28/25 44/27/25 42/26/25 41/25/25
f 45/28/26 46/27/26 44/26/26 43/25/26
f 47/28/27 48/27/27 46/26/27 45/25/27
f 41/28/28 42/27/28 48/26/28 47/25/28
f 44/28/29 46/27/29 48/26/29 42/25/29
f 45/28/30 43/27/30 41/26/30 47/25/30
# 6 facets

o ___.5
v 1007.57 -275.885 -2194.66
v 1007.57 551.126 -2194.66
v 1007.57 -275.885 -2275.61
v 1007.57 551.126 -2275.61
v -2347.59 -275.885 -2275.61
v -2347.59 551.126 -2275.61
v -2347.59 -275.885 -2194.66
v -2347.59 551.126 -2194.66
v -927.481 -275.885 -2194.66
v -927.481 -275.885 -2275.61
v 703.163 -275.885 -2194.66
v 703.163 -275.885 -2275.61
v -927.481 158.4 -2275.61
v 703.163 158.4 -2275.61
v -1912.76 311.668 -2275.61
v -1380.17 311.668 -2275.61
v -1912.76 59.6498 -2275.61
v -1380.17 59.6498 -2275.61
v -927.481 158.4 -2194.66
v 703.163 158.4 -2194.66
v -1912.76 311.668 -2194.66
v -1912.76 59.6498 -2194.66
v -1380.17 311.668 -2194.66
v -1380.17 59.6498 -2194.66
# 24 vertices

vt 0.00000 0.00000
vt 0.00000 1.00000
vt 1.00000 1.00000
vt 1.00000 0.00000
vt 0.57674 0.00000
vt 0.71166 0.40572
vt 0.87040 0.40572
vt 0.09073 0.52513
vt 0.09073 0.00000
vt 0.87040 0.71045
vt 0.57674 0.52513
vt 0.71166 0.71045
vt 0.90927 0.00000
vt 0.90927 0.52513
vt 0.42326 0.52513
vt 0.42326 0.00000
vt 0.28834 0.40572
vt 0.28834 0.71045
vt 0.12960 0.40572
vt 0.12960 0.71045
vt 0.00000 0.90927
vt 1.00000 0.90927
vt 1.00000 0.42326
vt 0.00000 0.42326
# 24 texture coordinates

vn 1 0 3.65002e-008
vn 3.65002e-008 -3.94248e-008 -1
vn -1 0 -3.65002e-008
vn -3.65002e-008 3.94248e-008 1
vn 1.43901e-015 1 -3.94248e-008
vn -1.43901e-015 -1 3.94248e-008
# 6 vertex normals

usemtl Red_Wine.2
f 51/32/31 52/31/31 50/30/31 49/29/31
f 65/35/32 66/34/32 58/33/32 53/32/32
f 52/30/32 51/29/32 60/37/32 62/36/32
f 63/38/32 65/35/32 53/32/32 54/31/32
f 64/40/32 61/39/32 58/33/32 66/34/32
f 64/40/32 52/30/32 62/36/32 61/39/32
f 52/30/32 64/40/32 63/38/32 54/31/32
f 55/32/33 56/31/33 54/30/33 53/29/33
f 68/42/34 59/41/34 49/32/34 50/31/34
f 71/46/34 72/45/34 57/44/34 67/43/34
f 55/29/34 57/44/34 72/45/34 70/47/34
f 56/30/34 55/29/34 70/47/34 69/48/34
f 50/31/34 71/46/34 67/43/34 68/42/34
f 69/48/34 71/46/34 50/31/34 56/30/34
f 52/32/35 54/31/35 56/30/35 50/29/35
f 60/50/36 51/31/36 49/30/36 59/49/36
f 57/52/36 55/29/36 53/32/36 58/51/36
# 17 facets

o ___.4
v -2266.95 -275.884 -2279.52
v -2266.95 551.126 -2279.52
v -2347.9 -275.884 -2279.52
v -2347.9 551.126 -2279.52
v -2347.9 -275.884 1006.2
v -2347.9 551.126 1006.2
v -2266.95 -275.884 1006.2
v -2266.95 551.126 1006.2
# 8 vertices

vt 0.00000 0.00000
vt 0.00000 1.00000
vt 1.00000 1.00000
vt 1.00000 0.00000
# 4 texture coordinates

vn -0 0 -1
vn -1 0 0
vn -0 0 1
vn 1 0 0
vn -0 1 0
vn -0 -1 0
# 6 vertex normals

usemtl Red_Wine.2
f 75/56/37 76/55/37 74/54/37 73/53/37
f 77/56/38 78/55/38 76/54/38 75/53/38
f 79/56/39 80/55/39 78/54/39 77/53/39
f 73/56/40 74/55/40 80/54/40 79/53/40
f 76/56/41 78/55/41 80/54/41 74/53/41
f 77/56/42 75/55/42 73/54/42 79/53/42
# 6 facets

o ___.3
v -2344.63 -275.884 1008.33
v -2344.63 551.126 1008.33
v -2344.63 -275.884 927.384
v -2344.63 551.126 927.384
v -2740.75 -275.884 927.384
v -2740.75 551.126 927.384
v -2740.75 -275.884 1008.33
v -2740.75 551.126 1008.33
# 8 vertices

vt 0.00000 0.00000
vt 0.00000 1.00000
vt 1.00000 1.00000
vt 1.00000 0.00000
# 4 texture coordinates

vn 1 0 3.94248e-008
vn 3.94248e-008 -4.21468e-008 -1
vn -1 0 -3.94248e-008
vn -3.94248e-008 4.21468e-008 1
vn 1.66163e-015 1 -4.21468e-008
vn -1.66163e-015 -1 4.21468e-008
# 6 vertex normals

usemtl Red_Wine.2
f 83/60/43 84/59/43 82/58/43 81/57/43
f 85/60/44 86/59/44 84/58/44 83/57/44
f 87/60/45 88/59/45 86/58/45 85/57/45
f 81/60/46 82/59/46 88/58/46 87/57/46
f 84/60/47 86/59/47 88/58/47 82/57/47
f 85/60/48 83/59/48 81/58/48 87/57/48
# 6 facets

o ___.2
v 2683.42 -275.884 1802.05
v 2683.42 551.126 1802.05
v 2683.42 -275.884 1721.1
v 2683.42 551.126 1721.1
v -2716.54 -275.884 1721.1
v -2716.54 551.126 1721.1
v -2716.54 -275.884 1802.05
v -2716.54 551.126 1802.05
v 942.736 311.669 1721.1
v 942.736 59.65 1721.1
v -44.2315 311.669 1721.1
v -44.2315 59.65 1721.1
v 2245.55 311.669 1721.1
v 2245.55 59.65 1721.1
v 1258.58 311.669 1721.1
v 1258.58 59.65 1721.1
v 942.736 311.669 1802.05
v 942.736 59.65 1802.05
v -44.2315 311.669 1802.05
v -44.2315 59.65 1802.05
v 2245.55 311.669 1802.05
v 2245.55 59.65 1802.05
v 1258.58 311.669 1802.05
v 1258.58 59.65 1802.05
# 24 vertices

vt 0.00000 0.00000
vt 0.00000 1.00000
vt 1.00000 1.00000
vt 1.00000 0.00000
vt 0.32235 0.40572
vt 0.26386 0.40572
vt 0.26386 0.71045
vt 0.32235 0.71045
vt 0.50512 0.40572
vt 0.08109 0.40572
vt 0.50512 0.71045
vt 0.08109 0.71045
vt 0.73614 0.71045
vt 0.73614 0.40572
vt 0.67765 0.40572
vt 0.67765 0.71045
vt 0.91891 0.40572
vt 0.91891 0.71045
vt 0.49488 0.40572
vt 0.49488 0.71045
# 20 texture coordinates

vn 1 0 3.94248e-008
vn 3.94248e-008 -4.21468e-008 -1
vn -1 0 -3.94248e-008
vn -3.94248e-008 4.21468e-008 1
vn 1.66163e-015 1 -4.21468e-008
vn -1.66163e-015 -1 4.21468e-008
# 6 vertex normals

usemtl Red_Wine.2
f 91/64/49 92/63/49 90/62/49 89/61/49
f 97/68/50 103/67/50 104/66/50 98/65/50
f 93/64/50 100/69/50 98/65/50
f 91/61/50 104/66/50 102/70/50
f 99/71/50 100/69/50 93/64/50 94/63/50
f 91/61/50 93/64/50 98/65/50 104/66/50
f 97/68/50 99/71/50 94/63/50 92/62/50
f 101/72/50 92/62/50 91/61/50 102/70/50
f 103/67/50 97/68/50 92/62/50
f 101/72/50 103/67/50 92/62/50
f 95/64/51 96/63/51 94/62/51 93/61/51
f 105/76/52 106/75/52 112/74/52 111/73/52
f 109/78/52 110/77/52 89/64/52 90/63/52
f 112/74/52 89/64/52 110/77/52
f 95/61/52 89/64/52 112/74/52 106/75/52
f 111/73/52 109/78/52 90/63/52
f 95/61/52 106/75/52 108/79/52
f 90/63/52 105/76/52 111/73/52
f 107/80/52 96/62/52 95/61/52 108/79/52
f 107/80/52 105/76/52 90/63/52 96/62/52
f 92/64/53 94/63/53 96/62/53 90/61/53
f 93/64/54 91/63/54 89/62/54 95/61/54
# 22 facets

o ___.1
v 2744.94 -275.884 -1107.81
v 2744.94 551.126 -1107.81
v 2663.99 -275.884 -1107.81
v 2663.99 551.126 -1107.81
v 2663.99 -275.884 1797.01
v 2663.99 551.126 1797.01
v 2744.94 -275.884 1797.01
v 2744.94 551.126 1797.01
# 8 vertices

vt 0.00000 0.00000
vt 0.00000 1.00000
vt 1.00000 1.00000
vt 1.00000 0.00000
# 4 texture coordinates

vn -0 0 -1
vn -1 0 0
vn -0 0 1
vn 1 0 0
vn -0 1 0
vn -0 -1 0
# 6 vertex normals

usemtl Red_Wine.2
f 115/84/55 116/83/55 114/82/55 113/81/55
f 117/84/56 118/83/56 116/82/56 115/81/56
f 119/84/57 120/83/57 118/82/57 117/81/57
f 113/84/58 114/83/58 120/82/58 119/81/58
f 116/84/59 118/83/59 120/82/59 114/81/59
f 117/84/60 115/83/60 113/82/60 119/81/60
# 6 facets

o ___
v -2665.46 -275.884 923.945
v -2665.46 551.126 923.945
v -2746.41 -275.884 923.945
v -2746.41 551.126 923.945
v -2746.41 -275.884 1807.55
v -2746.41 551.126 1807.55
v -2665.46 -275.884 1807.55
v -2665.46 551.126 1807.55
v -2746.41 311.668 1114.26
v -2746.41 59.6498 1114.26
v -2746.41 311.668 1644.67
v -2746.41 59.6498 1644.67
v -2665.46 311.668 1114.26
v -2665.46 59.6498 1114.26
v -2665.46 311.668 1644.67
v -2665.46 59.6498 1644.67
# 16 vertices

vt 0.00000 0.00000
vt 0.00000 1.00000
vt 1.00000 1.00000
vt 1.00000 0.00000
vt 0.21538 0.40572
vt 0.81566 0.40572
vt 0.81566 0.71045
vt 0.21538 0.71045
vt 0.18434 0.40572
vt 0.78462 0.40572
vt 0.78462 0.71045
vt 0.18434 0.71045
# 12 texture coordinates

vn -0 0 -1
vn -1 0 0
vn -0 0 1
vn 1 0 0
vn -0 1 0
vn -0 -1 0
# 6 vertex normals

usemtl Red_Wine.2
f 123/88/61 124/87/61 122/86/61 121/85/61
f 123/85/62 125/88/62 132/90/62 130/89/62
f 131/91/62 132/90/62 125/88/62 126/87/62
f 124/86/62 123/85/62 130/89/62 129/92/62
f 129/92/62 131/91/62 126/87/62 124/86/62
f 127/88/63 128/87/63 126/86/63 125/85/63
f 127/85/64 121/88/64 134/94/64 136/93/64
f 133/95/64 134/94/64 121/88/64 122/87/64
f 128/86/64 127/85/64 136/93/64 135/96/64
f 135/96/64 133/95/64 122/87/64 128/86/64
f 124/88/65 126/87/65 128/86/65 122/85/65
f 125/88/66 123/87/66 121/86/66 127/85/66
# 12 facets

o ___.10
v -1304.07 546.565 1012.51
v -2673.15 546.565 1012.51
v -1304.07 465.614 1012.51
v -2673.15 465.614 1012.51
v -1304.07 465.614 1735.13
v -2673.15 465.614 1735.13
v -1304.07 546.565 1735.13
v -2673.15 546.565 1735.13
# 8 vertices

vt 0.00000 0.00000
vt 0.00000 1.00000
vt 1.00000 1.00000
vt 1.00000 0.00000
# 4 texture coordinates

vn -0 0 -1
vn -6.12323e-017 -1 0
vn -0 0 1
vn 6.12323e-017 1 0
vn -1 6.12323e-017 0
vn 1 -6.12323e-017 0
# 6 vertex normals

usemtl Red_Wine.2
f 139/100/67 140/99/67 138/98/67 137/97/67
f 141/100/68 142/99/68 140/98/68 139/97/68
f 143/100/69 144/99/69 142/98/69 141/97/69
f 137/100/70 138/99/70 144/98/70 143/97/70
f 140/100/71 142/99/71 144/98/71 138/97/71
f 141/100/72 139/99/72 137/98/72 143/97/72
# 6 facets

o ___.9
v 939.627 546.565 -2188.36
v -2261.46 546.565 -2188.36
v 939.627 465.614 -2188.36
v -2261.46 465.614 -2188.36
v 939.627 465.614 -1115.81
v -2261.46 465.614 -1115.81
v 939.627 546.565 -1115.81
v -2261.46 546.565 -1115.81
# 8 vertices

vt 0.00000 0.00000
vt 0.00000 1.00000
vt 1.00000 1.00000
vt 1.00000 0.00000
# 4 texture coordinates

vn -0 0 -1
vn -6.12323e-017 -1 0
vn -0 0 1
vn 6.12323e-017 1 0
vn -1 6.12323e-017 0
vn 1 -6.12323e-017 0
# 6 vertex normals

usemtl Red_Wine.2
f 147/104/73 148/103/73 146/102/73 145/101/73
f 149/104/74 150/103/74 148/102/74 147/101/74
f 151/104/75 152/103/75 150/102/75 149/101/75
f 145/104/76 146/103/76 152/102/76 151/101/76
f 148/104/77 150/103/77 152/102/77 146/101/77
f 149/104/78 147/103/78 145/102/78 151/101/78
# 6 facets

o ___.8
v 2705.7 546.565 -1107.81
v -2277.86 546.565 -1107.81
v 2705.7 465.614 -1107.81
v -2277.86 465.614 -1107.81
v 2705.7 465.614 1797.01
v -2277.86 465.614 1797.01
v 2705.7 546.565 1797.01
v -2277.86 546.565 1797.01
# 8 vertices

vt 0.00000 0.00000
vt 0.00000 1.00000
vt 1.00000 1.00000
vt 1.00000 0.00000
# 4 texture coordinates

vn -0 0 -1
vn -6.12323e-017 -1 0
vn -0 0 1
vn 6.12323e-017 1 0
vn -1 6.12323e-017 0
vn 1 -6.12323e-017 0
# 6 vertex normals

usemtl Red_Wine.2
f 155/108/79 156/107/79 154/106/79 153/105/79
f 157/108/80 158/107/80 156/106/80 155/105/80
f 159/108/81 160/107/81 158/106/81 157/105/81
f 153/108/82 154/107/82 160/106/82 159/105/82
f 156/108/83 158/107/83 160/106/83 154/105/83
f 157/108/84 155/107/84 153/106/84 159/105/84
# 6 facets

o ___.7
v 2748.72 -275.885 -1107.63
v 2748.72 551.126 -1107.63
v 2748.72 -275.885 -1188.58
v 2748.72 551.126 -1188.58
v 910.287 -275.885 -1188.58
v 910.287 551.126 -1188.58
v 910.287 -275.885 -1107.63
v 910.287 551.126 -1107.63
v 1619.59 311.668 -1188.58
v 1619.59 59.6498 -1188.58
v 2152.18 311.668 -1188.58
v 2152.18 59.6498 -1188.58
v 1619.59 311.668 -1107.63
v 1619.59 59.6498 -1107.63
v 2152.18 311.668 -1107.63
v 2152.18 59.6498 -1107.63
# 16 vertices

vt 0.00000 0.00000
vt 0.00000 1.00000
vt 1.00000 1.00000
vt 1.00000 0.00000
vt 0.61418 0.40572
vt 0.32448 0.40572
vt 0.61418 0.71045
vt 0.32448 0.71045
vt 0.67552 0.40572
vt 0.67552 0.71045
vt 0.38582 0.40572
vt 0.38582 0.71045
# 12 texture coordinates

vn 1 0 3.65002e-008
vn 3.65002e-008 -3.94248e-008 -1
vn -1 0 -3.65002e-008
vn -3.65002e-008 3.94248e-008 1
vn 1.43901e-015 1 -3.94248e-008
vn -1.43901e-015 -1 3.94248e-008
# 6 vertex normals

usemtl Red_Wine.2
f 163/112/85 164/111/85 162/110/85 161/109/85
f 172/114/86 163/109/86 165/112/86 170/113/86
f 169/115/86 170/113/86 165/112/86 166/111/86
f 164/110/86 163/109/86 172/114/86 171/116/86
f 171/116/86 169/115/86 166/111/86 164/110/86
f 167/112/87 168/111/87 166/110/87 165/109/87
f 175/118/88 176/117/88 161/112/88 162/111/88
f 167/109/88 161/112/88 176/117/88 174/119/88
f 168/110/88 167/109/88 174/119/88 173/120/88
f 173/120/88 175/118/88 162/111/88 168/110/88
f 164/112/89 166/111/89 168/110/89 162/109/89
f 165/112/90 163/111/90 161/110/90 167/109/90
# 12 facets

o ___.6
v 1009.82 -275.884 -2265.44
v 1009.82 551.126 -2265.44
v 928.871 -275.884 -2265.44
v 928.871 551.126 -2265.44
v 928.871 -275.884 -1100.34
v 928.871 551.126 -1100.34
v 1009.82 -275.884 -1100.34
v 1009.82 551.126 -1100.34
# 8 vertices

vt 0.00000 0.00000
vt 0.00000 1.00000
vt 1.00000 1.00000
vt 1.00000 0.00000
# 4 texture coordinates

vn -0 0 -1
vn -1 0 0
vn -0 0 1
vn 1 0 0
vn -0 1 0
vn -0 -1 0
# 6 vertex normals

usemtl Red_Wine.2
f 179/124/91 180/123/91 178/122/91 177/121/91
f 181/124/92 182/123/92 180/122/92 179/121/92
f 183/124/93 184/123/93 182/122/93 181/121/93
f 177/124/94 178/123/94 184/122/94 183/121/94
f 180/124/95 182/123/95 184/122/95 178/121/95
f 181/124/96 179/123/96 177/122/96 183/121/96
# 6 facets

o ___.5
v 1007.57 -275.885 -2194.66
v 1007.57 551.126 -2194.66
v 1007.57 -275.885 -2275.61
v 1007.57 551.126 -2275.61
v -2347.59 -275.885 -2275.61
v -2347.59 551.126 -2275.61
v -2347.59 -275.885 -2194.66
v -2347.59 551.126 -2194.66
v -927.481 -275.885 -2194.66
v -927.481 -275.885 -2275.61
v 703.163 -275.885 -2194.66
v 703.163 -275.885 -2275.61
v -927.481 158.4 -2275.61
v 703.163 158.4 -2275.61
v -1912.76 311.668 -2275.61
v -1380.17 311.668 -2275.61
v -1912.76 59.6498 -2275.61
v -1380.17 59.6498 -2275.61
v -927.481 158.4 -2194.66
v 703.163 158.4 -2194.66
v -1912.76 311.668 -2194.66
v -1912.76 59.6498 -2194.66
v -1380.17 311.668 -2194.66
v -1380.17 59.6498 -2194.66
# 24 vertices

vt 0.00000 0.00000
vt 0.00000 1.00000
vt 1.00000 1.00000
vt 1.00000 0.00000
vt 0.57674 0.00000
vt 0.71166 0.40572
vt 0.87040 0.40572
vt 0.09073 0.52513
vt 0.09073 0.00000
vt 0.87040 0.71045
vt 0.57674 0.52513
vt 0.71166 0.71045
vt 0.90927 0.00000
vt 0.90927 0.52513
vt 0.42326 0.00000
vt 0.28834 0.40572
vt 0.28834 0.71045
vt 0.42326 0.52513
vt 0.12960 0.40572
vt 0.12960 0.71045
vt 0.00000 0.90927
vt 1.00000 0.90927
vt 1.00000 0.42326
vt 0.00000 0.42326
# 24 texture coordinates

vn 1 0 3.94248e-008
vn 3.94248e-008 -4.21468e-008 -1
vn -1 0 -3.94248e-008
vn -3.94248e-008 4.21468e-008 1
vn 1.66163e-015 1 -4.21468e-008
vn -1.66163e-015 -1 4.21468e-008
# 6 vertex normals

usemtl Red_Wine.2
f 187/128/97 188/127/97 186/126/97 185/125/97
f 201/131/98 202/130/98 194/129/98 189/128/98
f 188/126/98 187/125/98 196/133/98 198/132/98
f 199/134/98 201/131/98 189/128/98 190/127/98
f 200/136/98 197/135/98 194/129/98 202/130/98
f 197/135/98 200/136/98 188/126/98 198/132/98
f 188/126/98 200/136/98 199/134/98 190/127/98
f 191/128/99 192/127/99 190/126/99 189/125/99
f 204/138/100 195/137/100 185/128/100 186/127/100
f 203/142/100 207/141/100 208/140/100 193/139/100
f 206/143/100 191/125/100 193/139/100 208/140/100
f 192/126/100 191/125/100 206/143/100 205/144/100
f 186/127/100 207/141/100 203/142/100 204/138/100
f 205/144/100 207/141/100 186/127/100 192/126/100
f 188/128/101 190/127/101 192/126/101 186/125/101
f 196/146/102 187/127/102 185/126/102 195/145/102
f 193/148/102 191/125/102 189/128/102 194/147/102
# 17 facets

o ___.4
v -2266.95 -275.884 -2279.52
v -2266.95 551.126 -2279.52
v -2347.9 -275.884 -2279.52
v -2347.9 551.126 -2279.52
v -2347.9 -275.884 1006.2
v -2347.9 551.126 1006.2
v -2266.95 -275.884 1006.2
v -2266.95 551.126 1006.2
# 8 vertices

vt 0.00000 0.00000
vt 0.00000 1.00000
vt 1.00000 1.00000
vt 1.00000 0.00000
# 4 texture coordinates

vn -0 0 -1
vn -1 0 0
vn -0 0 1
vn 1 0 0
vn -0 1 0
vn -0 -1 0
# 6 vertex normals

usemtl Red_Wine.2
f 211/152/103 212/151/103 210/150/103 209/149/103
f 213/152/104 214/151/104 212/150/104 211/149/104
f 215/152/105 216/151/105 214/150/105 213/149/105
f 209/152/106 210/151/106 216/150/106 215/149/106
f 212/152/107 214/151/107 216/150/107 210/149/107
f 213/152/108 211/151/108 209/150/108 215/149/108
# 6 facets

o ___.3
v -2344.63 -275.884 1008.33
v -2344.63 551.126 1008.33
v -2344.63 -275.884 927.384
v -2344.63 551.126 927.384
v -2740.75 -275.884 927.384
v -2740.75 551.126 927.384
v -2740.75 -275.884 1008.33
v -2740.75 551.126 1008.33
# 8 vertices

vt 0.00000 0.00000
vt 0.00000 1.00000
vt 1.00000 1.00000
vt 1.00000 0.00000
# 4 texture coordinates

vn 1 0 4.21468e-008
vn 4.21468e-008 -4.47035e-008 -1
vn -1 0 -4.21468e-008
vn -4.21468e-008 4.47035e-008 1
vn 1.88411e-015 1 -4.47035e-008
vn -1.88411e-015 -1 4.47035e-008
# 6 vertex normals

usemtl Red_Wine.2
f 219/156/109 220/155/109 218/154/109 217/153/109
f 221/156/110 222/155/110 220/154/110 219/153/110
f 223/156/111 224/155/111 222/154/111 221/153/111
f 217/156/112 218/155/112 224/154/112 223/153/112
f 220/156/113 222/155/113 224/154/113 218/153/113
f 221/156/114 219/155/114 217/154/114 223/153/114
# 6 facets

o ___.2
v 2683.42 -275.884 1802.05
v 2683.42 551.126 1802.05
v 2683.42 -275.884 1721.1
v 2683.42 551.126 1721.1
v -2716.54 -275.884 1721.1
v -2716.54 551.126 1721.1
v -2716.54 -275.884 1802.05
v -2716.54 551.126 1802.05
v 942.736 311.669 1721.1
v 942.736 59.65 1721.1
v -44.2315 311.669 1721.1
v -44.2315 59.65 1721.1
v 2245.55 311.669 1721.1
v 2245.55 59.65 1721.1
v 1258.58 311.669 1721.1
v 1258.58 59.65 1721.1
v 942.736 311.669 1802.05
v 942.736 59.65 1802.05
v -44.2315 311.669 1802.05
v -44.2315 59.65 1802.05
v 2245.55 311.669 1802.05
v 2245.55 59.65 1802.05
v 1258.58 311.669 1802.05
v 1258.58 59.65 1802.05
# 24 vertices

vt 0.00000 0.00000
vt 0.00000 1.00000
vt 1.00000 1.00000
vt 1.00000 0.00000
vt 0.32235 0.40572
vt 0.50512 0.40572
vt 0.08109 0.40572
vt 0.26386 0.40572
vt 0.50512 0.71045
vt 0.32235 0.71045
vt 0.26386 0.71045
vt 0.08109 0.71045
vt 0.73614 0.71045
vt 0.73614 0.40572
vt 0.67765 0.40572
vt 0.67765 0.71045
vt 0.91891 0.40572
vt 0.91891 0.71045
vt 0.49488 0.40572
vt 0.49488 0.71045
# 20 texture coordinates

vn 1 0 4.21468e-008
vn 4.21468e-008 -4.47035e-008 -1
vn -1 0 -4.21468e-008
vn -4.21468e-008 4.47035e-008 1
vn 1.88411e-015 1 -4.47035e-008
vn -1.88411e-015 -1 4.47035e-008
# 6 vertex normals

usemtl Red_Wine.2
f 227/160/115 228/159/115 226/158/115 225/157/115
f 229/160/116 236/162/116 234/161/116
f 227/157/116 240/164/116 238/163/116
f 235/165/116 236/162/116 229/160/116 230/159/116
f 239/167/116 240/164/116 234/161/116 233/166/116
f 227/157/116 229/160/116 234/161/116 240/164/116
f 230/159/116 228/158/116 233/166/116 235/165/116
f 237/168/116 228/158/116 227/157/116 238/163/116
f 239/167/116 233/166/116 228/158/116
f 237/168/116 239/167/116 228/158/116
f 231/160/117 232/159/117 230/158/117 229/157/117
f 241/172/118 242/171/118 248/170/118 247/169/118
f 245/174/118 246/173/118 225/160/118 226/159/118
f 225/160/118 246/173/118 248/170/118
f 231/157/118 225/160/118 248/170/118 242/171/118
f 232/158/118 241/172/118 247/169/118
f 231/157/118 242/171/118 244/175/118
f 247/169/118 245/174/118 226/159/118 232/158/118
f 243/176/118 241/172/118 232/158/118
f 231/157/118 244/175/118 243/176/118 232/158/118
f 228/160/119 230/159/119 232/158/119 226/157/119
f 229/160/120 227/159/120 225/158/120 231/157/120
# 22 facets

o ___.1
v 2744.94 -275.884 -1107.81
v 2744.94 551.126 -1107.81
v 2663.99 -275.884 -1107.81
v 2663.99 551.126 -1107.81
v 2663.99 -275.884 1797.01
v 2663.99 551.126 1797.01
v 2744.94 -275.884 1797.01
v 2744.94 551.126 1797.01
# 8 vertices

vt 0.00000 0.00000
vt 0.00000 1.00000
vt 1.00000 1.00000
vt 1.00000 0.00000
# 4 texture coordinates

vn -0 0 -1
vn -1 0 0
vn -0 0 1
vn 1 0 0
vn -0 1 0
vn -0 -1 0
# 6 vertex normals

usemtl Red_Wine.2
f 251/180/121 252/179/121 250/178/121 249/177/121
f 253/180/122 254/179/122 252/178/122 251/177/122
f 255/180/123 256/179/123 254/178/123 253/177/123
f 249/180/124 250/179/124 256/178/124 255/177/124
f 252/180/125 254/179/125 256/178/125 250/177/125
f 253/180/126 251/179/126 249/178/126 255/177/126
# 6 facets

o ___
v -2665.46 -275.884 923.945
v -2665.46 551.126 923.945
v -2746.41 -275.884 923.945
v -2746.41 551.126 923.945
v -2746.41 -275.884 1807.55
v -2746.41 551.126 1807.55
v -2665.46 -275.884 1807.55
v -2665.46 551.126 1807.55
v -2746.41 311.668 1114.26
v -2746.41 59.6498 1114.26
v -2746.41 311.668 1644.67
v -2746.41 59.6498 1644.67
v -2665.46 311.668 1114.26
v -2665.46 59.6498 1114.26
v -2665.46 311.668 1644.67
v -2665.46 59.6498 1644.67
# 16 vertices

vt 0.00000 0.00000
vt 0.00000 1.00000
vt 1.00000 1.00000
vt 1.00000 0.00000
vt 0.21538 0.40572
vt 0.81566 0.40572
vt 0.81566 0.71045
vt 0.21538 0.71045
vt 0.18434 0.40572
vt 0.78462 0.40572
vt 0.78462 0.71045
vt 0.18434 0.71045
# 12 texture coordinates

vn -0 0 -1
vn -1 0 0
vn -0 0 1
vn 1 0 0
vn -0 1 0
vn -0 -1 0
# 6 vertex normals

usemtl Red_Wine.2
f 259/184/127 260/183/127 258/182/127 257/181/127
f 259/181/128 261/184/128 268/186/128 266/185/128
f 267/187/128 268/186/128 261/184/128 262/183/128
f 265/188/128 267/187/128 262/183/128 260/182/128
f 260/182/128 259/181/128 266/185/128 265/188/128
f 263/184/129 264/183/129 262/182/129 261/181/129
f 263/181/130 257/184/130 270/190/130 272/189/130
f 269/191/130 270/190/130 257/184/130 258/183/130
f 264/182/130 263/181/130 272/189/130 271/192/130
f 271/192/130 269/191/130 258/183/130 264/182/130
f 260/184/131 262/183/131 264/182/131 258/181/131
f 261/184/132 259/183/132 257/182/132 263/181/132
# 12 facets

o ___
# 0 vertices

o ___.1
# 0 vertices

o ___.2
# 0 vertices

o ___.3
# 0 vertices

o ___.4
# 0 vertices

o ___.5
# 0 vertices

