#  ==========================================================================
#  
#  Wavefront OBJ format exported by Red-i Productions' "Riptide Pro"
#     (a commercial plugin for Cinema 4D PC & Mac, R9.6 or later)
#  
#  Red-i Productions
#  http://skinprops.com
#  
#  ==========================================================================
mtllib reducer_eccentric.mtl
o __.1
v 7.86605 -14.8934 0
v -5.73119 36.9306 -3.35508e-015
v 47.0042 -14.8934 0
v 47.0042 -14.8934 0
v 19.5767 36.9306 -3.35508e-015
v 19.5767 36.9306 -3.35508e-015
v 44.6439 -14.8934 13.386
v 44.6439 -14.8934 13.386
v 18.0504 36.9306 8.65581
v 18.0504 36.9306 8.65581
v 37.8476 -14.8934 25.1575
v 37.8476 -14.8934 25.1575
v 13.6558 36.9306 16.2676
v 13.6558 36.9306 16.2676
v 27.4351 -14.8934 33.8947
v 27.4351 -14.8934 33.8947
v 6.92276 36.9306 21.9173
v 6.92276 36.9306 21.9173
v 14.6623 -14.8934 38.5436
v 14.6623 -14.8934 38.5436
v -1.33652 36.9306 24.9234
v -1.33652 36.9306 24.9234
v 1.06978 -14.8934 38.5436
v 1.06978 -14.8934 38.5436
v -10.1259 36.9306 24.9234
v -10.1259 36.9306 24.9234
v -11.703 -14.8934 33.8947
v -11.703 -14.8934 33.8947
v -18.3851 36.9306 21.9173
v -18.3851 36.9306 21.9173
v -22.1155 -14.8934 25.1575
v -22.1155 -14.8934 25.1575
v -25.1182 36.9306 16.2676
v -25.1182 36.9306 16.2676
v -28.9118 -14.8934 13.386
v -28.9118 -14.8934 13.386
v -29.5128 36.9306 8.65581
v -29.5128 36.9306 8.65581
v -31.2721 -14.8934 4.79305e-015
v -31.2721 -14.8934 4.79305e-015
v -31.0391 36.9306 -2.55757e-016
v -31.0391 36.9306 -2.55757e-016
v -28.9118 -14.8934 -13.386
v -28.9118 -14.8934 -13.386
v -29.5128 36.9306 -8.65581
v -29.5128 36.9306 -8.65581
v -22.1155 -14.8934 -25.1575
v -22.1155 -14.8934 -25.1575
v -25.1182 36.9306 -16.2676
v -25.1182 36.9306 -16.2676
v -11.703 -14.8934 -33.8947
v -11.703 -14.8934 -33.8947
v -18.3851 36.9306 -21.9173
v -18.3851 36.9306 -21.9173
v 1.06978 -14.8934 -38.5436
v 1.06978 -14.8934 -38.5436
v -10.1259 36.9306 -24.9234
v -10.1259 36.9306 -24.9234
v 14.6623 -14.8934 -38.5436
v 14.6623 -14.8934 -38.5436
v -1.33652 36.9306 -24.9234
v -1.33652 36.9306 -24.9234
v 27.4351 -14.8934 -33.8947
v 27.4351 -14.8934 -33.8947
v 6.92276 36.9306 -21.9173
v 6.92276 36.9306 -21.9173
v 37.8476 -14.8934 -25.1575
v 37.8476 -14.8934 -25.1575
v 13.6558 36.9306 -16.2676
v 13.6558 36.9306 -16.2676
v 44.6439 -14.8934 -13.386
v 44.6439 -14.8934 -13.386
v 18.0504 36.9306 -8.65581
v 18.0504 36.9306 -8.65581
# 74 vertices

vt 0.50000 0.50000
vt 0.00000 0.50000
vt 0.03015 0.67101
vt 0.00000 0.00000
vt 0.00000 1.00000
vt 0.05556 1.00000
vt 0.05556 0.00000
vt 1.00000 0.50000
vt 0.96985 0.67101
vt 0.11698 0.82139
vt 0.11111 1.00000
vt 0.11111 0.00000
vt 0.88302 0.82139
vt 0.25000 0.93301
vt 0.16667 1.00000
vt 0.16667 0.00000
vt 0.75000 0.93301
vt 0.41318 0.99240
vt 0.22222 1.00000
vt 0.22222 0.00000
vt 0.58682 0.99240
vt 0.27778 1.00000
vt 0.27778 0.00000
vt 0.33333 1.00000
vt 0.33333 0.00000
vt 0.38889 1.00000
vt 0.38889 0.00000
vt 0.44444 1.00000
vt 0.44444 0.00000
vt 0.50000 1.00000
vt 0.50000 0.00000
vt 0.96985 0.32899
vt 0.55556 1.00000
vt 0.55556 0.00000
vt 0.03015 0.32899
vt 0.88302 0.17861
vt 0.61111 1.00000
vt 0.61111 0.00000
vt 0.11698 0.17861
vt 0.75000 0.06699
vt 0.66667 1.00000
vt 0.66667 0.00000
vt 0.25000 0.06699
vt 0.58682 0.00760
vt 0.72222 1.00000
vt 0.72222 0.00000
vt 0.41318 0.00760
vt 0.77778 1.00000
vt 0.77778 0.00000
vt 0.83333 1.00000
vt 0.83333 0.00000
vt 0.88889 1.00000
vt 0.88889 0.00000
vt 0.94444 1.00000
vt 0.94444 0.00000
vt 1.00000 1.00000
vt 1.00000 0.00000
# 57 texture coordinates

vn 0 -1 0
vn 0.883849 0.467772 -7.54052e-009
vn 0.835648 0.45667 0.305198
vn 0 1 0
vn 0.692804 0.423527 0.583651
vn 0.462733 0.369403 0.805866
vn 0.163686 0.297716 0.940517
vn -0.171141 0.215686 0.961348
vn -0.496256 0.13425 0.857733
vn -0.764604 0.0656826 0.641145
vn -0.939518 0.0203111 0.341898
vn -0.99999 0.00449713 0
vn -0.939518 0.0203111 -0.341898
vn -0.764604 0.0656826 -0.641145
vn -0.496256 0.13425 -0.857733
vn -0.171141 0.215686 -0.961348
vn 0.163686 0.297716 -0.940517
vn 0.462733 0.369403 -0.805866
vn 0.692804 0.423527 -0.583651
vn 0.835648 0.45667 -0.305198
# 20 vertex normals

usemtl Red_Wine.4
f 1/1/1 3/2/1 7/3/1
f 4/4/2 5/5/2 9/6/3 8/7/3
f 6/8/4 2/1/4 10/9/4
f 1/1/1 7/3/1 11/10/1
f 8/7/3 9/6/3 13/11/5 12/12/5
f 10/9/4 2/1/4 14/13/4
f 1/1/1 11/10/1 15/14/1
f 12/12/5 13/11/5 17/15/6 16/16/6
f 14/13/4 2/1/4 18/17/4
f 1/1/1 15/14/1 19/18/1
f 16/16/6 17/15/6 21/19/7 20/20/7
f 18/17/4 2/1/4 22/21/4
f 1/1/1 19/18/1 23/21/1
f 20/20/7 21/19/7 25/22/8 24/23/8
f 22/21/4 2/1/4 26/18/4
f 1/1/1 23/21/1 27/17/1
f 24/23/8 25/22/8 29/24/9 28/25/9
f 26/18/4 2/1/4 30/14/4
f 1/1/1 27/17/1 31/13/1
f 28/25/9 29/24/9 33/26/10 32/27/10
f 30/14/4 2/1/4 34/10/4
f 1/1/1 31/13/1 35/9/1
f 32/27/10 33/26/10 37/28/11 36/29/11
f 34/10/4 2/1/4 38/3/4
f 1/1/1 35/9/1 39/8/1
f 36/29/11 37/28/11 41/30/12 40/31/12
f 38/3/4 2/1/4 42/2/4
f 1/1/1 39/8/1 43/32/1
f 40/31/12 41/30/12 45/33/13 44/34/13
f 42/2/4 2/1/4 46/35/4
f 1/1/1 43/32/1 47/36/1
f 44/34/13 45/33/13 49/37/14 48/38/14
f 46/35/4 2/1/4 50/39/4
f 1/1/1 47/36/1 51/40/1
f 48/38/14 49/37/14 53/41/15 52/42/15
f 50/39/4 2/1/4 54/43/4
f 1/1/1 51/40/1 55/44/1
f 52/42/15 53/41/15 57/45/16 56/46/16
f 54/43/4 2/1/4 58/47/4
f 1/1/1 55/44/1 59/47/1
f 56/46/16 57/45/16 61/48/17 60/49/17
f 58/47/4 2/1/4 62/44/4
f 1/1/1 59/47/1 63/43/1
f 60/49/17 61/48/17 65/50/18 64/51/18
f 62/44/4 2/1/4 66/40/4
f 1/1/1 63/43/1 67/39/1
f 64/51/18 65/50/18 69/52/19 68/53/19
f 66/40/4 2/1/4 70/36/4
f 1/1/1 67/39/1 71/35/1
f 68/53/19 69/52/19 73/54/20 72/55/20
f 70/36/4 2/1/4 74/32/4
f 1/1/1 71/35/1 3/2/1
f 72/55/20 73/54/20 5/56/2 4/57/2
f 74/32/4 2/1/4 6/8/4
# 54 facets

