#  ==========================================================================
#  
#  Wavefront OBJ format exported by Red-i Productions' "Riptide Pro"
#     (a commercial plugin for Cinema 4D PC & Mac, R9.6 or later)
#  
#  Red-i Productions
#  http://skinprops.com
#  
#  ==========================================================================
mtllib steel_h.mtl
o ___
v -39.9523 -40.1711 -36.3261
v -39.9523 -30.121 -36.3261
v -39.9523 28.0146 -36.3261
v -39.9523 37.5121 -36.3261
v -4.83341 -40.1711 -36.3261
v -4.83053 -30.121 -36.3261
v -4.83053 28.0146 -36.3261
v -4.83341 37.5121 -36.3261
v 4.83341 -40.1711 -36.3261
v 4.83341 -30.121 -36.3261
v 4.83341 28.0146 -36.3261
v 4.83341 37.5121 -36.3261
v 41.1458 -40.1711 -36.3261
v 41.1458 -30.121 -36.3261
v 41.1458 28.0146 -36.3261
v 41.1458 37.5121 -36.3261
v 41.1458 -40.1711 36.3261
v 41.1458 -30.121 36.3261
v 41.1458 28.0146 36.3261
v 41.1458 37.5121 36.3261
v 4.83341 -40.1711 36.3261
v 4.83341 -30.121 36.3261
v 4.83341 28.0146 36.3261
v 4.83341 37.5121 36.3261
v -4.83341 -40.1711 36.3261
v -4.83341 37.5121 36.3261
v -39.9523 -40.1711 36.3261
v -39.9523 -30.121 36.3261
v -39.9523 28.0146 36.3261
v -39.9523 37.5121 36.3261
v -4.83053 -30.121 36.3261
v -4.83053 28.0146 36.3261
v 4.89427 -30.121 -36.3261
v 4.89427 28.0146 -36.3261
v 4.89427 -30.121 36.3261
v 4.89427 28.0146 36.3261
# 36 vertices

vt 0.00000 0.00000
vt 0.00000 0.33333
vt 0.33333 0.33333
vt 0.33333 0.00000
vt 0.66667 0.33333
vt 0.66667 0.00000
vt 1.00000 0.33333
vt 1.00000 0.00000
vt 1.00000 0.66667
vt 0.00000 0.66667
vt 0.33333 0.66667
vt 0.66667 0.66667
vt 0.00000 1.00000
vt 0.33333 1.00000
vt 0.66667 1.00000
vt 1.00000 1.00000
# 16 texture coordinates

vn -5.43067e-008 -1.89785e-007 -1
vn 1.79265e-007 -1.26542e-007 -1
vn 7.15305e-008 -1.89813e-007 -1
vn 1.97368e-007 -6.32804e-008 -1
vn 9.86838e-008 -9.49207e-008 -1
vn 0 0 -1
vn 0 -1 0
vn 1.79265e-007 1.33878e-007 -1
vn 1.97368e-007 6.69419e-008 -1
vn -5.43067e-008 2.00809e-007 -1
vn 7.15305e-008 2.00817e-007 -1
vn 9.86838e-008 1.00413e-007 -1
vn 1 0 0
vn 0 0 1
vn -1.97368e-007 6.32616e-008 1
vn -9.86838e-008 9.48923e-008 1
vn -1.79265e-007 1.26518e-007 1
vn -7.15304e-008 1.89777e-007 1
vn 5.43067e-008 1.89769e-007 1
vn 0 1 0
vn -1.97368e-007 -6.69619e-008 1
vn -1.79265e-007 -1.33904e-007 1
vn -9.86838e-008 -1.00443e-007 1
vn -7.15305e-008 -2.00856e-007 1
vn 5.43067e-008 -2.00826e-007 1
vn -1 0 0
# 26 vertex normals

usemtl Red_Wine.3
f 1/1/1 2/2/1 6/3/2 5/4/3
f 5/4/3 6/3/2 10/5/4 9/6/5
f 9/6/5 10/5/4 14/7/6 13/8/6
f 3/9/7 7/9/7 32/10/7 29/10/7
f 6/3/2 7/11/8 11/12/9 10/5/4
f 19/9/7 36/9/7 34/10/7 15/10/7
f 3/10/10 4/13/10 8/14/11 7/11/8
f 7/11/8 8/14/11 12/15/12 11/12/9
f 11/12/9 12/15/12 16/16/6 15/9/6
f 13/1/13 14/2/13 18/7/13 17/8/13
f 33/2/13 34/10/13 36/9/13 35/7/13
f 15/10/13 16/13/13 20/16/13 19/9/13
f 17/1/14 18/2/14 22/3/15 21/4/16
f 21/4/16 22/3/15 31/5/17 25/6/18
f 25/6/18 31/5/17 28/7/19 27/8/19
f 14/2/20 33/2/20 35/7/20 18/7/20
f 22/3/15 23/11/21 32/12/22 31/5/17
f 28/2/20 31/2/20 6/7/20 2/7/20
f 19/10/14 20/13/14 24/14/23 23/11/21
f 23/11/21 24/14/23 26/15/24 32/12/22
f 32/12/22 26/15/24 30/16/25 29/9/25
f 27/1/26 28/2/26 2/7/26 1/8/26
f 31/2/26 32/10/26 7/9/26 6/7/26
f 29/10/26 30/13/26 4/16/26 3/9/26
f 4/1/20 30/13/20 26/14/20 8/4/20
f 8/4/20 26/14/20 24/15/20 12/6/20
f 12/6/20 24/15/20 20/16/20 16/8/20
f 27/1/7 1/13/7 5/14/7 25/4/7
f 25/4/7 5/14/7 9/15/7 21/6/7
f 21/6/7 9/15/7 13/16/7 17/8/7
# 30 facets

