#  ==========================================================================
#  
#  Wavefront OBJ format exported by Red-i Productions' "Riptide Pro"
#     (a commercial plugin for Cinema 4D PC & Mac, R9.6 or later)
#  
#  Red-i Productions
#  http://skinprops.com
#  
#  ==========================================================================
mtllib sanxiang.mtl
o __
v 0.406675 -3.33249e-015 28.4009
v 0.406672 3.61004e-015 -84.9791
v 0.406675 39.1382 28.4009
v 0.406675 39.1382 28.4009
v 0.406672 39.1382 -84.9791
v 0.406672 39.1382 -84.9791
v -12.9794 36.7779 28.4009
v -12.9794 36.7779 28.4009
v -12.9794 36.7779 -84.9791
v -12.9794 36.7779 -84.9791
v -24.7509 29.9816 28.4009
v -24.7509 29.9816 28.4009
v -24.7509 29.9816 -84.9791
v -24.7509 29.9816 -84.9791
v -33.488 19.5691 28.4009
v -33.488 19.5691 28.4009
v -33.488 19.5691 -84.9791
v -33.488 19.5691 -84.9791
v -38.1369 6.79628 28.4009
v -38.1369 6.79628 28.4009
v -38.1369 6.79628 -84.9791
v -38.1369 6.79628 -84.9791
v -38.1369 -6.79628 28.4009
v -38.1369 -6.79628 28.4009
v -38.1369 -6.79628 -84.9791
v -38.1369 -6.79628 -84.9791
v -33.488 -19.5691 28.4009
v -33.488 -19.5691 28.4009
v -33.488 -19.5691 -84.9791
v -33.488 -19.5691 -84.9791
v -24.7509 -29.9816 28.4009
v -24.7509 -29.9816 28.4009
v -24.7509 -29.9816 -84.9791
v -24.7509 -29.9816 -84.9791
v -12.9794 -36.7779 28.4009
v -12.9794 -36.7779 28.4009
v -12.9794 -36.7779 -84.9791
v -12.9794 -36.7779 -84.9791
v 0.406675 -39.1382 28.4009
v 0.406675 -39.1382 28.4009
v 0.406672 -39.1382 -84.9791
v 0.406672 -39.1382 -84.9791
v 13.7927 -36.7779 28.4009
v 13.7927 -36.7779 28.4009
v 13.7927 -36.7779 -84.9791
v 13.7927 -36.7779 -84.9791
v 25.5642 -29.9816 28.4009
v 25.5642 -29.9816 28.4009
v 25.5642 -29.9816 -84.9791
v 25.5642 -29.9816 -84.9791
v 34.3013 -19.5691 28.4009
v 34.3013 -19.5691 28.4009
v 34.3013 -19.5691 -84.9791
v 34.3013 -19.5691 -84.9791
v 38.9503 -6.79628 28.4009
v 38.9503 -6.79628 28.4009
v 38.9503 -6.79628 -84.9791
v 38.9503 -6.79628 -84.9791
v 38.9503 6.79628 28.4009
v 38.9503 6.79628 28.4009
v 38.9503 6.79628 -84.9791
v 38.9503 6.79628 -84.9791
v 34.3013 19.5691 28.4009
v 34.3013 19.5691 28.4009
v 34.3013 19.5691 -84.9791
v 34.3013 19.5691 -84.9791
v 25.5642 29.9816 28.4009
v 25.5642 29.9816 28.4009
v 25.5642 29.9816 -84.9791
v 25.5642 29.9816 -84.9791
v 13.7927 36.7779 28.4009
v 13.7927 36.7779 28.4009
v 13.7927 36.7779 -84.9791
v 13.7927 36.7779 -84.9791
# 74 vertices

vt 0.50000 0.50000
vt 0.00000 0.50000
vt 0.03015 0.32899
vt 0.00000 1.00000
vt 0.00000 0.00000
vt 0.05556 0.00000
vt 0.05556 1.00000
vt 1.00000 0.50000
vt 0.96985 0.32899
vt 0.11698 0.17861
vt 0.11111 0.00000
vt 0.11111 1.00000
vt 0.88302 0.17861
vt 0.25000 0.06699
vt 0.16667 0.00000
vt 0.16667 1.00000
vt 0.75000 0.06699
vt 0.41318 0.00760
vt 0.22222 0.00000
vt 0.22222 1.00000
vt 0.58682 0.00760
vt 0.27778 0.00000
vt 0.27778 1.00000
vt 0.33333 0.00000
vt 0.33333 1.00000
vt 0.38889 0.00000
vt 0.38889 1.00000
vt 0.44444 0.00000
vt 0.44444 1.00000
vt 0.50000 0.00000
vt 0.50000 1.00000
vt 0.96985 0.67101
vt 0.55556 0.00000
vt 0.55556 1.00000
vt 0.03015 0.67101
vt 0.88302 0.82139
vt 0.61111 0.00000
vt 0.61111 1.00000
vt 0.11698 0.82139
vt 0.75000 0.93301
vt 0.66667 0.00000
vt 0.66667 1.00000
vt 0.25000 0.93301
vt 0.58682 0.99240
vt 0.72222 0.00000
vt 0.72222 1.00000
vt 0.41318 0.99240
vt 0.77778 0.00000
vt 0.77778 1.00000
vt 0.83333 0.00000
vt 0.83333 1.00000
vt 0.88889 0.00000
vt 0.88889 1.00000
vt 0.94444 0.00000
vt 0.94444 1.00000
vt 1.00000 0.00000
vt 1.00000 1.00000
# 57 texture coordinates

vn 2.98023e-008 -6.12323e-017 1
vn 2.26966e-008 1 -6.15178e-016
vn -0.34202 0.939693 1.0193e-008
vn -2.98023e-008 6.12323e-017 -1
vn -0.642788 0.766044 1.91566e-008
vn -0.866025 0.5 2.58096e-008
vn -0.984808 0.173648 2.93496e-008
vn -0.984808 -0.173648 2.93496e-008
vn -0.866025 -0.5 2.58096e-008
vn -0.642788 -0.766044 1.91566e-008
vn -0.34202 -0.939693 1.0193e-008
vn -1.82487e-024 -1 -6.12323e-017
vn 0.34202 -0.939693 -1.0193e-008
vn 0.642788 -0.766044 -1.91566e-008
vn 0.866025 -0.5 -2.58096e-008
vn 0.984808 -0.173648 -2.93496e-008
vn 0.984808 0.173648 -2.93496e-008
vn 0.866025 0.5 -2.58096e-008
vn 0.642788 0.766044 -1.91566e-008
vn 0.34202 0.939693 -1.0193e-008
# 20 vertex normals

usemtl Red_Wine.4
f 1/1/1 3/2/1 7/3/1
f 4/4/2 5/5/2 9/6/3 8/7/3
f 6/8/4 2/1/4 10/9/4
f 1/1/1 7/3/1 11/10/1
f 8/7/3 9/6/3 13/11/5 12/12/5
f 10/9/4 2/1/4 14/13/4
f 1/1/1 11/10/1 15/14/1
f 12/12/5 13/11/5 17/15/6 16/16/6
f 14/13/4 2/1/4 18/17/4
f 1/1/1 15/14/1 19/18/1
f 16/16/6 17/15/6 21/19/7 20/20/7
f 18/17/4 2/1/4 22/21/4
f 1/1/1 19/18/1 23/21/1
f 20/20/7 21/19/7 25/22/8 24/23/8
f 22/21/4 2/1/4 26/18/4
f 1/1/1 23/21/1 27/17/1
f 24/23/8 25/22/8 29/24/9 28/25/9
f 26/18/4 2/1/4 30/14/4
f 1/1/1 27/17/1 31/13/1
f 28/25/9 29/24/9 33/26/10 32/27/10
f 30/14/4 2/1/4 34/10/4
f 1/1/1 31/13/1 35/9/1
f 32/27/10 33/26/10 37/28/11 36/29/11
f 34/10/4 2/1/4 38/3/4
f 1/1/1 35/9/1 39/8/1
f 36/29/11 37/28/11 41/30/12 40/31/12
f 38/3/4 2/1/4 42/2/4
f 1/1/1 39/8/1 43/32/1
f 40/31/12 41/30/12 45/33/13 44/34/13
f 42/2/4 2/1/4 46/35/4
f 1/1/1 43/32/1 47/36/1
f 44/34/13 45/33/13 49/37/14 48/38/14
f 46/35/4 2/1/4 50/39/4
f 1/1/1 47/36/1 51/40/1
f 48/38/14 49/37/14 53/41/15 52/42/15
f 50/39/4 2/1/4 54/43/4
f 1/1/1 51/40/1 55/44/1
f 52/42/15 53/41/15 57/45/16 56/46/16
f 54/43/4 2/1/4 58/47/4
f 1/1/1 55/44/1 59/47/1
f 56/46/16 57/45/16 61/48/17 60/49/17
f 58/47/4 2/1/4 62/44/4
f 1/1/1 59/47/1 63/43/1
f 60/49/17 61/48/17 65/50/18 64/51/18
f 62/44/4 2/1/4 66/40/4
f 1/1/1 63/43/1 67/39/1
f 64/51/18 65/50/18 69/52/19 68/53/19
f 66/40/4 2/1/4 70/36/4
f 1/1/1 67/39/1 71/35/1
f 68/53/19 69/52/19 73/54/20 72/55/20
f 70/36/4 2/1/4 74/32/4
f 1/1/1 71/35/1 3/2/1
f 72/55/20 73/54/20 5/56/2 4/57/2
f 74/32/4 2/1/4 6/8/4
# 54 facets

o __.17
v -88.5138 -5.50603e-015 28.2891
v 87.7004 5.28398e-015 28.2891
v -88.5138 39.1382 28.2891
v -88.5138 39.1382 28.2891
v 87.7004 39.1382 28.2891
v 87.7004 39.1382 28.2891
v -88.5138 36.7779 14.9031
v -88.5138 36.7779 14.9031
v 87.7004 36.7779 14.9031
v 87.7004 36.7779 14.9031
v -88.5138 29.9816 3.13156
v -88.5138 29.9816 3.13156
v 87.7004 29.9816 3.13156
v 87.7004 29.9816 3.13156
v -88.5138 19.5691 -5.60556
v -88.5138 19.5691 -5.60556
v 87.7004 19.5691 -5.60557
v 87.7004 19.5691 -5.60557
v -88.5138 6.79628 -10.2545
v -88.5138 6.79628 -10.2545
v 87.7004 6.79628 -10.2545
v 87.7004 6.79628 -10.2545
v -88.5138 -6.79628 -10.2545
v -88.5138 -6.79628 -10.2545
v 87.7004 -6.79628 -10.2545
v 87.7004 -6.79628 -10.2545
v -88.5138 -19.5691 -5.60556
v -88.5138 -19.5691 -5.60556
v 87.7004 -19.5691 -5.60557
v 87.7004 -19.5691 -5.60557
v -88.5138 -29.9816 3.13156
v -88.5138 -29.9816 3.13156
v 87.7004 -29.9816 3.13156
v 87.7004 -29.9816 3.13156
v -88.5138 -36.7779 14.9031
v -88.5138 -36.7779 14.9031
v 87.7004 -36.7779 14.9031
v 87.7004 -36.7779 14.9031
v -88.5138 -39.1382 28.2891
v -88.5138 -39.1382 28.2891
v 87.7004 -39.1382 28.2891
v 87.7004 -39.1382 28.2891
v -88.5138 -36.7779 41.6752
v -88.5138 -36.7779 41.6752
v 87.7004 -36.7779 41.6751
v 87.7004 -36.7779 41.6751
v -88.5138 -29.9816 53.4466
v -88.5138 -29.9816 53.4466
v 87.7004 -29.9816 53.4466
v 87.7004 -29.9816 53.4466
v -88.5138 -19.5691 62.1838
v -88.5138 -19.5691 62.1838
v 87.7004 -19.5691 62.1838
v 87.7004 -19.5691 62.1838
v -88.5138 -6.79628 66.8327
v -88.5138 -6.79628 66.8327
v 87.7004 -6.79628 66.8327
v 87.7004 -6.79628 66.8327
v -88.5138 6.79628 66.8327
v -88.5138 6.79628 66.8327
v 87.7004 6.79628 66.8327
v 87.7004 6.79628 66.8327
v -88.5138 19.5691 62.1838
v -88.5138 19.5691 62.1838
v 87.7004 19.5691 62.1838
v 87.7004 19.5691 62.1838
v -88.5138 29.9816 53.4466
v -88.5138 29.9816 53.4466
v 87.7004 29.9816 53.4466
v 87.7004 29.9816 53.4466
v -88.5138 36.7779 41.6752
v -88.5138 36.7779 41.6752
v 87.7004 36.7779 41.6751
v 87.7004 36.7779 41.6751
# 74 vertices

vt 0.50000 0.50000
vt 0.00000 0.50000
vt 0.03015 0.32899
vt 0.00000 1.00000
vt 0.00000 0.00000
vt 0.05556 0.00000
vt 0.05556 1.00000
vt 1.00000 0.50000
vt 0.96985 0.32899
vt 0.11698 0.17861
vt 0.11111 0.00000
vt 0.11111 1.00000
vt 0.88302 0.17861
vt 0.25000 0.06699
vt 0.16667 0.00000
vt 0.16667 1.00000
vt 0.75000 0.06699
vt 0.41318 0.00760
vt 0.22222 0.00000
vt 0.22222 1.00000
vt 0.58682 0.00760
vt 0.27778 0.00000
vt 0.27778 1.00000
vt 0.33333 0.00000
vt 0.33333 1.00000
vt 0.38889 0.00000
vt 0.38889 1.00000
vt 0.44444 0.00000
vt 0.44444 1.00000
vt 0.50000 0.00000
vt 0.50000 1.00000
vt 0.96985 0.67101
vt 0.55556 0.00000
vt 0.55556 1.00000
vt 0.03015 0.67101
vt 0.88302 0.82139
vt 0.61111 0.00000
vt 0.61111 1.00000
vt 0.11698 0.82139
vt 0.75000 0.93301
vt 0.66667 0.00000
vt 0.66667 1.00000
vt 0.25000 0.93301
vt 0.58682 0.99240
vt 0.72222 0.00000
vt 0.72222 1.00000
vt 0.41318 0.99240
vt 0.77778 0.00000
vt 0.77778 1.00000
vt 0.83333 0.00000
vt 0.83333 1.00000
vt 0.88889 0.00000
vt 0.88889 1.00000
vt 0.94444 0.00000
vt 0.94444 1.00000
vt 1.00000 0.00000
vt 1.00000 1.00000
# 57 texture coordinates

vn -1 -6.12323e-017 3.65002e-008
vn 1.04334e-015 1 3.02621e-008
vn -1.24838e-008 0.939693 -0.34202
vn 1 6.12323e-017 -3.65002e-008
vn -2.34619e-008 0.766044 -0.642788
vn -3.16101e-008 0.5 -0.866025
vn -3.59457e-008 0.173648 -0.984808
vn -3.59457e-008 -0.173648 -0.984808
vn -3.16101e-008 -0.5 -0.866025
vn -2.34619e-008 -0.766044 -0.642788
vn -1.24838e-008 -0.939693 -0.34202
vn 6.12323e-017 -1 -2.235e-024
vn 1.24838e-008 -0.939693 0.34202
vn 2.34619e-008 -0.766044 0.642788
vn 3.16101e-008 -0.5 0.866025
vn 3.59457e-008 -0.173648 0.984808
vn 3.59457e-008 0.173648 0.984808
vn 3.16101e-008 0.5 0.866025
vn 2.34619e-008 0.766044 0.642788
vn 1.24838e-008 0.939693 0.34202
# 20 vertex normals

usemtl Red_Wine.4
f 75/58/21 77/59/21 81/60/21
f 78/61/22 79/62/22 83/63/23 82/64/23
f 80/65/24 76/58/24 84/66/24
f 75/58/21 81/60/21 85/67/21
f 82/64/23 83/63/23 87/68/25 86/69/25
f 84/66/24 76/58/24 88/70/24
f 75/58/21 85/67/21 89/71/21
f 86/69/25 87/68/25 91/72/26 90/73/26
f 88/70/24 76/58/24 92/74/24
f 75/58/21 89/71/21 93/75/21
f 90/73/26 91/72/26 95/76/27 94/77/27
f 92/74/24 76/58/24 96/78/24
f 75/58/21 93/75/21 97/78/21
f 94/77/27 95/76/27 99/79/28 98/80/28
f 96/78/24 76/58/24 100/75/24
f 75/58/21 97/78/21 101/74/21
f 98/80/28 99/79/28 103/81/29 102/82/29
f 100/75/24 76/58/24 104/71/24
f 75/58/21 101/74/21 105/70/21
f 102/82/29 103/81/29 107/83/30 106/84/30
f 104/71/24 76/58/24 108/67/24
f 75/58/21 105/70/21 109/66/21
f 106/84/30 107/83/30 111/85/31 110/86/31
f 108/67/24 76/58/24 112/60/24
f 75/58/21 109/66/21 113/65/21
f 110/86/31 111/85/31 115/87/32 114/88/32
f 112/60/24 76/58/24 116/59/24
f 75/58/21 113/65/21 117/89/21
f 114/88/32 115/87/32 119/90/33 118/91/33
f 116/59/24 76/58/24 120/92/24
f 75/58/21 117/89/21 121/93/21
f 118/91/33 119/90/33 123/94/34 122/95/34
f 120/92/24 76/58/24 124/96/24
f 75/58/21 121/93/21 125/97/21
f 122/95/34 123/94/34 127/98/35 126/99/35
f 124/96/24 76/58/24 128/100/24
f 75/58/21 125/97/21 129/101/21
f 126/99/35 127/98/35 131/102/36 130/103/36
f 128/100/24 76/58/24 132/104/24
f 75/58/21 129/101/21 133/104/21
f 130/103/36 131/102/36 135/105/37 134/106/37
f 132/104/24 76/58/24 136/101/24
f 75/58/21 133/104/21 137/100/21
f 134/106/37 135/105/37 139/107/38 138/108/38
f 136/101/24 76/58/24 140/97/24
f 75/58/21 137/100/21 141/96/21
f 138/108/38 139/107/38 143/109/39 142/110/39
f 140/97/24 76/58/24 144/93/24
f 75/58/21 141/96/21 145/92/21
f 142/110/39 143/109/39 147/111/40 146/112/40
f 144/93/24 76/58/24 148/89/24
f 75/58/21 145/92/21 77/59/21
f 146/112/40 147/111/40 79/113/22 78/114/22
f 148/89/24 76/58/24 80/65/24
# 54 facets

