#  ==========================================================================
#  
#  Wavefront OBJ format exported by Red-i Productions' "Riptide Pro"
#     (a commercial plugin for Cinema 4D PC & Mac, R9.6 or later)
#  
#  Red-i Productions
#  http://skinprops.com
#  
#  ==========================================================================
mtllib water_circular.mtl
o __.1
v -0 -207.167 0
v -0 207.167 0
v -1774.04 -207.167 0
v -1774.04 -207.167 0
v -1774.04 207.167 0
v -1774.04 207.167 0
v -1639 -207.167 678.895
v -1639 -207.167 678.895
v -1639 207.167 678.895
v -1639 207.167 678.895
v -1254.43 -207.167 1254.43
v -1254.43 -207.167 1254.43
v -1254.43 207.167 1254.43
v -1254.43 207.167 1254.43
v -678.895 -207.167 1639
v -678.895 -207.167 1639
v -678.895 207.167 1639
v -678.895 207.167 1639
v -1.08629e-013 -207.167 1774.04
v -1.08629e-013 -207.167 1774.04
v -1.08629e-013 207.167 1774.04
v -1.08629e-013 207.167 1774.04
v 678.895 -207.167 1639
v 678.895 -207.167 1639
v 678.895 207.167 1639
v 678.895 207.167 1639
v 1254.43 -207.167 1254.43
v 1254.43 -207.167 1254.43
v 1254.43 207.167 1254.43
v 1254.43 207.167 1254.43
v 1639 -207.167 678.895
v 1639 -207.167 678.895
v 1639 207.167 678.895
v 1639 207.167 678.895
v 1774.04 -207.167 2.17257e-013
v 1774.04 -207.167 2.17257e-013
v 1774.04 207.167 2.17257e-013
v 1774.04 207.167 2.17257e-013
v 1639 -207.167 -678.895
v 1639 -207.167 -678.895
v 1639 207.167 -678.895
v 1639 207.167 -678.895
v 1254.43 -207.167 -1254.43
v 1254.43 -207.167 -1254.43
v 1254.43 207.167 -1254.43
v 1254.43 207.167 -1254.43
v 678.895 -207.167 -1639
v 678.895 -207.167 -1639
v 678.895 207.167 -1639
v 678.895 207.167 -1639
v 3.25886e-013 -207.167 -1774.04
v 3.25886e-013 -207.167 -1774.04
v 3.25886e-013 207.167 -1774.04
v 3.25886e-013 207.167 -1774.04
v -678.895 -207.167 -1639
v -678.895 -207.167 -1639
v -678.895 207.167 -1639
v -678.895 207.167 -1639
v -1254.43 -207.167 -1254.43
v -1254.43 -207.167 -1254.43
v -1254.43 207.167 -1254.43
v -1254.43 207.167 -1254.43
v -1639 -207.167 -678.895
v -1639 -207.167 -678.895
v -1639 207.167 -678.895
v -1639 207.167 -678.895
# 66 vertices

vt 0.50000 0.50000
vt 0.00000 0.50000
vt 0.03806 0.69134
vt 0.00000 0.00000
vt 0.00000 1.00000
vt 0.06250 1.00000
vt 0.06250 0.00000
vt 1.00000 0.50000
vt 0.96194 0.69134
vt 0.14645 0.85355
vt 0.12500 1.00000
vt 0.12500 0.00000
vt 0.85355 0.85355
vt 0.30866 0.96194
vt 0.18750 1.00000
vt 0.18750 0.00000
vt 0.69134 0.96194
vt 0.50000 1.00000
vt 0.25000 1.00000
vt 0.25000 0.00000
vt 0.31250 1.00000
vt 0.31250 0.00000
vt 0.37500 1.00000
vt 0.37500 0.00000
vt 0.43750 1.00000
vt 0.43750 0.00000
vt 0.50000 0.00000
vt 0.96194 0.30866
vt 0.56250 1.00000
vt 0.56250 0.00000
vt 0.03806 0.30866
vt 0.85355 0.14645
vt 0.62500 1.00000
vt 0.62500 0.00000
vt 0.14645 0.14645
vt 0.69134 0.03806
vt 0.68750 1.00000
vt 0.68750 0.00000
vt 0.30866 0.03806
vt 0.75000 1.00000
vt 0.75000 0.00000
vt 0.81250 1.00000
vt 0.81250 0.00000
vt 0.87500 1.00000
vt 0.87500 0.00000
vt 0.93750 1.00000
vt 0.93750 0.00000
vt 1.00000 1.00000
vt 1.00000 0.00000
# 49 texture coordinates

vn -0 -1 0
vn -1 0 -1.69796e-016
vn -0.92388 0 0.382683
vn -0 1 0
vn -0.707107 0 0.707107
vn -0.382683 0 0.92388
vn -0 0 1
vn 0.382683 0 0.92388
vn 0.707107 0 0.707107
vn 0.92388 0 0.382683
vn 1 0 1.69796e-016
vn 0.92388 0 -0.382683
vn 0.707107 0 -0.707107
vn 0.382683 0 -0.92388
vn 1.98095e-016 0 -1
vn -0.382683 0 -0.92388
vn -0.707107 0 -0.707107
vn -0.92388 0 -0.382683
# 18 vertex normals

usemtl 2
f 7/3/1 3/2/1 1/1/1
f 8/7/3 9/6/3 5/5/2 4/4/2
f 10/9/4 2/1/4 6/8/4
f 11/10/1 7/3/1 1/1/1
f 12/12/5 13/11/5 9/6/3 8/7/3
f 14/13/4 2/1/4 10/9/4
f 15/14/1 11/10/1 1/1/1
f 16/16/6 17/15/6 13/11/5 12/12/5
f 18/17/4 2/1/4 14/13/4
f 19/18/1 15/14/1 1/1/1
f 20/20/7 21/19/7 17/15/6 16/16/6
f 22/18/4 2/1/4 18/17/4
f 23/17/1 19/18/1 1/1/1
f 24/22/8 25/21/8 21/19/7 20/20/7
f 26/14/4 2/1/4 22/18/4
f 27/13/1 23/17/1 1/1/1
f 28/24/9 29/23/9 25/21/8 24/22/8
f 30/10/4 2/1/4 26/14/4
f 31/9/1 27/13/1 1/1/1
f 32/26/10 33/25/10 29/23/9 28/24/9
f 34/3/4 2/1/4 30/10/4
f 35/8/1 31/9/1 1/1/1
f 36/27/11 37/18/11 33/25/10 32/26/10
f 38/2/4 2/1/4 34/3/4
f 39/28/1 35/8/1 1/1/1
f 40/30/12 41/29/12 37/18/11 36/27/11
f 42/31/4 2/1/4 38/2/4
f 43/32/1 39/28/1 1/1/1
f 44/34/13 45/33/13 41/29/12 40/30/12
f 46/35/4 2/1/4 42/31/4
f 47/36/1 43/32/1 1/1/1
f 48/38/14 49/37/14 45/33/13 44/34/13
f 50/39/4 2/1/4 46/35/4
f 51/27/1 47/36/1 1/1/1
f 52/41/15 53/40/15 49/37/14 48/38/14
f 54/27/4 2/1/4 50/39/4
f 55/39/1 51/27/1 1/1/1
f 56/43/16 57/42/16 53/40/15 52/41/15
f 58/36/4 2/1/4 54/27/4
f 59/35/1 55/39/1 1/1/1
f 60/45/17 61/44/17 57/42/16 56/43/16
f 62/32/4 2/1/4 58/36/4
f 63/31/1 59/35/1 1/1/1
f 64/47/18 65/46/18 61/44/17 60/45/17
f 66/28/4 2/1/4 62/32/4
f 3/2/1 63/31/1 1/1/1
f 4/49/2 5/48/2 65/46/18 64/47/18
f 6/8/4 2/1/4 66/28/4
# 48 facets

